<?xml version="1.0" encoding="utf-8"?>
<!-- Generator: Adobe Illustrator 27.8.1, SVG Export Plug-In . SVG Version: 6.00 Build 0)  -->
<svg version="1.1" id="Camada_1" xmlns="http://www.w3.org/2000/svg" xmlns:xlink="http://www.w3.org/1999/xlink" x="0px" y="0px"
	 viewBox="0 0 197.3 70" style="enable-background:new 0 0 197.3 70;" xml:space="preserve">
<style type="text/css">
	.st0{clip-path:url(#SVGID_00000015338610247092560860000000733322096694837639_);}
	.st1{clip-path:url(#SVGID_00000089562143314145962030000014067064228555051698_);}
	.st2{fill:url(#SVGID_00000089558586636035712900000004607751772834859961_);}
	.st3{opacity:0.3;fill:#FFCC00;enable-background:new    ;}
	.st4{opacity:0.6;fill:#FFC001;enable-background:new    ;}
	.st5{opacity:0.6;fill:#FFD919;enable-background:new    ;}
	.st6{opacity:0.6;fill:#FFAE00;enable-background:new    ;}
	.st7{clip-path:url(#SVGID_00000035514609069623135620000012743515312300610204_);}
	.st8{clip-path:url(#SVGID_00000060000228045566157330000000353047356095671200_);}
	.st9{fill:#4C4C4C;}
</style>
<g>
	<defs>
		<rect id="SVGID_1_" width="197.3" height="70"/>
	</defs>
	<clipPath id="SVGID_00000052799322371174366940000001834194759556253087_">
		<use xlink:href="#SVGID_1_"  style="overflow:visible;"/>
	</clipPath>
	<g style="clip-path:url(#SVGID_00000052799322371174366940000001834194759556253087_);">
		<g>
			<defs>
				<rect id="SVGID_00000054233967977611909180000016707038446413852066_" x="5" y="5" width="60" height="60"/>
			</defs>
			<clipPath id="SVGID_00000055664642134730318810000003439554895820409260_">
				<use xlink:href="#SVGID_00000054233967977611909180000016707038446413852066_"  style="overflow:visible;"/>
			</clipPath>
			<g style="clip-path:url(#SVGID_00000055664642134730318810000003439554895820409260_);">
				
					<linearGradient id="SVGID_00000163040410264658545550000006909725257645703826_" gradientUnits="userSpaceOnUse" x1="16.928" y1="18.0879" x2="58.3812" y2="61.4185" gradientTransform="matrix(1 0 0 -1 0 72)">
					<stop  offset="0" style="stop-color:#FF5500"/>
					<stop  offset="0.616" style="stop-color:#FFEB99"/>
				</linearGradient>
				<path style="fill:url(#SVGID_00000163040410264658545550000006909725257645703826_);" d="M65,35l-8.7-21l-0.1-0.2L56,13.7
					L54.2,13L35.3,5.1L35,5l-0.2,0.1L20.6,11l-6.5,2.7l-0.3,0.1l-8.7,21L5,35l8.7,21l0.1,0.2l20.9,8.7L35,65l21-8.7l0.2-0.1
					l8.7-20.9L65,35z M28.9,49.7c-2.3-3.3-5.2-6.2-8.6-8.6c0.7-4,0.7-8.2,0-12.2c3.4-2.3,6.3-5.3,8.6-8.7c4,0.7,8.1,0.7,12.2,0
					c2.3,3.4,5.3,6.3,8.6,8.6c-0.7,4.1-0.7,8.2,0,12.2c-3.3,2.3-6.3,5.2-8.6,8.6C37.1,49,33,49,28.9,49.7z"/>
				<path class="st3" d="M64.8,34.7l-8.7-20.9L35.3,5.1c1,7.5,4.4,14.5,9.7,19.8S57.3,33.8,64.8,34.7z"/>
				<path class="st4" d="M34.7,5.1l-21,8.7l-8.7,21c7.5-1,14.5-4.4,19.9-9.8S33.8,12.6,34.7,5.1z"/>
				<path class="st4" d="M35.3,64.9l20.9-8.7l8.7-20.9c-7.5,1-14.5,4.4-19.8,9.8C39.7,50.4,36.3,57.4,35.3,64.9z"/>
				<path class="st5" d="M55.9,13.7L35,5l-20.9,8.6c6,4.6,13.3,7.1,20.9,7.1C42.6,20.8,49.9,18.3,55.9,13.7z"/>
				<path class="st5" d="M56.3,55.9L65,35l-8.7-21c-4.6,6-7.1,13.4-7.1,20.9C49.2,42.5,51.7,49.9,56.3,55.9z"/>
				<path class="st6" d="M14,56.3L35,65l21-8.7c-6-4.6-13.4-7.2-21-7.2C27.4,49.1,20,51.7,14,56.3z"/>
				<path class="st6" d="M5.1,35.3l8.7,20.9l20.9,8.7c-1-7.5-4.4-14.5-9.8-19.9S12.6,36.3,5.1,35.3z"/>
				<path class="st6" d="M13.7,14L5,35l8.7,21c4.6-6,7.2-13.4,7.2-21C20.8,27.4,18.3,20,13.7,14z"/>
			</g>
		</g>
		<g>
			<defs>
				<rect id="SVGID_00000018225243880891563990000004795401430465790906_" x="85.4" y="12.5" width="107.7" height="45"/>
			</defs>
			<clipPath id="SVGID_00000045603519537723377230000014637660849424858002_">
				<use xlink:href="#SVGID_00000018225243880891563990000004795401430465790906_"  style="overflow:visible;"/>
			</clipPath>
			<g style="clip-path:url(#SVGID_00000045603519537723377230000014637660849424858002_);">
				<g>
					<defs>
						<rect id="SVGID_00000093884836837131319810000004130964436828390819_" x="85.4" y="12.5" width="107.7" height="30.4"/>
					</defs>
					<clipPath id="SVGID_00000049906309756531257740000015198471787824260243_">
						<use xlink:href="#SVGID_00000093884836837131319810000004130964436828390819_"  style="overflow:visible;"/>
					</clipPath>
					<g style="clip-path:url(#SVGID_00000049906309756531257740000015198471787824260243_);">
						<path class="st9" d="M85.4,27.7c0-10.3,2.9-15.2,11.7-15.2c3.4,0.1,6.8,0.5,10.1,1.2l-0.2,3.8c-3-0.4-6.1-0.7-9.2-0.7
							c-5.9,0-7.4,2.7-7.4,11c0,8,1.3,11,7.3,11c1.6,0,3.1-0.1,4.7-0.3v-7.1h-3.6v-4.3h8.4v15c-2.4,0.4-7.1,1-9.9,1
							C87.8,42.9,85.4,37.4,85.4,27.7z"/>
						<path class="st9" d="M112.4,31.9c0-7.9,3.4-11.4,9.4-11.4c6,0,9.1,3.1,9.1,9.8l-0.3,3.4h-13.4c0,3.4,1.3,5.1,4.9,5.1
							c2.5,0,6-0.2,8-0.4l0.1,3.5c-2.9,0.6-5.8,0.9-8.8,1C114.9,42.9,112.4,39.4,112.4,31.9z M126.2,30c0-4.3-1.3-5.7-4.4-5.7
							c-3.2,0-4.6,1.6-4.6,5.7H126.2z"/>
						<path class="st9" d="M134.9,13h8.4l6.6,22.9l6.6-22.9h8.4v29.4H160V18.3h-0.6l-7,22.9h-5l-7-22.9h-0.6v24.1h-4.8V13z"/>
						<path class="st9" d="M176.2,13h9.6l7.3,29.4h-4.9l-1.6-6.3h-11.3l-1.6,6.3h-4.8L176.2,13z M185.7,31.9L182.1,17h-2.2
							l-3.6,14.9H185.7z"/>
					</g>
				</g>
				<path class="st9" d="M85.4,51.5h1.7l1.3,4.6l1.3-4.6h1.7v5.9h-1v-4.8h-0.1l-1.4,4.6h-1l-1.4-4.6h-0.1v4.8h-1V51.5z"/>
				<path class="st9" d="M92.7,55.5v-4h1v4c0,0.8,0.4,1.1,1.2,1.1c0.8,0,1.2-0.3,1.2-1.1v-4h1v4c0,1.4-0.8,2-2.2,2
					C93.5,57.5,92.7,56.9,92.7,55.5z"/>
				<path class="st9" d="M98.4,51.5h1v5h2.4v0.9h-3.3V51.5z"/>
				<path class="st9" d="M102.9,52.4h-1.7v-0.9h4.3v0.9h-1.7v5h-1V52.4z"/>
				<path class="st9" d="M106.4,51.5h1v5.9h-1V51.5z"/>
				<path class="st9" d="M108.7,51.5h2.2c1.4,0,2,0.7,2,2c0,1.3-0.7,2.1-2,2.1h-1.2v1.8h-1V51.5z M110.9,54.7c0.7,0,1-0.4,1-1.2
					c0-0.8-0.3-1.2-1-1.2h-1.2v2.4H110.9z"/>
				<path class="st9" d="M113.8,51.5h1V54h2.5v-2.5h1v5.9h-1v-2.5h-2.5v2.5h-1V51.5z"/>
				<path class="st9" d="M120.9,55l-1.9-3.5h1.1l1.3,2.5l1.3-2.5h1.1l-1.8,3.5v2.4h-1V55z"/>
				<path class="st9" d="M124,57.3l0.1-0.8c0.5,0.1,1.3,0.1,1.8,0.1c0.7,0,1.1-0.3,1.1-0.9c0-0.5-0.3-0.7-1.2-0.9
					c-1.3-0.3-1.8-0.7-1.8-1.7c0-1.2,0.8-1.7,2-1.7c0.6,0,1.3,0.1,1.9,0.2l-0.1,0.8c-0.5-0.1-1.4-0.1-1.7-0.1
					c-0.7,0-1.1,0.3-1.1,0.8c0,0.5,0.3,0.7,1.3,0.9c1.2,0.3,1.7,0.7,1.7,1.7c0,1.3-0.8,1.9-2,1.9C125.3,57.5,124.7,57.4,124,57.3z"
					/>
				<path class="st9" d="M129,51.5h1v5.9h-1V51.5z"/>
				<path class="st9" d="M131.1,54.5c0-2.1,0.4-3.1,2.2-3.1c0.6,0,1.1,0.1,1.7,0.2l0,0.8c-0.5-0.1-1-0.1-1.5-0.1
					c-1.1,0-1.4,0.5-1.4,2.2c0,1.6,0.2,2.2,1.4,2.2c0.5,0,1-0.1,1.5-0.1l0,0.8c-0.6,0.1-1.1,0.2-1.7,0.2
					C131.5,57.5,131.1,56.5,131.1,54.5z"/>
				<path class="st9" d="M135.8,57.3l0.1-0.8c0.5,0.1,1.3,0.1,1.8,0.1c0.7,0,1.1-0.3,1.1-0.9c0-0.5-0.3-0.7-1.2-0.9
					c-1.3-0.3-1.8-0.7-1.8-1.7c0-1.2,0.8-1.7,2-1.7c0.6,0,1.3,0.1,1.9,0.2l-0.1,0.8c-0.5-0.1-1.4-0.1-1.7-0.1
					c-0.7,0-1.1,0.3-1.1,0.8c0,0.5,0.3,0.7,1.3,0.9c1.2,0.3,1.7,0.7,1.7,1.7c0,1.3-0.8,1.9-2,1.9C137.1,57.5,136.4,57.4,135.8,57.3z
					"/>
				<path class="st9" d="M142.7,51.5h3.7v0.8h-2.7v2h2.3v0.8h-2.3v2.2h-1V51.5z"/>
				<path class="st9" d="M147.3,51.5h2.3c1.3,0,2,0.6,2,1.9c0,0.3,0,0.7-0.2,1c-0.2,0.3-0.4,0.6-0.7,0.7l1,2.3h-1.1l-0.8-2.1h-1.4
					v2.1h-1V51.5z M149.5,54.5c0.7,0,1-0.5,1-1.1c0-0.1,0-0.3,0-0.4c0-0.1-0.1-0.3-0.2-0.4c-0.1-0.1-0.2-0.2-0.3-0.2
					c-0.1,0-0.3-0.1-0.4-0.1h-1.3v2.1L149.5,54.5z"/>
				<path class="st9" d="M153.5,51.5h1.9l1.5,5.9h-1l-0.3-1.3h-2.3l-0.3,1.3h-1L153.5,51.5z M155.4,55.3l-0.7-3h-0.4l-0.7,3H155.4z"
					/>
				<path class="st9" d="M157.8,51.5h1.7l1.3,4.6l1.3-4.6h1.7v5.9h-1v-4.8h-0.1l-1.4,4.6h-1l-1.4-4.6h-0.1v4.8h-1V51.5z"/>
				<path class="st9" d="M165.1,51.5h3.7v0.8h-2.8V54h2.3v0.8h-2.3v1.7h2.8v0.8h-3.7L165.1,51.5z"/>
				<path class="st9" d="M176.9,51.5l-1.2,5.9h-1.6l-1-4.7l-1,4.7h-1.6l-1.2-5.9h1l0.9,5.1h0.2l1.1-5.1h1.1l1.1,5.1h0.2l0.9-5.1
					H176.9z"/>
				<path class="st9" d="M177.6,54.5c0-2,0.6-3.1,2.4-3.1c1.9,0,2.4,1.1,2.4,3.1c0,2-0.6,3-2.4,3C178.1,57.5,177.6,56.5,177.6,54.5z
					 M181.4,54.5c0-1.5-0.3-2.2-1.4-2.2c-1.1,0-1.4,0.8-1.4,2.2c0,1.5,0.3,2.2,1.4,2.2C181.1,56.7,181.4,56,181.4,54.5L181.4,54.5z"
					/>
				<path class="st9" d="M183.5,51.5h2.3c1.3,0,2,0.6,2,1.9c0,0.3,0,0.7-0.2,1c-0.2,0.3-0.4,0.6-0.7,0.7l1,2.3h-1.1l-0.9-2.1h-1.4
					v2.1h-1V51.5z M185.8,54.5c0.7,0,1-0.5,1-1.1c0-0.1,0-0.3,0-0.4c0-0.1-0.1-0.3-0.2-0.4c-0.1-0.1-0.2-0.2-0.4-0.2
					c-0.1,0-0.3-0.1-0.4-0.1h-1.3v2.1L185.8,54.5z"/>
				<path class="st9" d="M188.9,51.5h1v2.7l0.9-0.1l1.2-2.6h1.1l-1.5,3l1.5,2.9H192l-1.2-2.5l-0.9,0.1v2.4h-1L188.9,51.5z"/>
			</g>
		</g>
	</g>
</g>
</svg>
