<svg width="436" height="178" viewBox="0 0 436 178" fill="none" xmlns="http://www.w3.org/2000/svg">
<g clip-path="url(#clip0_2_515)">
<path d="M163.508 89.1605L142.021 37.223L141.774 36.6245L141.148 36.3646L136.836 34.5761L90.0591 15.1778L89.3028 14.8646L88.6926 15.1182L53.6412 29.6534L37.6591 36.2819L36.8313 36.6253L15.3658 88.5111L15.0973 89.1605L36.585 141.1L36.8313 141.696L88.6839 163.2L89.3028 163.456L141.198 141.935L141.774 141.697L163.206 89.8934L163.508 89.1605ZM74.1429 125.545C68.381 117.283 61.2012 110.107 52.9365 104.351C54.7519 94.3226 54.7565 84.0493 52.95 74.0188C61.2899 68.2071 68.5242 60.9504 74.3114 52.5912C84.2765 54.3954 94.4835 54.4056 104.452 52.6214C110.232 60.9616 117.453 68.2025 125.775 74.0037C123.988 84.0343 124.01 94.3041 125.841 104.327C117.555 110.093 110.357 117.285 104.583 125.569C94.5205 123.731 84.2087 123.723 74.1429 125.545Z" fill="url(#paint0_linear_2_515)"/>
<path opacity="0.3" d="M163.131 88.4913L141.673 36.6253L89.9582 15.1779C92.3559 33.7655 100.834 51.0368 114.07 64.2984C127.306 77.5601 144.556 86.0665 163.131 88.4913Z" fill="#FFCC00"/>
<path opacity="0.6" d="M88.5917 15.1174L36.7304 36.6253L15.265 88.5111C33.879 86.1141 51.1736 77.6099 64.4418 64.3296C77.7099 51.0493 86.203 33.7424 88.5917 15.1174Z" fill="#FFC001"/>
<path opacity="0.6" d="M89.9669 163.138L141.673 141.695L163.105 89.8918C144.547 92.3203 127.312 100.82 114.084 114.068C100.856 127.316 92.3766 144.568 89.9669 163.138Z" fill="#FFC001"/>
<path opacity="0.6" d="M141.047 36.3653L89.1987 14.8646L37.559 36.2819C52.3761 47.7329 70.5664 53.9515 89.2889 53.9666C108.011 53.9817 126.212 47.7924 141.047 36.3653Z" fill="#FFD919"/>
<path opacity="0.6" d="M142.014 140.871L163.408 89.1606L141.921 37.2231C130.501 52.0871 124.317 70.3143 124.333 89.0628C124.35 107.811 130.567 126.027 142.014 140.871Z" fill="#FFD919"/>
<path opacity="0.6" d="M37.2968 141.93L89.1987 163.456L141.094 141.934C126.242 130.419 107.986 124.17 89.1962 124.169C70.4067 124.168 52.15 130.416 37.2968 141.93Z" fill="#FFAE00"/>
<path opacity="0.6" d="M15.2904 89.8711L36.7304 141.697L88.583 163.201C86.1829 144.593 77.689 127.304 64.4287 114.037C51.1684 100.77 33.8889 92.2721 15.2904 89.8711Z" fill="#FFAE00"/>
<path opacity="0.6" d="M36.4905 37.2056L14.9964 89.1605L36.4841 141.1C47.9793 126.226 54.2164 107.956 54.2175 89.1541C54.2187 70.352 47.9838 52.081 36.4905 37.2056Z" fill="#FFAE00"/>
</g>
<g clip-path="url(#clip1_2_515)">
<g clip-path="url(#clip2_2_515)">
<path d="M205.057 75.9954C205.057 54.7792 210.888 44.7029 228.911 44.7029C235.832 44.8593 242.723 45.6586 249.497 47.0907L249.144 54.957C242.934 54.0991 236.68 53.5976 230.413 53.4549C218.396 53.4549 215.305 58.9351 215.305 75.9954C215.305 92.4376 217.868 98.5367 230.148 98.5367C233.34 98.4731 236.525 98.2371 239.69 97.8297V83.1563H232.268V74.4043H249.497V105.166C244.637 105.962 235.007 107.198 229.264 107.198C210.005 107.2 205.057 96.0617 205.057 75.9954Z" fill="white"/>
<path d="M260.196 84.5704C260.196 68.3975 267.177 61.0562 279.368 61.0562C291.737 61.0562 297.922 67.5092 297.922 81.2994L297.303 88.1936H270.003C270.003 95.2657 272.654 98.7137 279.99 98.7137C285.114 98.7137 292.359 98.2717 296.334 97.9186L296.511 105.166C290.603 106.359 284.602 107.039 278.577 107.198C265.321 107.2 260.196 100.128 260.196 84.5704ZM288.378 80.7685C288.378 72.0182 285.816 69.0122 279.367 69.0122C272.829 69.0122 270.002 72.3713 269.913 80.7685H288.378Z" fill="white"/>
<path d="M306.105 45.6758H323.245L336.675 92.883L350.104 45.6758H367.332V106.227H357.437V56.637H356.111L341.799 103.753H331.55L317.327 56.637H316V106.227H306.105V45.6758Z" fill="white"/>
<path d="M390.58 45.6758H410.284L425.215 106.227H415.229L412.048 93.3216H388.901L385.631 106.227H375.736L390.58 45.6758ZM410.104 84.5704L402.682 53.9849H398.266L390.844 84.5704H410.104Z" fill="white"/>
</g>
<path d="M205.057 124.996H208.496L211.192 134.471L213.887 124.996H217.346V137.15H215.359V127.197H215.094L212.22 136.654H210.164L207.309 127.197H207.043V137.15H205.057V124.996Z" fill="white"/>
<path d="M220.019 133.229V124.996H222.005V133.264C222.005 134.896 222.874 135.606 224.471 135.606C226.101 135.606 226.971 134.896 226.971 133.264V124.996H228.956V133.229C228.956 136.157 227.396 137.346 224.471 137.346C221.579 137.346 220.019 136.157 220.019 133.229Z" fill="white"/>
<path d="M231.65 124.996H233.636V135.375H238.46V137.153H231.65V124.996Z" fill="white"/>
<path d="M240.868 126.771H237.41V124.993H246.276V126.771H242.854V137.15H240.868V126.771Z" fill="white"/>
<path d="M247.905 124.996H249.892V137.15H247.905V124.996Z" fill="white"/>
<path d="M252.675 124.996H257.126C259.893 124.996 261.258 126.345 261.258 129.094C261.258 131.827 259.893 133.371 257.126 133.371H254.661V137.15H252.675V124.996ZM257.109 131.65C258.563 131.65 259.237 130.762 259.237 129.094C259.237 127.426 258.559 126.717 257.109 126.717H254.661V131.65H257.109Z" fill="white"/>
<path d="M263.152 124.996H265.139V130.177H270.352V124.996H272.357V137.15H270.352V131.918H265.139V137.152H263.152V124.996Z" fill="white"/>
<path d="M277.62 132.147L273.807 124.996H276.023L278.595 130.194L281.166 124.996H283.383L279.606 132.147V137.15H277.62V132.147Z" fill="white"/>
<path d="M284.016 136.867L284.212 135.287C285.258 135.412 286.944 135.59 287.864 135.59C289.355 135.59 290.065 134.912 290.065 133.655C290.065 132.644 289.515 132.288 287.652 131.828C285.01 131.15 283.893 130.354 283.893 128.261C283.893 125.812 285.507 124.783 287.936 124.783C289.228 124.829 290.514 124.97 291.784 125.207L291.624 126.821C290.561 126.697 288.859 126.519 288.113 126.519C286.624 126.519 285.879 127.07 285.879 128.116C285.879 129.235 286.517 129.483 288.592 130.064C291.131 130.774 292.051 131.448 292.051 133.524C292.051 136.185 290.383 137.335 287.989 137.335C286.654 137.283 285.326 137.126 284.016 136.867Z" fill="white"/>
<path d="M294.178 124.996H296.164V137.15H294.178V124.996Z" fill="white"/>
<path d="M298.468 131.082C298.468 126.679 299.389 124.801 303.025 124.801C304.196 124.829 305.361 124.978 306.502 125.244L306.43 126.859C305.392 126.685 304.343 126.584 303.291 126.557C301.057 126.557 300.524 127.64 300.524 131.082C300.524 134.419 300.968 135.569 303.344 135.569C304.377 135.549 305.408 135.46 306.43 135.303L306.484 136.954C305.345 137.189 304.187 137.319 303.025 137.344C299.319 137.346 298.468 135.234 298.468 131.082Z" fill="white"/>
<path d="M308.059 136.867L308.253 135.287C309.3 135.412 310.985 135.59 311.907 135.59C313.396 135.59 314.107 134.912 314.107 133.655C314.107 132.644 313.557 132.288 311.695 131.828C309.053 131.15 307.935 130.354 307.935 128.261C307.935 125.812 309.549 124.783 311.979 124.783C313.27 124.829 314.556 124.97 315.827 125.207L315.668 126.821C314.604 126.697 312.901 126.519 312.156 126.519C310.667 126.519 309.921 127.07 309.921 128.116C309.921 129.235 310.56 129.483 312.635 130.064C315.174 130.774 316.093 131.448 316.093 133.524C316.093 136.185 314.425 137.335 312.031 137.335C310.697 137.283 309.369 137.126 308.059 136.867Z" fill="white"/>
<path d="M322.117 124.996H329.655V126.735H324.104V130.816H328.714V132.555H324.104V137.15H322.117V124.996Z" fill="white"/>
<path d="M331.494 124.996H336.104C338.782 124.996 340.219 126.186 340.219 128.865C340.284 129.581 340.131 130.3 339.779 130.927C339.427 131.554 338.894 132.059 338.25 132.377L340.236 137.15H338.055L336.317 132.821H333.48V137.15H331.494V124.996ZM336.14 131.117C337.611 131.117 338.178 130.142 338.178 128.882C338.221 128.595 338.197 128.303 338.109 128.028C338.021 127.752 337.871 127.5 337.671 127.291C337.471 127.082 337.226 126.922 336.954 126.823C336.683 126.723 336.392 126.687 336.104 126.717H333.481V131.12L336.14 131.117Z" fill="white"/>
<path d="M344.261 124.996H348.216L351.213 137.15H349.209L348.571 134.56H343.925L343.269 137.15H341.283L344.261 124.996ZM348.181 132.804L346.691 126.663H345.804L344.315 132.804H348.181Z" fill="white"/>
<path d="M352.947 124.996H356.387L359.083 134.471L361.778 124.996H365.237V137.15H363.251V127.197H362.984L360.107 136.654H358.05L355.195 127.197H354.936V137.15H352.947V124.996Z" fill="white"/>
<path d="M368.016 124.996H375.678V126.735H370V130.159H374.611V131.863H370V135.412H375.675V137.15H368.014L368.016 124.996Z" fill="white"/>
<path d="M392.166 124.996L389.773 137.15H386.582L384.507 127.391L382.431 137.15H379.225L376.848 124.996H378.924L380.662 135.43H381.034L383.339 125.031H385.657L387.962 135.43H388.334L390.072 124.996H392.166Z" fill="white"/>
<path d="M393.443 131.136C393.443 127.071 394.596 124.801 398.391 124.801C402.186 124.801 403.321 127.054 403.321 131.136C403.321 135.27 402.186 137.346 398.391 137.346C394.574 137.346 393.443 135.234 393.443 131.136ZM401.263 131.136C401.263 128.137 400.714 126.54 398.391 126.54C396.05 126.54 395.5 128.119 395.5 131.136C395.5 134.169 396.032 135.607 398.391 135.607C400.728 135.607 401.26 134.204 401.26 131.136H401.263Z" fill="white"/>
<path d="M405.601 124.996H410.212C412.89 124.996 414.327 126.186 414.327 128.865C414.392 129.581 414.238 130.3 413.887 130.927C413.535 131.554 413.002 132.059 412.357 132.377L414.344 137.15H412.163L410.425 132.821H407.588V137.15H405.601V124.996ZM410.248 131.117C411.719 131.117 412.286 130.142 412.286 128.882C412.329 128.595 412.305 128.303 412.217 128.028C412.129 127.752 411.979 127.5 411.779 127.291C411.579 127.082 411.334 126.922 411.062 126.823C410.79 126.723 410.5 126.687 410.212 126.717H407.588V131.12L410.248 131.117Z" fill="white"/>
<path d="M416.558 124.996H418.545V130.479L420.335 130.336L422.801 124.995H425.086L422.089 131.099L425.21 137.149H422.887L420.348 132.075L418.54 132.216V137.149H416.554L416.558 124.996Z" fill="white"/>
</g>
<defs>
<linearGradient id="paint0_linear_2_515" x1="44.52" y1="135.996" x2="147.182" y2="28.7415" gradientUnits="userSpaceOnUse">
<stop stop-color="#FF5500"/>
<stop offset="0.616" stop-color="#FFEB99"/>
</linearGradient>
<clipPath id="clip0_2_515">
<rect width="148.512" height="148.591" fill="white" transform="translate(14.9964 14.8646)"/>
</clipPath>
<clipPath id="clip1_2_515">
<rect width="220.155" height="92.6429" fill="white" transform="translate(205.057 44.7029)"/>
</clipPath>
<clipPath id="clip2_2_515">
<rect width="220.155" height="62.4969" fill="white" transform="translate(205.057 44.7029)"/>
</clipPath>
</defs>
</svg>
