<svg width="486" height="248" viewBox="0 0 486 248" fill="none" xmlns="http://www.w3.org/2000/svg">
<g clip-path="url(#clip0_65_13306)">
<g clip-path="url(#clip1_65_13306)">
<g clip-path="url(#clip2_65_13306)">
<path d="M241.118 109.899C241.118 88.1294 247.104 77.7903 265.608 77.7903C272.713 77.9507 279.788 78.771 286.741 80.2404L286.379 88.3119C280.004 87.4316 273.584 86.917 267.15 86.7706C254.812 86.7706 251.639 92.3936 251.639 109.899C251.639 126.77 254.27 133.028 266.878 133.028C270.154 132.963 273.424 132.721 276.674 132.303V117.247H269.054V108.266H286.741V139.83C281.752 140.647 271.866 141.915 265.97 141.915C246.198 141.917 241.118 130.489 241.118 109.899Z" fill="white"/>
<path d="M297.726 118.698C297.726 102.103 304.892 94.5701 317.408 94.5701C330.106 94.5701 336.456 101.191 336.456 115.341L335.821 122.415H307.794C307.794 129.672 310.515 133.21 318.046 133.21C323.307 133.21 330.745 132.756 334.826 132.394L335.007 139.83C328.942 141.055 322.782 141.753 316.596 141.915C302.987 141.917 297.726 134.661 297.726 118.698ZM326.658 114.797C326.658 105.818 324.028 102.734 317.407 102.734C310.695 102.734 307.792 106.18 307.701 114.797H326.658Z" fill="white"/>
<path d="M344.856 78.7886H362.453L376.24 127.227L390.027 78.7886H407.714V140.919H397.556V90.0356H396.194L381.501 138.38H370.98L356.377 90.0356H355.016V140.919H344.856V78.7886Z" fill="white"/>
<path d="M431.581 78.7886H451.81L467.139 140.919H456.887L453.621 127.677H429.857L426.501 140.919H416.342L431.581 78.7886ZM451.625 118.698L444.006 87.3144H439.473L431.853 118.698H451.625Z" fill="white"/>
</g>
<path d="M241.118 160.177H244.649L247.417 169.9L250.183 160.177H253.734V172.649H251.695V162.436H251.422L248.472 172.14H246.361L243.43 162.436H243.157V172.649H241.118V160.177Z" fill="white"/>
<path d="M256.479 168.625V160.177H258.518V168.662C258.518 170.336 259.409 171.065 261.049 171.065C262.723 171.065 263.615 170.336 263.615 168.662V160.177H265.654V168.625C265.654 171.63 264.052 172.849 261.049 172.849C258.08 172.849 256.479 171.63 256.479 168.625Z" fill="white"/>
<path d="M268.419 160.177H270.458V170.828H275.411V172.652H268.419V160.177Z" fill="white"/>
<path d="M277.882 161.999H274.332V160.174H283.435V161.999H279.921V172.649H277.882V161.999Z" fill="white"/>
<path d="M285.108 160.177H287.147V172.649H285.108V160.177Z" fill="white"/>
<path d="M290.004 160.177H294.574C297.415 160.177 298.816 161.562 298.816 164.383C298.816 167.187 297.415 168.771 294.574 168.771H292.044V172.649H290.004V160.177ZM294.556 167.005C296.049 167.005 296.74 166.094 296.74 164.383C296.74 162.671 296.045 161.944 294.556 161.944H292.044V167.005H294.556Z" fill="white"/>
<path d="M300.76 160.177H302.8V165.494H308.152V160.177H310.21V172.649H308.152V167.28H302.8V172.65H300.76V160.177Z" fill="white"/>
<path d="M315.613 167.515L311.699 160.177H313.974L316.614 165.511L319.254 160.177H321.53L317.652 167.515V172.649H315.613V167.515Z" fill="white"/>
<path d="M322.18 172.358L322.381 170.737C323.455 170.865 325.185 171.048 326.131 171.048C327.661 171.048 328.39 170.352 328.39 169.062C328.39 168.025 327.825 167.66 325.912 167.187C323.2 166.492 322.053 165.676 322.053 163.528C322.053 161.015 323.71 159.959 326.204 159.959C327.53 160.006 328.851 160.151 330.155 160.394L329.991 162.05C328.899 161.923 327.151 161.741 326.386 161.741C324.857 161.741 324.092 162.305 324.092 163.379C324.092 164.527 324.747 164.782 326.878 165.378C329.484 166.106 330.429 166.798 330.429 168.928C330.429 171.658 328.716 172.838 326.258 172.838C324.888 172.785 323.525 172.624 322.18 172.358Z" fill="white"/>
<path d="M332.612 160.177H334.651V172.649H332.612V160.177Z" fill="white"/>
<path d="M337.016 166.422C337.016 161.904 337.962 159.978 341.695 159.978C342.897 160.006 344.093 160.158 345.264 160.432L345.19 162.089C344.125 161.911 343.048 161.807 341.968 161.779C339.675 161.779 339.127 162.891 339.127 166.422C339.127 169.846 339.583 171.026 342.022 171.026C343.083 171.006 344.141 170.914 345.19 170.753L345.246 172.447C344.077 172.688 342.888 172.822 341.695 172.848C337.89 172.849 337.016 170.682 337.016 166.422Z" fill="white"/>
<path d="M346.863 172.358L347.062 170.737C348.137 170.865 349.867 171.048 350.813 171.048C352.342 171.048 353.072 170.352 353.072 169.062C353.072 168.025 352.507 167.66 350.596 167.187C347.883 166.492 346.736 165.676 346.736 163.528C346.736 161.015 348.393 159.959 350.887 159.959C352.213 160.006 353.533 160.151 354.838 160.394L354.674 162.05C353.582 161.923 351.834 161.741 351.069 161.741C349.54 161.741 348.775 162.305 348.775 163.379C348.775 164.527 349.431 164.782 351.56 165.378C354.167 166.106 355.111 166.798 355.111 168.928C355.111 171.658 353.399 172.838 350.941 172.838C349.571 172.785 348.207 172.624 346.863 172.358Z" fill="white"/>
<path d="M361.296 160.177H369.034V161.962H363.335V166.15H368.068V167.934H363.335V172.649H361.296V160.177Z" fill="white"/>
<path d="M370.922 160.177H375.655C378.404 160.177 379.879 161.398 379.879 164.147C379.946 164.882 379.789 165.62 379.428 166.263C379.067 166.906 378.519 167.425 377.857 167.751L379.897 172.649H377.658L375.874 168.206H372.961V172.649H370.922V160.177ZM375.691 166.458C377.202 166.458 377.784 165.457 377.784 164.165C377.828 163.871 377.803 163.571 377.713 163.288C377.623 163.005 377.469 162.747 377.264 162.533C377.058 162.318 376.806 162.154 376.527 162.052C376.249 161.95 375.95 161.913 375.655 161.944H372.962V166.462L375.691 166.458Z" fill="white"/>
<path d="M384.029 160.177H388.09L391.166 172.649H389.109L388.454 169.991H383.684L383.01 172.649H380.971L384.029 160.177ZM388.053 168.189L386.523 161.888H385.613L384.084 168.189H388.053Z" fill="white"/>
<path d="M392.946 160.177H396.478L399.245 169.9L402.013 160.177H405.564V172.649H403.524V162.436H403.251L400.297 172.14H398.185L395.254 162.436H394.988V172.649H392.946V160.177Z" fill="white"/>
<path d="M408.417 160.177H416.282V161.962H410.453V165.476H415.187V167.224H410.453V170.865H416.28V172.649H408.414L408.417 160.177Z" fill="white"/>
<path d="M433.21 160.177L430.753 172.649H427.476L425.346 162.635L423.215 172.649H419.924L417.483 160.177H419.614L421.399 170.883H421.781L424.148 160.214H426.527L428.894 170.883H429.276L431.06 160.177H433.21Z" fill="white"/>
<path d="M434.52 166.477C434.52 162.307 435.704 159.978 439.6 159.978C443.496 159.978 444.661 162.29 444.661 166.477C444.661 170.719 443.496 172.849 439.6 172.849C435.682 172.849 434.52 170.682 434.52 166.477ZM442.549 166.477C442.549 163.4 441.985 161.761 439.6 161.761C437.197 161.761 436.632 163.382 436.632 166.477C436.632 169.589 437.179 171.065 439.6 171.065C442 171.065 442.546 169.626 442.546 166.477H442.549Z" fill="white"/>
<path d="M447.003 160.177H451.736C454.485 160.177 455.96 161.398 455.96 164.147C456.027 164.882 455.87 165.62 455.509 166.263C455.148 166.906 454.6 167.425 453.939 167.751L455.978 172.649H453.739L451.955 168.206H449.042V172.649H447.003V160.177ZM451.773 166.458C453.283 166.458 453.866 165.457 453.866 164.165C453.909 163.871 453.885 163.571 453.794 163.288C453.704 163.005 453.55 162.747 453.345 162.533C453.139 162.318 452.887 162.154 452.609 162.052C452.33 161.95 452.031 161.913 451.736 161.944H449.043V166.462L451.773 166.458Z" fill="white"/>
<path d="M458.251 160.177H460.291V165.803L462.129 165.657L464.66 160.177H467.006L463.929 166.44L467.134 172.648H464.749L462.142 167.441L460.286 167.586V172.648H458.247L458.251 160.177Z" fill="white"/>
</g>
<g clip-path="url(#clip3_65_13306)">
<g opacity="0.7">
<path d="M46.4817 188.401L110.449 214.9L174.403 188.409C156.095 174.234 133.598 166.541 110.444 166.54C87.2896 166.539 64.791 174.228 46.4817 188.401Z" fill="white"/>
</g>
<g opacity="0.8">
<path d="M19.3624 124.323L45.7851 188.113L109.686 214.582C106.721 191.671 96.2496 170.387 79.9081 154.057C63.5665 137.728 42.2756 127.272 19.3624 124.323Z" fill="white"/>
</g>
<g opacity="0.7">
<path d="M45.4889 59.4993L19 123.449L45.4811 187.381C59.6469 169.076 67.3338 146.587 67.3352 123.441C67.3366 100.296 59.6525 77.8051 45.4889 59.4993Z" fill="white"/>
</g>
<g opacity="0.6">
<path d="M109.699 32.3118L45.7909 58.7841L19.3312 122.65C42.2643 119.707 63.5744 109.243 79.9263 92.8969C96.2781 76.5505 106.749 55.2439 109.699 32.3118Z" fill="white"/>
</g>
<g opacity="0.6">
<path d="M111.392 214.507L175.113 188.112L201.524 124.349C178.66 127.331 157.424 137.789 141.122 154.096C124.82 170.402 114.367 191.642 111.392 214.507Z" fill="white"/>
</g>
<g opacity="0.4">
<path d="M174.342 58.4646L110.449 32L46.8041 58.3623C65.0685 72.4576 87.4845 80.1115 110.555 80.13C133.626 80.1485 156.055 72.5306 174.342 58.4646Z" fill="white"/>
</g>
<g opacity="0.4">
<path d="M201.556 122.625L175.112 58.7841L111.381 32.3896C114.343 55.2748 124.795 76.5365 141.107 92.8592C157.418 109.182 178.673 119.648 201.556 122.625Z" fill="white"/>
</g>
<g opacity="0.4">
<path d="M175.533 187.095L201.897 123.447L175.418 59.5186C161.344 77.8101 153.723 100.247 153.743 123.326C153.764 146.406 161.426 168.829 175.533 187.095Z" fill="white"/>
</g>
</g>
</g>
<defs>
<clipPath id="clip0_65_13306">
<rect width="448" height="182.994" fill="white" transform="translate(19 32)"/>
</clipPath>
<clipPath id="clip1_65_13306">
<rect width="226.018" height="95.0591" fill="white" transform="translate(241.118 77.7903)"/>
</clipPath>
<clipPath id="clip2_65_13306">
<rect width="226.018" height="64.1269" fill="white" transform="translate(241.118 77.7903)"/>
</clipPath>
<clipPath id="clip3_65_13306">
<rect width="182.897" height="182.897" fill="white" transform="translate(19 32)"/>
</clipPath>
</defs>
</svg>
