<svg width="139" height="62" viewBox="0 0 139 62" fill="none" xmlns="http://www.w3.org/2000/svg">
<g clip-path="url(#clip0_258_12675)">
<g clip-path="url(#clip1_258_12675)">
<path d="M25.0256 13.414L16.0506 28.9173C15.6838 29.5507 15.4907 30.2693 15.4907 31.0008C15.4907 31.7323 15.6838 32.4509 16.0506 33.0844L20.5381 40.8359L37.619 11.3306H28.6442C27.9107 11.3305 27.1902 11.5231 26.555 11.8888C25.9198 12.2545 25.3923 12.7805 25.0256 13.414Z" fill="url(#paint0_radial_258_12675)"/>
<path d="M25.0258 48.5865C25.3926 49.22 25.92 49.746 26.5552 50.1118C27.1904 50.4776 27.911 50.6701 28.6444 50.6701H46.5943C47.3277 50.6701 48.0483 50.4776 48.6835 50.1118C49.3187 49.746 49.8461 49.22 50.2128 48.5865L54.7004 40.8349L37.6192 11.3306L20.5383 40.8359L25.0258 48.5865Z" fill="url(#paint1_radial_258_12675)"/>
<path d="M59.1878 33.0844C59.5545 32.4509 59.7476 31.7323 59.7476 31.0008C59.7476 30.2693 59.5545 29.5507 59.1878 28.9173L50.2128 13.414C49.846 12.7805 49.3185 12.2545 48.6833 11.8888C48.0481 11.5231 47.3276 11.3305 46.5942 11.3306H37.6191L54.7003 40.8359L59.1878 33.0844Z" fill="#16DB91"/>
</g>
<g clip-path="url(#clip2_258_12675)">
<g clip-path="url(#clip3_258_12675)">
<path d="M88.2643 20.3164L82.52 35.2989H85.5677L86.4114 32.8982H91.916L92.7585 35.2989H95.8062L90.0621 20.3164H88.2643ZM87.3673 30.177L89.1632 25.0662L90.9591 30.177H87.3673Z" fill="#F8F9FA"/>
<path d="M107.375 20.9448C106.365 20.5006 105.27 20.2859 104.167 20.3163H99.1973V35.2988H104.156C105.444 35.2988 106.533 35.0756 107.421 34.6291C108.265 34.2243 108.964 33.5693 109.42 32.7537C109.88 31.8848 110.11 30.9129 110.087 29.9306V25.6844C110.116 24.672 109.877 23.6697 109.395 22.7787C108.93 21.9722 108.223 21.3309 107.375 20.9448ZM107.153 30.012C107.153 30.8294 106.898 31.4615 106.388 31.9083C105.878 32.3551 105.159 32.5783 104.229 32.578H102.029V23.0365H104.229C105.159 23.0365 105.879 23.2598 106.389 23.7062C106.899 24.1527 107.153 24.7848 107.153 25.6025L107.153 30.012Z" fill="#F8F9FA"/>
<path d="M123.541 23.0366V20.3164H116.309H114.501H113.478V35.2979H114.501H116.309H123.541V32.5777H116.309V29.2186H122.404V26.4984H116.309V23.0366H123.541Z" fill="#F8F9FA"/>
<path d="M76.1946 23.9331V30.527C76.1946 31.2216 76.0465 31.7591 75.7504 32.1395C75.6017 32.3287 75.4096 32.4795 75.1903 32.5791C74.9709 32.6786 74.7307 32.724 74.49 32.7115C74.1115 32.7117 73.7382 32.6235 73.3999 32.4541C73.0025 32.2583 72.632 32.0124 72.2973 31.7225C72.1586 31.5951 72.0365 31.4509 71.9338 31.2932L70.4783 33.8074C70.8544 34.2753 71.3301 34.6542 71.8709 34.9166C72.639 35.2845 73.4829 35.468 74.335 35.4523C75.2341 35.4783 76.1254 35.28 76.9282 34.8753C77.636 34.4992 78.2085 33.9121 78.5657 33.196C78.9618 32.3668 79.1547 31.4556 79.1286 30.5375V20.3164H78.2884L76.1946 23.9331Z" fill="#F8F9FA"/>
</g>
<path d="M71.8991 40.6753H72.3598L73.7806 44.5184H73.1975L72.1289 41.4188L71.061 44.5193H70.4783L71.8991 40.6753ZM71.1327 43.1634H73.1594V43.676H71.1327V43.1634Z" fill="#F8F9FA"/>
<path d="M74.1462 40.6753H74.6362L76.5205 43.6464L76.4578 43.7149V40.6753H76.9933V44.5159H76.4973L74.618 41.5899L74.6807 41.5211V44.5159H74.1462V40.6753Z" fill="#F8F9FA"/>
<path d="M78.7795 40.6753H79.2407L80.6615 44.5184H80.0783L79.0102 41.418L77.9419 44.5193H77.3591L78.7795 40.6753ZM78.0133 43.1634H80.0401V43.676H78.0133V43.1634Z" fill="#F8F9FA"/>
<path d="M81.0271 40.6753H81.5678V44.5184H81.0271V40.6753ZM81.2975 44.0058H83.5025V44.5184H81.2975V44.0058Z" fill="#F8F9FA"/>
<path d="M85.08 42.9573V44.5201H84.5403V42.9573L83.3652 40.6753H83.9668L84.8095 42.4092L85.6521 40.6753H86.2537L85.08 42.9573Z" fill="#F8F9FA"/>
<path d="M87.0648 44.5059C86.9039 44.4725 86.7477 44.4192 86.5999 44.3474C86.4548 44.2762 86.3191 44.1875 86.1958 44.0831L86.5324 43.6707C86.6748 43.7952 86.8393 43.892 87.0174 43.9562C87.2021 44.0209 87.3968 44.0531 87.5926 44.0512C87.8195 44.0645 88.0453 44.0107 88.2418 43.8966C88.3151 43.85 88.3748 43.7851 88.4152 43.7084C88.4555 43.6316 88.475 43.5456 88.4716 43.459V43.4563C88.4778 43.3409 88.4406 43.2273 88.3671 43.1379C88.2935 43.0571 88.1998 42.9969 88.0955 42.9635C87.9557 42.9182 87.8126 42.8834 87.6676 42.8593C87.6621 42.8574 87.6563 42.8565 87.6505 42.8566C87.6445 42.8567 87.6386 42.8558 87.6329 42.8539L87.5932 42.846C87.3799 42.8127 87.1694 42.7628 86.9639 42.6968C86.7985 42.6385 86.6542 42.5326 86.5491 42.3925C86.4233 42.2083 86.3627 41.9874 86.377 41.7649V41.7622C86.3707 41.548 86.4263 41.3364 86.5372 41.1529C86.6498 40.9798 86.8132 40.8456 87.005 40.7684C87.3708 40.6297 87.7689 40.5994 88.1515 40.6811C88.2873 40.7121 88.4196 40.7569 88.5462 40.8147C88.6808 40.8766 88.809 40.9514 88.929 41.0381L88.6233 41.4669C88.4891 41.3662 88.3414 41.2848 88.1845 41.225C88.0443 41.1723 87.8957 41.145 87.7457 41.1443C87.5299 41.1315 87.3154 41.1865 87.1325 41.3017C87.0615 41.3517 87.0042 41.4187 86.966 41.4965C86.9278 41.5744 86.9098 41.6606 86.9137 41.7472V41.7497C86.9105 41.8067 86.9188 41.8637 86.9381 41.9174C86.9575 41.9711 86.9875 42.0204 87.0264 42.0623C87.105 42.1401 87.2015 42.1977 87.3074 42.2302C87.4611 42.2764 87.6173 42.3139 87.7752 42.3425C87.7818 42.3442 87.7884 42.3455 87.7951 42.3465C87.8011 42.3465 87.8078 42.3486 87.8149 42.3502C87.822 42.3519 87.8333 42.354 87.844 42.3557C87.8546 42.3573 87.8648 42.3592 87.8732 42.3609C88.0732 42.3987 88.269 42.4553 88.4582 42.5301C88.616 42.5966 88.7519 42.706 88.8504 42.8458C88.9645 43.023 89.0197 43.2316 89.0082 43.4419V43.4465C89.0143 43.6592 88.9561 43.8687 88.841 44.0479C88.7221 44.2206 88.5535 44.3533 88.3575 44.4286C88.1137 44.5216 87.854 44.566 87.593 44.5593C87.4156 44.56 87.2385 44.5421 87.0648 44.5059Z" fill="#F8F9FA"/>
<path d="M90.0999 44.5193H89.5593V40.6753H90.0999V44.5193Z" fill="#F8F9FA"/>
<path d="M91.4676 44.5059C91.3066 44.4724 91.1504 44.4192 91.0025 44.3474C90.8574 44.2762 90.7217 44.1875 90.5984 44.0831L90.935 43.6707C91.0775 43.7951 91.2419 43.8919 91.42 43.9562C91.6047 44.0209 91.7994 44.0531 91.9952 44.0512C92.2221 44.0645 92.4479 44.0107 92.6444 43.8966C92.7177 43.85 92.7774 43.7851 92.8178 43.7084C92.8581 43.6316 92.8775 43.5456 92.8742 43.459V43.4563C92.8804 43.3409 92.8432 43.2273 92.7697 43.1379C92.6964 43.0572 92.6032 42.9971 92.4994 42.9635C92.3594 42.9183 92.2163 42.8834 92.0712 42.8593C92.0657 42.8574 92.0599 42.8565 92.0541 42.8566C92.0482 42.8567 92.0424 42.8558 92.0368 42.8539L91.9971 42.846C91.7836 42.8127 91.5731 42.7628 91.3675 42.6968C91.2022 42.6385 91.0579 42.5326 90.953 42.3925C90.827 42.2083 90.7664 41.9874 90.7808 41.7649V41.7622C90.7744 41.5479 90.83 41.3364 90.9411 41.1529C91.0536 40.9798 91.2169 40.8456 91.4087 40.7684C91.7744 40.6297 92.1725 40.5994 92.5552 40.6811C92.691 40.7121 92.8233 40.7569 92.9501 40.8147C93.0846 40.8766 93.2128 40.9514 93.3328 41.0381L93.0253 41.4663C92.8911 41.3655 92.7434 41.2841 92.5865 41.2244C92.4462 41.1717 92.2976 41.1444 92.1477 41.1437C91.9318 41.1309 91.7174 41.186 91.5345 41.301C91.4635 41.351 91.4062 41.4181 91.368 41.4959C91.3297 41.5738 91.3118 41.66 91.3157 41.7466V41.7491C91.3125 41.806 91.3208 41.8631 91.3401 41.9168C91.3595 41.9705 91.3895 42.0197 91.4283 42.0616C91.507 42.1395 91.6035 42.1972 91.7096 42.2296C91.8632 42.2758 92.0193 42.3133 92.1772 42.3419C92.1841 42.3436 92.191 42.345 92.197 42.3459C92.2031 42.3467 92.2098 42.3479 92.2169 42.3496C92.224 42.3513 92.2355 42.3534 92.2461 42.355C92.2568 42.3567 92.267 42.3586 92.2752 42.3602C92.4751 42.398 92.671 42.4547 92.8602 42.5294C93.0183 42.5956 93.1545 42.7048 93.2532 42.8445C93.3673 43.0218 93.4225 43.2304 93.411 43.4407V43.4465C93.417 43.6592 93.3588 43.8687 93.2438 44.0479C93.1248 44.2205 92.9563 44.3532 92.7603 44.4286C92.5164 44.5216 92.2566 44.566 91.9956 44.5593C91.8182 44.56 91.6412 44.5421 91.4676 44.5059Z" fill="#F8F9FA"/>
<path d="M96.2518 40.6753H96.7131L98.1339 44.5184H97.551L96.4829 41.418L95.4145 44.5184H94.8318L96.2518 40.6753ZM95.4858 43.1625H97.5125V43.676H95.4858V43.1625Z" fill="#F8F9FA"/>
<path d="M98.4998 40.6753H98.9901L100.875 43.6464L100.811 43.7149V40.6753H101.346V44.5159H100.851L98.9718 41.5899L99.0355 41.5211V44.5159H98.4998V40.6753Z" fill="#F8F9FA"/>
<path d="M102.083 40.675H102.624V44.5182H102.083V40.675ZM102.449 44.0055H103.321C103.562 44.0207 103.799 43.9414 103.983 43.7847C104.063 43.7033 104.126 43.6057 104.167 43.4985C104.207 43.3912 104.224 43.2766 104.217 43.1622V42.0309C104.224 41.9166 104.207 41.802 104.166 41.6948C104.126 41.5875 104.063 41.49 103.983 41.4085C103.799 41.2519 103.562 41.1728 103.321 41.1878H102.449V40.675H103.306C103.579 40.6674 103.85 40.7226 104.099 40.8363C104.311 40.9371 104.486 41.1016 104.6 41.3068C104.721 41.5364 104.78 41.7931 104.773 42.0522V43.1412C104.78 43.4003 104.721 43.657 104.6 43.8866C104.486 44.0918 104.311 44.2564 104.099 44.3571C103.85 44.4706 103.578 44.5257 103.305 44.5182H102.451L102.449 44.0055Z" fill="#F8F9FA"/>
<path d="M106.669 40.675H107.209V44.5182H106.669V40.675ZM107.035 44.0055H107.907C108.148 44.0207 108.385 43.9414 108.568 43.7847C108.649 43.7033 108.711 43.6057 108.752 43.4985C108.792 43.3912 108.81 43.2766 108.802 43.1622V42.0309C108.809 41.9166 108.792 41.802 108.752 41.6947C108.711 41.5875 108.649 41.4899 108.568 41.4085C108.385 41.2519 108.147 41.1727 107.907 41.1878H107.035V40.675H107.891C108.164 40.6674 108.436 40.7226 108.684 40.8363C108.896 40.9371 109.072 41.1016 109.185 41.3068C109.306 41.5364 109.366 41.7931 109.358 42.0522V43.1412C109.365 43.4003 109.306 43.657 109.185 43.8866C109.072 44.0918 108.896 44.2563 108.684 44.3571C108.435 44.4705 108.164 44.5256 107.89 44.5182H107.036L107.035 44.0055Z" fill="#F8F9FA"/>
<path d="M110.014 40.6753H110.554V44.5184H110.013L110.014 40.6753ZM110.276 40.6753H112.489V41.1881H110.276V40.6753ZM110.276 42.3538H112.198V42.8666H110.276V42.3538ZM110.276 44.0058H112.489V44.5184H110.276V44.0058Z" fill="#F8F9FA"/>
<path d="M113.671 44.5059C113.51 44.4724 113.354 44.4192 113.206 44.3474C113.061 44.2762 112.926 44.1875 112.802 44.0831L113.139 43.6707C113.281 43.7952 113.446 43.892 113.624 43.9562C113.809 44.0209 114.003 44.0531 114.199 44.0512C114.426 44.0645 114.652 44.0107 114.848 43.8966C114.922 43.85 114.981 43.7851 115.022 43.7084C115.062 43.6316 115.081 43.5456 115.078 43.459V43.4563C115.084 43.3409 115.047 43.2273 114.974 43.1379C114.9 43.0572 114.807 42.9971 114.703 42.9635C114.563 42.9182 114.42 42.8834 114.275 42.8593C114.27 42.8574 114.264 42.8565 114.258 42.8566C114.252 42.8567 114.246 42.8557 114.24 42.8539L114.201 42.846C113.987 42.8127 113.777 42.7628 113.571 42.6968C113.406 42.6385 113.262 42.5326 113.157 42.3925C113.031 42.2083 112.97 41.9874 112.984 41.7649V41.7622C112.978 41.548 113.034 41.3364 113.145 41.1529C113.257 40.9798 113.421 40.8456 113.613 40.7684C113.978 40.6297 114.376 40.5994 114.759 40.6811C114.895 40.7121 115.027 40.7569 115.154 40.8147C115.288 40.8766 115.416 40.9514 115.536 41.0381L115.229 41.4663C115.095 41.3656 114.947 41.2841 114.79 41.2244C114.65 41.1716 114.501 41.1443 114.352 41.1437C114.136 41.1309 113.921 41.1859 113.738 41.301C113.668 41.3512 113.611 41.4183 113.573 41.4961C113.535 41.5739 113.517 41.6601 113.521 41.7466V41.7491C113.518 41.806 113.526 41.8631 113.545 41.9168C113.565 41.9705 113.595 42.0197 113.633 42.0616C113.712 42.1395 113.809 42.1971 113.914 42.2296C114.068 42.2758 114.224 42.3133 114.382 42.3419C114.389 42.3436 114.396 42.345 114.402 42.3459C114.408 42.3467 114.415 42.3479 114.422 42.3496C114.429 42.3513 114.441 42.3534 114.451 42.355C114.461 42.3567 114.472 42.3586 114.48 42.3602C114.68 42.398 114.876 42.4547 115.065 42.5294C115.223 42.5959 115.359 42.7053 115.458 42.8451C115.572 43.0224 115.627 43.231 115.615 43.4413V43.4465C115.621 43.6592 115.563 43.8687 115.448 44.0479C115.329 44.2206 115.161 44.3533 114.965 44.4286C114.721 44.5216 114.461 44.566 114.2 44.5593C114.022 44.56 113.845 44.5421 113.671 44.5059Z" fill="#F8F9FA"/>
<path d="M116.706 44.5193H116.166V40.6753H116.706V44.5193Z" fill="#F8F9FA"/>
<path d="M120.078 42.4496V43.121C120.084 43.3823 120.026 43.641 119.911 43.8757C119.806 44.0865 119.642 44.262 119.438 44.3804C119.222 44.5025 118.977 44.5641 118.729 44.5588C118.48 44.5644 118.233 44.5067 118.012 44.3911C117.81 44.2827 117.643 44.1179 117.534 43.9168C117.417 43.6981 117.359 43.4532 117.364 43.2056V42.0714C117.359 41.8106 117.416 41.5522 117.531 41.3181C117.636 41.1078 117.801 40.9327 118.004 40.8144C118.22 40.6924 118.465 40.6308 118.713 40.6361C118.925 40.634 119.135 40.6825 119.324 40.7773C119.51 40.8714 119.671 41.0088 119.792 41.1778C119.92 41.3567 120.007 41.5616 120.047 41.7778H119.46C119.432 41.6565 119.377 41.5432 119.299 41.4462C119.227 41.3566 119.135 41.2843 119.031 41.2347C118.932 41.187 118.823 41.1621 118.713 41.162C118.566 41.1591 118.421 41.1985 118.296 41.2756C118.174 41.353 118.078 41.4636 118.017 41.5942C117.949 41.7439 117.916 41.907 117.919 42.0714V43.2052C117.916 43.3563 117.951 43.5058 118.02 43.6401C118.085 43.7621 118.184 43.8626 118.305 43.9295C118.435 44.0001 118.582 44.0357 118.73 44.0327C118.877 44.0356 119.021 43.9985 119.148 43.9255C119.27 43.8522 119.367 43.7439 119.427 43.6148C119.495 43.463 119.529 43.2977 119.524 43.1312V42.9645H118.742V42.449L120.078 42.4496Z" fill="#F8F9FA"/>
<path d="M120.735 40.6753H121.225L123.11 43.6464L123.046 43.7149V40.6753H123.582V44.5159H123.086L121.207 41.5899L121.271 41.5211V44.5159H120.735V40.6753Z" fill="#F8F9FA"/>
<path d="M80.0999 46.7847H80.6404V50.6278H80.0999V46.7847ZM80.3621 46.7847H82.5761V47.2975H80.3612L80.3621 46.7847ZM80.3621 48.4632H82.2844V48.976H80.3612L80.3621 48.4632ZM80.3621 50.1152H82.5761V50.6278H80.3612L80.3621 50.1152Z" fill="#F8F9FA"/>
<path d="M83.127 46.7847H83.6173L85.5014 49.7558L85.4387 49.8243V46.7847H85.9736V50.6253H85.478L83.5987 47.6993L83.6614 47.6305V50.6253H83.127V46.7847Z" fill="#F8F9FA"/>
<path d="M86.313 46.7847H86.9014L87.8266 49.7978L88.7516 46.7847H89.3398L88.0838 50.6278H87.57L86.313 46.7847Z" fill="#F8F9FA"/>
<path d="M90.2195 50.6278H89.6787V46.7847H90.2195V50.6278Z" fill="#F8F9FA"/>
<path d="M90.9568 46.782H91.4982V50.6277H90.9568V46.782ZM91.1929 48.4895H92.5074C92.6035 48.4912 92.6982 48.4654 92.7802 48.4153C92.8611 48.3649 92.9252 48.2918 92.9645 48.2053C93.0074 48.1064 93.0295 47.9998 93.0295 47.8921C93.0295 47.7843 93.0074 47.6778 92.9645 47.5789C92.9253 47.4926 92.8618 47.4195 92.7817 47.3686C92.6993 47.3182 92.604 47.2926 92.5074 47.2946H91.1929V46.782H92.4861C92.6903 46.7776 92.8924 46.8248 93.0734 46.9193C93.2393 47.0085 93.3755 47.144 93.4654 47.3092C93.5571 47.4899 93.6048 47.6897 93.6045 47.8922C93.6043 48.0948 93.5562 48.2944 93.4641 48.4749C93.3736 48.64 93.2369 48.7753 93.0707 48.8644C92.8905 48.9588 92.6892 49.0062 92.4856 49.0019H91.1929V48.4895ZM92.2424 48.8833L92.7802 48.7616L93.7665 50.6277H93.1252L92.2424 48.8833Z" fill="#F8F9FA"/>
<path d="M94.8423 50.4919C94.6385 50.376 94.4731 50.2034 94.3663 49.9951C94.2507 49.7643 94.1934 49.5089 94.1991 49.251V48.162C94.1933 47.9041 94.2507 47.6487 94.3663 47.4179C94.4732 47.2096 94.6386 47.0369 94.8423 46.9209C95.0612 46.8055 95.305 46.7451 95.5527 46.7451C95.8003 46.7451 96.0442 46.8055 96.2631 46.9209C96.4669 47.0368 96.6323 47.2095 96.7391 47.4179C96.855 47.6486 96.9127 47.904 96.9073 48.162V49.251C96.9127 49.509 96.855 49.7644 96.7391 49.9951C96.6324 50.2035 96.4669 50.3761 96.2631 50.4919C96.0442 50.6075 95.8003 50.6679 95.5527 50.6679C95.305 50.6679 95.0611 50.6075 94.8423 50.4919ZM95.9726 50.0295C96.094 49.9577 96.1917 49.852 96.2535 49.7255C96.3223 49.5834 96.3565 49.4271 96.3531 49.2693V48.1441C96.3564 47.9864 96.3223 47.8302 96.2535 47.6881C96.1917 47.5616 96.0941 47.4558 95.9726 47.3841C95.8438 47.3138 95.6993 47.277 95.5525 47.277C95.4056 47.277 95.2611 47.3138 95.1323 47.3841C95.0109 47.456 94.9133 47.5616 94.8515 47.6881C94.7829 47.8302 94.7489 47.9864 94.7522 48.1441V49.2693C94.7488 49.4271 94.7828 49.5833 94.8515 49.7255C94.9134 49.8519 95.011 49.9576 95.1323 50.0295C95.2612 50.0996 95.4056 50.1363 95.5525 50.1363C95.6993 50.1363 95.8438 50.0996 95.9726 50.0295Z" fill="#F8F9FA"/>
<path d="M97.5645 46.7847H98.0548L99.9393 49.7558L99.8756 49.8243V46.7847H100.411V50.6253H99.9157L98.0365 47.6993L98.1002 47.6305V50.6253H97.5647L97.5645 46.7847Z" fill="#F8F9FA"/>
<path d="M103.918 46.7847H104.424V50.6278H103.897V47.7495L103.923 47.9187L102.974 50.094H102.598L101.649 47.9716L101.676 47.7495V50.6278H101.148V46.7847H101.655L102.786 49.3221L103.918 46.7847Z" fill="#F8F9FA"/>
<path d="M105.161 46.7847H105.701V50.6278H105.161V46.7847ZM105.423 46.7847H107.636V47.2975H105.423V46.7847ZM105.423 48.4632H107.345V48.976H105.423V48.4632ZM105.423 50.1152H107.636V50.6278H105.423V50.1152Z" fill="#F8F9FA"/>
<path d="M108.187 46.7847H108.678L110.562 49.7558L110.498 49.8243V46.7847H111.034V50.6253H110.539L108.66 47.6993L108.722 47.6305V50.6253H108.187L108.187 46.7847Z" fill="#F8F9FA"/>
<path d="M111.241 46.7847H113.96V47.2975H111.241V46.7847ZM112.33 47.0991H112.871V50.6278H112.33L112.33 47.0991Z" fill="#F8F9FA"/>
</g>
</g>
<defs>
<radialGradient id="paint0_radial_258_12675" cx="0" cy="0" r="1" gradientUnits="userSpaceOnUse" gradientTransform="translate(16.9155 50.498) scale(37.3408 37.24)">
<stop stop-color="#347BB6"/>
<stop offset="1" stop-color="#214E73"/>
</radialGradient>
<radialGradient id="paint1_radial_258_12675" cx="0" cy="0" r="1" gradientUnits="userSpaceOnUse" gradientTransform="translate(17.5757 50.8378) scale(37.3944 37.2934)">
<stop stop-color="#69F9F9"/>
<stop offset="1" stop-color="#369F9F"/>
</radialGradient>
<clipPath id="clip0_258_12675">
<rect width="108.059" height="39.3185" fill="white" transform="translate(15.491 11.3306)"/>
</clipPath>
<clipPath id="clip1_258_12675">
<rect width="44.2566" height="39.3405" fill="white" transform="translate(15.491 11.3306)"/>
</clipPath>
<clipPath id="clip2_258_12675">
<rect width="53.1034" height="30.3512" fill="white" transform="translate(70.4783 20.3164)"/>
</clipPath>
<clipPath id="clip3_258_12675">
<rect width="53.0624" height="15.1359" fill="white" transform="translate(70.4783 20.3164)"/>
</clipPath>
</defs>
</svg>
