<svg width="211" height="94" viewBox="0 0 211 94" fill="none" xmlns="http://www.w3.org/2000/svg">
<g clip-path="url(#clip0_981_355)">
<g clip-path="url(#clip1_981_355)">
<path d="M109.106 61.855H109.81L111.983 67.7772H111.091L109.457 62.9994L107.825 67.7766H106.934L109.106 61.855ZM107.934 65.6894H111.033V66.4796H107.934V65.6894Z" fill="white"/>
<path d="M112.542 61.855H113.291L116.172 66.4334L116.076 66.539V61.855H116.895V67.7734H116.137L113.263 63.2643L113.359 63.1584V67.7734H112.542V61.855Z" fill="white"/>
<path d="M119.626 61.855H120.331L122.503 67.7772H121.612L119.979 62.9994L118.345 67.7766H117.454L119.626 61.855ZM118.454 65.6894H121.553V66.4796H118.454V65.6894Z" fill="white"/>
<path d="M123.062 61.855H123.889V67.7766H123.062V61.855ZM123.476 66.987H126.847V67.7766H123.476V66.987Z" fill="white"/>
<path d="M129.259 65.3699V67.7782H128.434V65.3699L126.637 61.855H127.557L128.846 64.5269L130.134 61.855H131.054L129.259 65.3699Z" fill="white"/>
<path d="M132.294 67.7571C132.048 67.7053 131.809 67.6233 131.583 67.5127C131.362 67.403 131.154 67.2661 130.966 67.1052L131.48 66.4701C131.698 66.6617 131.95 66.8109 132.222 66.91C132.504 67.0097 132.802 67.0593 133.101 67.0564C133.448 67.0768 133.793 66.9939 134.094 66.8181C134.206 66.7463 134.297 66.6463 134.359 66.528C134.421 66.4097 134.45 66.2773 134.445 66.1438V66.139C134.455 65.9611 134.398 65.7861 134.286 65.6483C134.173 65.5237 134.03 65.4309 133.87 65.3792C133.656 65.3095 133.438 65.2559 133.216 65.2187C133.208 65.2158 133.199 65.2144 133.19 65.2145C133.181 65.2145 133.172 65.2131 133.163 65.2103L133.102 65.1981C132.776 65.1467 132.454 65.0699 132.14 64.9682C131.887 64.8783 131.666 64.7152 131.506 64.4994C131.313 64.2155 131.221 63.8751 131.243 63.5322V63.528C131.233 63.1979 131.318 62.872 131.488 62.5891C131.66 62.322 131.911 62.1151 132.205 61.9967C132.765 61.7829 133.373 61.7362 133.958 61.8621C134.166 61.9096 134.368 61.9786 134.562 62.068C134.768 62.1639 134.964 62.2798 135.147 62.4141L134.677 63.074C134.472 62.9188 134.246 62.7933 134.006 62.7012C133.792 62.6198 133.565 62.5777 133.335 62.5769C133.005 62.5571 132.677 62.6419 132.398 62.8194C132.289 62.8964 132.202 62.9997 132.143 63.1196C132.085 63.2396 132.057 63.3724 132.063 63.5059V63.5097C132.058 63.5975 132.071 63.6854 132.101 63.7682C132.13 63.8509 132.176 63.9269 132.235 63.9914C132.356 64.1108 132.503 64.199 132.665 64.2483C132.9 64.3197 133.139 64.3776 133.38 64.4217C133.39 64.4242 133.401 64.4261 133.411 64.4275C133.42 64.4275 133.43 64.431 133.441 64.4336L133.486 64.4419C133.502 64.4445 133.518 64.4474 133.53 64.45C133.836 64.5082 134.136 64.5955 134.425 64.7107C134.666 64.8133 134.874 64.9818 135.024 65.1972C135.199 65.4703 135.283 65.7918 135.266 66.1159V66.1239C135.275 66.4516 135.186 66.7745 135.01 67.0506C134.828 67.3167 134.571 67.5212 134.271 67.6373C133.898 67.7805 133.501 67.8489 133.102 67.8386C132.831 67.8399 132.56 67.8126 132.294 67.7571Z" fill="white"/>
<path d="M136.935 67.7766H136.108V61.855H136.935V67.7766Z" fill="white"/>
<path d="M139.026 67.7571C138.78 67.7053 138.541 67.6232 138.315 67.5127C138.093 67.403 137.885 67.2661 137.697 67.1052L138.212 66.4701C138.43 66.6616 138.681 66.8108 138.953 66.91C139.236 67.0097 139.533 67.0592 139.833 67.0564C140.18 67.0769 140.525 66.994 140.825 66.8181C140.937 66.7463 141.029 66.6463 141.09 66.528C141.152 66.4097 141.182 66.2773 141.177 66.1438V66.139C141.186 65.9611 141.129 65.7861 141.017 65.6483C140.905 65.524 140.762 65.4312 140.604 65.3792C140.39 65.3095 140.171 65.2559 139.949 65.2187C139.941 65.2157 139.932 65.2143 139.923 65.2145C139.914 65.2145 139.905 65.2131 139.896 65.2103L139.836 65.1981C139.509 65.1467 139.187 65.0698 138.873 64.9682C138.62 64.8783 138.4 64.7152 138.239 64.4994C138.047 64.2155 137.954 63.8751 137.976 63.5322V63.528C137.966 63.1979 138.051 62.8719 138.221 62.5891C138.393 62.3224 138.643 62.1156 138.936 61.9967C139.495 61.7829 140.104 61.7362 140.689 61.8621C140.897 61.9097 141.099 61.9786 141.293 62.068C141.498 62.1632 141.695 62.2785 141.878 62.4122L141.408 63.0721C141.203 62.9168 140.977 62.7913 140.737 62.6993C140.522 62.6179 140.295 62.5758 140.066 62.575C139.736 62.5553 139.408 62.6401 139.128 62.8174C139.02 62.8945 138.932 62.9977 138.874 63.1177C138.815 63.2377 138.788 63.3705 138.794 63.504V63.5078C138.789 63.5956 138.802 63.6835 138.831 63.7663C138.861 63.849 138.907 63.9249 138.966 63.9895C139.086 64.1089 139.234 64.1971 139.396 64.2464C139.631 64.3178 139.87 64.3757 140.111 64.4198C140.122 64.4223 140.132 64.4243 140.141 64.4256C140.151 64.4268 140.161 64.4291 140.172 64.4317L140.216 64.44C140.233 64.4426 140.248 64.4455 140.261 64.448C140.567 64.5063 140.866 64.5936 141.155 64.7088C141.397 64.8114 141.606 64.9806 141.756 65.1969C141.931 65.47 142.015 65.7915 141.997 66.1156V66.1236C142.007 66.4513 141.918 66.7742 141.742 67.0503C141.56 67.3162 141.302 67.5207 141.003 67.637C140.63 67.7802 140.232 67.8486 139.833 67.8383C139.562 67.8397 139.292 67.8125 139.026 67.7571Z" fill="white"/>
<path d="M146.341 61.855H147.046L149.219 67.7772H148.327L146.694 62.9994L145.06 67.7766H144.169L146.341 61.855ZM145.17 65.6894H148.269V66.4796H145.17V65.6894Z" fill="white"/>
<path d="M149.778 61.855H150.528L153.409 66.4334L153.312 66.539V61.855H154.131V67.7734H153.373L150.5 63.2643L150.597 63.1584V67.7734H149.778V61.855Z" fill="white"/>
<path d="M155.257 61.855H156.084V67.7766H155.257V61.855ZM155.816 66.987H157.15C157.518 67.0102 157.881 66.8882 158.161 66.6469C158.284 66.5217 158.38 66.3716 158.442 66.2066C158.504 66.0416 158.53 65.8653 158.519 65.6894V63.9461C158.53 63.7698 158.504 63.5933 158.442 63.428C158.38 63.2627 158.285 63.1124 158.161 62.9869C157.881 62.7455 157.518 62.6234 157.15 62.6465H155.816V61.8566H157.126C157.544 61.845 157.959 61.9299 158.338 62.1048C158.663 62.2604 158.931 62.514 159.105 62.8302C159.29 63.1838 159.381 63.5793 159.369 63.9785V65.6569C159.381 66.0561 159.29 66.4516 159.105 66.8052C158.931 67.1216 158.663 67.3753 158.338 67.5306C157.958 67.7055 157.543 67.7904 157.124 67.7788H155.819L155.816 66.987Z" fill="white"/>
<path d="M162.268 61.855H163.095V67.7766H162.268V61.855ZM162.827 66.987H164.161C164.529 67.0102 164.892 66.8882 165.172 66.6469C165.295 66.5217 165.391 66.3717 165.453 66.2066C165.515 66.0416 165.541 65.8654 165.531 65.6894V63.9461C165.541 63.7698 165.515 63.5933 165.453 63.428C165.391 63.2627 165.295 63.1124 165.172 62.9869C164.892 62.7455 164.529 62.6234 164.161 62.6465H162.827V61.8566H164.137C164.555 61.845 164.97 61.9299 165.349 62.1048C165.674 62.2604 165.942 62.514 166.116 62.8302C166.301 63.1839 166.391 63.5793 166.38 63.9785V65.6569C166.391 66.0561 166.301 66.4515 166.116 66.8052C165.942 67.1216 165.674 67.3752 165.349 67.5306C164.969 67.7054 164.554 67.7903 164.135 67.7788H162.83L162.827 66.987Z" fill="white"/>
<path d="M167.383 61.855H168.208V67.7766H167.382L167.383 61.855ZM167.784 61.855H171.168V62.6449H167.784V61.855ZM167.784 64.4415H170.723V65.2315H167.784V64.4415ZM167.784 66.987H171.168V67.7766H167.784V66.987Z" fill="white"/>
<path d="M172.975 67.7571C172.729 67.7053 172.49 67.6232 172.264 67.5127C172.042 67.403 171.835 67.2661 171.646 67.1052L172.161 66.4701C172.379 66.6617 172.63 66.8109 172.902 66.91C173.185 67.0097 173.483 67.0593 173.782 67.0564C174.129 67.0768 174.474 66.9939 174.775 66.8181C174.887 66.7463 174.978 66.6463 175.04 66.528C175.101 66.4097 175.131 66.2773 175.126 66.1438V66.139C175.135 65.9611 175.078 65.7861 174.966 65.6483C174.854 65.5239 174.711 65.4312 174.552 65.3792C174.339 65.3095 174.12 65.2559 173.898 65.2187C173.89 65.2158 173.881 65.2144 173.872 65.2145C173.863 65.2144 173.854 65.213 173.845 65.2103L173.784 65.1981C173.458 65.1467 173.137 65.0699 172.822 64.9682C172.57 64.8783 172.349 64.7152 172.188 64.4994C171.996 64.2156 171.903 63.8751 171.925 63.5322V63.528C171.915 63.1979 172 62.872 172.17 62.5891C172.342 62.3224 172.592 62.1156 172.885 61.9967C173.444 61.7829 174.053 61.7362 174.638 61.8621C174.846 61.9096 175.048 61.9786 175.242 62.068C175.448 62.1637 175.644 62.2797 175.828 62.4141L175.358 63.074C175.153 62.9188 174.927 62.7933 174.687 62.7012C174.473 62.6198 174.245 62.5777 174.016 62.5769C173.686 62.5571 173.358 62.6419 173.078 62.8194C172.97 62.8965 172.883 62.9998 172.824 63.1198C172.766 63.2398 172.739 63.3725 172.745 63.5059V63.5097C172.74 63.5975 172.753 63.6854 172.782 63.7682C172.812 63.8509 172.858 63.9269 172.917 63.9914C173.037 64.1108 173.185 64.199 173.347 64.2483C173.582 64.3197 173.821 64.3776 174.062 64.4217C174.073 64.4243 174.083 64.4262 174.092 64.4275C174.102 64.4288 174.112 64.431 174.123 64.4336L174.167 64.4419C174.183 64.4445 174.199 64.4474 174.212 64.45C174.518 64.5082 174.817 64.5955 175.106 64.7107C175.348 64.8132 175.556 64.9817 175.706 65.1972C175.881 65.4703 175.965 65.7918 175.947 66.1159V66.1239C175.957 66.4516 175.868 66.7745 175.692 67.0506C175.51 67.3167 175.252 67.5212 174.952 67.6373C174.58 67.7805 174.183 67.8489 173.784 67.8386C173.512 67.84 173.241 67.8127 172.975 67.7571Z" fill="white"/>
<path d="M177.615 67.7766H176.789V61.855H177.615V67.7766Z" fill="white"/>
<path d="M182.771 64.5878V65.6224C182.779 66.025 182.692 66.4238 182.515 66.7855C182.355 67.1102 182.104 67.3807 181.792 67.5632C181.462 67.7512 181.088 67.8462 180.708 67.8381C180.327 67.847 179.95 67.7586 179.612 67.5812C179.303 67.414 179.048 67.1599 178.88 66.85C178.702 66.5131 178.613 66.1358 178.621 65.7544V64.0072C178.613 63.6052 178.701 63.207 178.877 62.8461C179.038 62.5221 179.289 62.2525 179.6 62.0703C179.93 61.8822 180.305 61.7873 180.685 61.7954C181.009 61.7923 181.329 61.8669 181.618 62.0131C181.903 62.158 182.148 62.3697 182.334 62.6303C182.529 62.9059 182.662 63.2216 182.723 63.5548H181.827C181.784 63.3679 181.699 63.1933 181.58 63.0439C181.469 62.9057 181.329 62.7943 181.17 62.718C181.019 62.6443 180.853 62.6058 180.685 62.6056C180.459 62.601 180.237 62.6619 180.046 62.7809C179.86 62.9001 179.712 63.0704 179.62 63.2715C179.516 63.5024 179.465 63.7538 179.47 64.0072V65.7534C179.465 65.9862 179.518 66.2166 179.624 66.4236C179.724 66.6114 179.875 66.7664 180.06 66.8696C180.259 66.9783 180.483 67.033 180.71 67.0282C180.934 67.0328 181.155 66.9759 181.349 66.8635C181.536 66.7504 181.684 66.5836 181.775 66.3847C181.88 66.1508 181.931 65.896 181.924 65.6394V65.3825H180.729V64.5878H182.771Z" fill="white"/>
<path d="M183.776 61.855H184.525L187.406 66.4334L187.309 66.539V61.855H188.128V67.7734H187.37L184.497 63.2643L184.594 63.1584V67.7734H183.776V61.855Z" fill="white"/>
<path d="M121.645 71.2681H122.471V77.1903H121.645V71.2681ZM122.046 71.2681H125.431V72.0583H122.045L122.046 71.2681ZM122.046 73.8546H124.985V74.6445H122.045L122.046 73.8546ZM122.046 76.4004H125.431V77.1903H122.045L122.046 76.4004Z" fill="white"/>
<path d="M126.273 71.2681H127.023L129.904 75.8465L129.808 75.9521V71.2681H130.626V77.1865H129.868L126.995 72.6774L127.09 72.5715V77.1865H126.273V71.2681Z" fill="white"/>
<path d="M131.145 71.2681H132.044L133.459 75.9113L134.873 71.2681H135.772L133.852 77.1903H133.066L131.145 71.2681Z" fill="white"/>
<path d="M137.118 77.1903H136.291V71.2681H137.118V77.1903Z" fill="white"/>
<path d="M138.245 71.2646H139.073V77.1907H138.245V71.2646ZM138.606 73.8958H140.616C140.763 73.8984 140.907 73.8587 141.033 73.7815C141.156 73.7036 141.254 73.5911 141.315 73.4578C141.38 73.3054 141.414 73.1412 141.414 72.9752C141.414 72.8092 141.38 72.6449 141.315 72.4925C141.255 72.3596 141.158 72.247 141.035 72.1685C140.909 72.0909 140.763 72.0513 140.616 72.0545H138.606V71.2646H140.583C140.895 71.2577 141.204 71.3305 141.481 71.4762C141.735 71.6135 141.943 71.8223 142.08 72.077C142.221 72.3555 142.294 72.6633 142.293 72.9754C142.293 73.2875 142.219 73.5951 142.079 73.8733C141.94 74.128 141.731 74.3367 141.477 74.4741C141.201 74.6196 140.894 74.6924 140.582 74.6857H138.606V73.8958ZM140.211 74.5024L141.033 74.3152L142.541 77.1907H141.56L140.211 74.5024Z" fill="white"/>
<path d="M144.186 76.9808C143.874 76.8021 143.621 76.5361 143.458 76.2152C143.281 75.8596 143.193 75.466 143.202 75.0685V73.3901C143.193 72.9928 143.281 72.5993 143.458 72.2437C143.621 71.9228 143.874 71.6567 144.186 71.4779C144.52 71.3 144.893 71.207 145.272 71.207C145.65 71.207 146.023 71.3 146.358 71.4779C146.67 71.6565 146.923 71.9227 147.086 72.2437C147.263 72.5991 147.351 72.9926 147.343 73.3901V75.0685C147.351 75.4661 147.263 75.8597 147.086 76.2152C146.923 76.5362 146.67 76.8023 146.358 76.9808C146.023 77.1586 145.65 77.2516 145.272 77.2516C144.893 77.2516 144.52 77.1586 144.186 76.9808ZM145.914 76.2679C146.1 76.1575 146.249 75.9947 146.343 75.7997C146.449 75.5808 146.501 75.3399 146.496 75.0968V73.3628C146.501 73.1198 146.449 72.879 146.343 72.6602C146.249 72.4652 146.1 72.3022 145.914 72.1917C145.717 72.0834 145.496 72.0267 145.271 72.0267C145.047 72.0267 144.826 72.0834 144.629 72.1917C144.443 72.3024 144.294 72.4653 144.2 72.6602C144.095 72.8791 144.043 73.1199 144.048 73.3628V75.0968C144.043 75.3398 144.095 75.5807 144.2 75.7997C144.294 75.9946 144.444 76.1573 144.629 76.2679C144.826 76.3762 145.047 76.4329 145.271 76.4329C145.496 76.4329 145.717 76.3762 145.914 76.2679Z" fill="white"/>
<path d="M148.348 71.2681H149.098L151.979 75.8465L151.882 75.9521V71.2681H152.701V77.1865H151.943L149.07 72.6774L149.167 72.5715V77.1865H148.348L148.348 71.2681Z" fill="white"/>
<path d="M158.062 71.2681H158.836V77.1903H158.03V72.7535L158.07 73.0143L156.619 76.3663H156.044L154.593 73.0958L154.634 72.7535V77.189H153.827V71.2681H154.602L156.332 75.1782L158.062 71.2681Z" fill="white"/>
<path d="M159.963 71.2681H160.789V77.1903H159.963V71.2681ZM160.364 71.2681H163.748V72.0583H160.364V71.2681ZM160.364 73.8546H163.303V74.6445H160.364V73.8546ZM160.364 76.4004H163.748V77.1903H160.364V76.4004Z" fill="white"/>
<path d="M164.59 71.2681H165.34L168.222 75.8465L168.124 75.9521V71.2681H168.943V77.1865H168.186L165.312 72.6774L165.408 72.5715V77.1865H164.589L164.59 71.2681Z" fill="white"/>
<path d="M169.259 71.2681H173.416V72.0583H169.259V71.2681ZM170.925 71.7526H171.751V77.1903H170.924L170.925 71.7526Z" fill="white"/>
<g clip-path="url(#clip2_981_355)">
<path d="M134.191 30.3672L125.408 53.455H130.068L131.358 49.7555H139.774L141.062 53.455H145.722L136.939 30.3672H134.191ZM132.819 45.5621L135.565 37.6866L138.311 45.5621H132.819Z" fill="white"/>
<path d="M163.41 31.3356C161.867 30.6511 160.192 30.3203 158.505 30.3672H150.907V53.455H158.489C160.459 53.455 162.123 53.111 163.481 52.423C164.772 51.7991 165.839 50.7898 166.538 49.533C167.241 48.1941 167.592 46.6963 167.557 45.1826V38.6393C167.602 37.0792 167.237 35.5347 166.499 34.1617C165.788 32.9188 164.708 31.9306 163.41 31.3356ZM163.071 45.3081C163.071 46.5677 162.681 47.5418 161.902 48.2302C161.122 48.9187 160.022 49.2627 158.6 49.2623H155.236V34.5589H158.601C160.023 34.5589 161.123 34.903 161.903 35.591C162.682 36.279 163.072 37.2531 163.072 38.5131L163.071 45.3081Z" fill="white"/>
<path d="M188.128 34.559V30.3672H177.07H174.306H172.742V53.4534H174.306H177.07H188.128V49.2616H177.07V44.0853H186.39V39.8936H177.07V34.559H188.128Z" fill="white"/>
<path d="M115.736 35.9404V46.1016C115.736 47.172 115.51 48.0002 115.057 48.5864C114.83 48.878 114.536 49.1103 114.201 49.2637C113.865 49.4172 113.498 49.4872 113.13 49.4678C112.551 49.4681 111.98 49.3323 111.463 49.0712C110.856 48.7694 110.289 48.3905 109.777 47.9438C109.565 47.7475 109.379 47.5253 109.222 47.2823L106.996 51.1565C107.571 51.8776 108.299 52.4614 109.125 52.8658C110.3 53.4328 111.59 53.7156 112.893 53.6914C114.268 53.7315 115.631 53.4259 116.858 52.8022C117.94 52.2227 118.816 51.318 119.362 50.2144C119.967 48.9366 120.262 47.5325 120.222 46.1177V30.3672H118.938L115.736 35.9404Z" fill="white"/>
</g>
</g>
<g clip-path="url(#clip3_981_355)">
<path opacity="0.4" d="M37.445 19.9763L23.7695 43.7844C23.2107 44.7573 22.9165 45.8608 22.9165 46.9841C22.9165 48.1074 23.2107 49.2109 23.7695 50.1838L30.6073 62.0876L56.6339 16.7769H42.9588C41.8412 16.7768 40.7433 17.0725 39.7754 17.6341C38.8076 18.1957 38.0038 19.0035 37.445 19.9763Z" fill="white"/>
<path d="M37.4452 73.9901C38.0039 74.9629 38.8076 75.7708 39.7755 76.3325C40.7434 76.8942 41.8413 77.1899 42.9589 77.1899H70.3095C71.4271 77.1899 72.525 76.8942 73.4929 76.3325C74.4608 75.7708 75.2645 74.9629 75.8232 73.9901L82.661 62.0862L56.634 16.7769L30.6074 62.0876L37.4452 73.9901Z" fill="url(#paint0_radial_981_355)"/>
<path d="M89.4987 50.1838C90.0575 49.2109 90.3517 48.1074 90.3517 46.9841C90.3517 45.8608 90.0575 44.7573 89.4987 43.7844L75.8233 19.9763C75.2644 19.0035 74.4607 18.1957 73.4928 17.6341C72.525 17.0725 71.4271 16.7768 70.3095 16.7769H56.634L82.661 62.0876L89.4987 50.1838Z" fill="white"/>
</g>
</g>
<defs>
<radialGradient id="paint0_radial_981_355" cx="0" cy="0" r="1" gradientUnits="userSpaceOnUse" gradientTransform="translate(26.0931 77.4473) scale(56.9787 57.2708)">
<stop stop-color="white" stop-opacity="0.5"/>
<stop offset="1" stop-color="white" stop-opacity="0.8"/>
</radialGradient>
<clipPath id="clip0_981_355">
<rect width="165.163" height="60.4467" fill="white" transform="translate(22.9167 16.7769)"/>
</clipPath>
<clipPath id="clip1_981_355">
<rect width="81.1943" height="46.8844" fill="white" transform="translate(106.934 30.3672)"/>
</clipPath>
<clipPath id="clip2_981_355">
<rect width="81.1317" height="23.3242" fill="white" transform="translate(106.996 30.3672)"/>
</clipPath>
<clipPath id="clip3_981_355">
<rect width="67.4349" height="60.4145" fill="white" transform="translate(22.9167 16.7769)"/>
</clipPath>
</defs>
</svg>
