<svg width="42" height="74" viewBox="0 0 42 74" fill="none" xmlns="http://www.w3.org/2000/svg">
<g clip-path="url(#clip0_218_21552)">
<path opacity="0.6" fill-rule="evenodd" clip-rule="evenodd" d="M32.4771 18.294L32.7771 18.894L33.6771 18.794L33.9771 19.394L33.4771 20.094L34.077 21.194L34.9771 21.094L35.2771 21.694L34.7771 22.394L35.077 22.994L35.8771 22.494L36.077 21.594L37.077 21.694L35.7771 18.994L34.9771 19.394L34.6771 18.794L35.3771 18.394L34.8771 17.594L35.4771 17.294L35.9771 18.094L36.6771 17.694L36.9771 18.294L36.2771 18.694L37.6771 21.194C37.8276 20.8679 37.9611 20.5341 38.077 20.194L38.9771 20.394L39.7771 19.894L39.4771 19.294L38.577 19.394L38.2771 18.994L38.7771 18.294L38.1771 17.194L37.2771 17.294L36.9771 16.694L37.4771 15.994L37.1771 15.394L32.4771 18.294Z" fill="white" stroke="#96917A" stroke-width="0.191" stroke-miterlimit="2.613"/>
<path opacity="0.6" fill-rule="evenodd" clip-rule="evenodd" d="M32.4769 18.2939L7.47694 32.6939C7.86144 32.8468 8.18 33.13 8.37694 33.4939C8.54048 33.7681 8.64704 34.0726 8.69025 34.3889C8.73346 34.7053 8.71242 35.0271 8.62841 35.3352C8.54439 35.6433 8.39912 35.9312 8.20127 36.1818C8.00343 36.4325 7.75707 36.6406 7.47694 36.7939C7.01542 37.0502 6.48318 37.1497 5.96022 37.0776C5.43727 37.0055 4.95185 36.7655 4.57694 36.3939C4.46299 36.5174 4.32743 36.6191 4.17694 36.6939C3.70172 36.99 3.13481 37.1026 2.5825 37.0105C2.0302 36.9185 1.53044 36.6281 1.17694 36.1939C1.07694 36.2939 1.07694 36.3939 0.976942 36.3939C0.914222 36.4426 0.84124 36.4765 0.763513 36.4929C0.685786 36.5093 0.60535 36.5078 0.528285 36.4885C0.45122 36.4693 0.379544 36.4327 0.318676 36.3817C0.257808 36.3306 0.209342 36.2664 0.176942 36.1939C-0.0230583 35.8939 0.176942 35.5939 0.476942 35.3939C0.51633 35.3559 0.563712 35.3272 0.615619 35.3099C0.667526 35.2926 0.722645 35.2871 0.776942 35.2939C0.609456 34.7719 0.627462 34.2081 0.827912 33.6978C1.02836 33.1876 1.39894 32.7623 1.87694 32.4939C1.97694 32.3939 2.17694 32.3939 2.27694 32.2939C2.15186 31.7853 2.19092 31.2503 2.38851 30.7653C2.5861 30.2803 2.93209 29.8702 3.37694 29.5939C3.65119 29.4303 3.95561 29.3238 4.27198 29.2806C4.58835 29.2374 4.91019 29.2584 5.21825 29.3424C5.52631 29.4264 5.81426 29.5717 6.0649 29.7696C6.31553 29.9674 6.52369 30.2138 6.67694 30.4939C6.86974 30.8648 6.97251 31.2759 6.97694 31.6939L31.9769 17.2939L38.1769 13.6939C38.9769 13.1939 39.5769 14.1939 38.7769 14.6939L32.4769 18.2939ZM4.87694 33.0939C4.68665 32.8498 4.44425 32.6513 4.16743 32.5129C3.89062 32.3745 3.58638 32.2997 3.27694 32.2939C3.19542 32.105 3.1611 31.899 3.17694 31.6939C3.17242 31.5088 3.20554 31.3247 3.27429 31.1528C3.34305 30.9809 3.446 30.8248 3.57692 30.6939C3.70783 30.563 3.86398 30.46 4.03588 30.3912C4.20778 30.3225 4.39186 30.2894 4.57694 30.2939C4.76203 30.2894 4.9461 30.3225 5.11801 30.3912C5.28991 30.46 5.44605 30.563 5.57696 30.6939C5.70788 30.8248 5.81084 30.9809 5.87959 31.1528C5.94835 31.3247 5.98147 31.5088 5.97694 31.6939C5.96393 32.0132 5.85065 32.3204 5.65319 32.5717C5.45574 32.823 5.18413 33.0057 4.87694 33.0939ZM5.27694 33.8939C5.38438 34.1676 5.43109 34.4614 5.41382 34.7549C5.39656 35.0484 5.31573 35.3347 5.17694 35.5939C5.27694 35.7939 5.47694 35.8939 5.57694 35.9939C5.8952 36.1795 6.27418 36.2312 6.6305 36.1374C6.98681 36.0436 7.29129 35.8121 7.47694 35.4939C7.66259 35.1756 7.71421 34.7967 7.62044 34.4403C7.52668 34.084 7.2952 33.7795 6.97694 33.5939C6.7026 33.4396 6.38326 33.3852 6.07329 33.4399C5.76333 33.4946 5.48191 33.655 5.27694 33.8939ZM2.97694 33.2939C2.60564 33.2939 2.24954 33.4414 1.98699 33.7039C1.72444 33.9665 1.57694 34.3226 1.57694 34.6939C1.57694 35.0652 1.72444 35.4213 1.98699 35.6838C2.24954 35.9464 2.60564 36.0939 2.97694 36.0939C3.34824 36.0939 3.70434 35.9464 3.96689 35.6838C4.22944 35.4213 4.37694 35.0652 4.37694 34.6939C4.37694 34.3226 4.22944 33.9665 3.96689 33.7039C3.70434 33.4414 3.34824 33.2939 2.97694 33.2939Z" fill="white" stroke="#96917A" stroke-width="0.191" stroke-miterlimit="2.613"/>
<path opacity="0.6" fill-rule="evenodd" clip-rule="evenodd" d="M7.87702 30.4938C7.80658 30.5284 7.74453 30.578 7.69521 30.6391C7.64589 30.7002 7.61048 30.7712 7.59144 30.8474C7.5724 30.9236 7.5702 31.0029 7.58497 31.08C7.59975 31.1571 7.63116 31.2301 7.67702 31.2938L8.37702 32.4938C8.41166 32.5642 8.46124 32.6263 8.52231 32.6756C8.58338 32.7249 8.65447 32.7603 8.73062 32.7794C8.80678 32.7984 8.88617 32.8006 8.96326 32.7858C9.04036 32.7711 9.1133 32.7396 9.17702 32.6938C9.24746 32.6591 9.3095 32.6096 9.35882 32.5485C9.40814 32.4874 9.44355 32.4163 9.46259 32.3402C9.48163 32.264 9.48384 32.1846 9.46906 32.1075C9.45428 32.0304 9.42287 31.9575 9.37702 31.8938L8.67702 30.6938C8.64238 30.6233 8.59279 30.5613 8.53172 30.512C8.47065 30.4627 8.39957 30.4273 8.32341 30.4082C8.24726 30.3892 8.16787 30.387 8.09077 30.4017C8.01368 30.4165 7.94073 30.4479 7.87702 30.4938Z" fill="white" stroke="#96917A" stroke-width="0.183" stroke-miterlimit="2.613"/>
<path opacity="0.6" fill-rule="evenodd" clip-rule="evenodd" d="M9.27705 18.294L8.97705 18.794L8.07705 18.694L7.77705 19.294L8.27705 19.994L7.67705 20.994L6.77705 20.894L6.47705 21.494L6.97705 22.194L6.67705 22.794L5.87705 22.294L5.67705 21.394L4.67705 21.494L6.07705 18.994L6.77705 19.394L7.07705 18.794L6.37705 18.394L6.87705 17.594L6.27705 17.294L5.77705 18.094L5.07705 17.694L4.77705 18.294L5.47705 18.694L4.07705 21.194C3.92649 20.8679 3.79298 20.5341 3.67705 20.194L2.77705 20.394L1.97705 19.994L2.27705 19.394L3.17705 19.494L3.47705 18.994L2.97705 18.294L3.57705 17.194L4.47705 17.294L4.77705 16.694L4.27705 15.994L4.57705 15.394L9.27705 18.294Z" fill="white" stroke="#96917A" stroke-width="0.191" stroke-miterlimit="2.613"/>
<path opacity="0.6" fill-rule="evenodd" clip-rule="evenodd" d="M9.27702 18.2939L34.277 32.6939C33.8925 32.8468 33.574 33.13 33.377 33.4939C33.2135 33.7681 33.1069 34.0726 33.0637 34.3889C33.0205 34.7053 33.0415 35.0271 33.1256 35.3352C33.2096 35.6433 33.3548 35.9312 33.5527 36.1818C33.7505 36.4325 33.9969 36.6406 34.277 36.7939C34.7385 37.0502 35.2708 37.1497 35.7937 37.0776C36.3167 37.0055 36.8021 36.7655 37.177 36.3939C37.291 36.5174 37.4265 36.6191 37.577 36.6939C38.0522 36.99 38.6192 37.1026 39.1715 37.0105C39.7238 36.9185 40.2235 36.6281 40.577 36.1939C40.677 36.2939 40.677 36.3939 40.777 36.3939C40.8397 36.4426 40.9127 36.4765 40.9904 36.4929C41.0682 36.5093 41.1486 36.5078 41.2257 36.4885C41.3027 36.4693 41.3744 36.4327 41.4353 36.3817C41.4962 36.3306 41.5446 36.2664 41.577 36.1939C41.777 35.8939 41.577 35.5939 41.277 35.3939C41.2376 35.3559 41.1903 35.3272 41.1383 35.3099C41.0864 35.2926 41.0313 35.2871 40.977 35.2939C41.1445 34.7719 41.1265 34.2081 40.926 33.6978C40.7256 33.1876 40.355 32.7623 39.877 32.4939C39.777 32.3939 39.577 32.3939 39.477 32.2939C39.6021 31.7853 39.563 31.2503 39.3655 30.7653C39.1679 30.2803 38.8219 29.8702 38.377 29.5939C38.1028 29.4303 37.7984 29.3238 37.482 29.2806C37.1656 29.2374 36.8438 29.2584 36.5357 29.3424C36.2277 29.4264 35.9397 29.5717 35.6891 29.7696C35.4384 29.9674 35.2303 30.2138 35.077 30.4939C34.8842 30.8648 34.7814 31.2759 34.777 31.6939L9.77702 17.2939L3.57702 13.6939C2.77702 13.1939 2.17702 14.1939 2.97702 14.6939L9.27702 18.2939ZM36.977 33.0939C37.1673 32.8498 37.4097 32.6513 37.6865 32.5129C37.9633 32.3745 38.2676 32.2997 38.577 32.2939C38.6585 32.105 38.6929 31.899 38.677 31.6939C38.677 31.3226 38.5295 30.9665 38.267 30.7039C38.0044 30.4414 37.6483 30.2939 37.277 30.2939C36.9057 30.2939 36.5496 30.4414 36.2871 30.7039C36.0245 30.9665 35.877 31.3226 35.877 31.6939C35.8714 32.0182 35.9777 32.3345 36.1781 32.5895C36.3785 32.8445 36.6606 33.0226 36.977 33.0939ZM36.477 33.8939C36.3696 34.1676 36.3229 34.4614 36.3401 34.7549C36.3574 35.0484 36.4382 35.3347 36.577 35.5939C36.477 35.7939 36.277 35.8939 36.177 35.9939C36.0212 36.0924 35.8468 36.1578 35.6646 36.1859C35.4825 36.2141 35.2964 36.2044 35.1182 36.1575C34.9399 36.1106 34.7732 36.0275 34.6285 35.9133C34.4838 35.7991 34.3641 35.6563 34.277 35.4939C34.1016 35.1733 34.0557 34.7977 34.1487 34.4443C34.2417 34.0909 34.4665 33.7866 34.777 33.5939C35.0514 33.4396 35.3707 33.3852 35.6807 33.4399C35.9906 33.4946 36.2721 33.655 36.477 33.8939ZM38.777 33.2939C39.0539 33.2939 39.3246 33.376 39.5548 33.5298C39.785 33.6837 39.9645 33.9023 40.0704 34.1581C40.1764 34.4139 40.2041 34.6954 40.1501 34.967C40.0961 35.2386 39.9628 35.488 39.767 35.6838C39.5712 35.8796 39.3217 36.013 39.0501 36.067C38.7786 36.121 38.4971 36.0933 38.2413 35.9873C37.9854 35.8814 37.7668 35.7019 37.613 35.4717C37.4591 35.2415 37.377 34.9708 37.377 34.6939C37.3725 34.5088 37.4056 34.3247 37.4744 34.1528C37.5431 33.9809 37.6461 33.8248 37.777 33.6939C37.9079 33.563 38.0641 33.46 38.236 33.3912C38.4079 33.3225 38.5919 33.2894 38.777 33.2939Z" fill="white" stroke="#96917A" stroke-width="0.191" stroke-miterlimit="2.613"/>
<path opacity="0.6" fill-rule="evenodd" clip-rule="evenodd" d="M33.877 30.4938C33.9474 30.5284 34.0095 30.578 34.0588 30.6391C34.1081 30.7002 34.1435 30.7712 34.1625 30.8474C34.1816 30.9236 34.1838 31.0029 34.169 31.08C34.1542 31.1571 34.1228 31.2301 34.077 31.2938L33.377 32.4938C33.3423 32.5642 33.2927 32.6263 33.2317 32.6756C33.1706 32.7249 33.0995 32.7603 33.0234 32.7794C32.9472 32.7984 32.8678 32.8006 32.7907 32.7858C32.7136 32.7711 32.6407 32.7396 32.577 32.6938C32.5065 32.6591 32.4445 32.6096 32.3952 32.5485C32.3458 32.4874 32.3104 32.4163 32.2914 32.3402C32.2724 32.264 32.2701 32.1846 32.2849 32.1075C32.2997 32.0304 32.3311 31.9575 32.377 31.8938L33.077 30.6938C33.1116 30.6233 33.1612 30.5613 33.2223 30.512C33.2833 30.4627 33.3544 30.4273 33.4306 30.4082C33.5067 30.3892 33.5861 30.387 33.6632 30.4017C33.7403 30.4165 33.8133 30.4479 33.877 30.4938Z" fill="white" stroke="#96917A" stroke-width="0.183" stroke-miterlimit="2.613"/>
<path opacity="0.6" fill-rule="evenodd" clip-rule="evenodd" d="M13.577 49.8942C13.677 50.0942 13.677 50.1942 13.477 50.1942C11.8709 49.5124 10.411 48.5278 9.17701 47.2942C8.97701 47.0942 9.17701 46.9942 9.27701 46.9942L10.277 46.7942L11.877 45.0942C12.5682 45.6833 13.3037 46.2182 14.077 46.6942L13.277 48.8942L13.577 49.8942Z" fill="white" stroke="#96917A" stroke-width="0.191" stroke-miterlimit="2.613"/>
<path opacity="0.6" fill-rule="evenodd" clip-rule="evenodd" d="M29.777 45.1938L31.377 46.8938L32.377 47.0938C32.577 47.0938 32.677 47.1938 32.577 47.3938C31.3609 48.6489 29.8964 49.6366 28.277 50.2938C28.077 50.2938 28.077 50.1938 28.077 49.9938L28.377 48.9938L27.577 46.7938C28.3504 46.3178 29.0859 45.7829 29.777 45.1938Z" fill="white" stroke="#96917A" stroke-width="0.191" stroke-miterlimit="2.613"/>
<path opacity="0.6" fill-rule="evenodd" clip-rule="evenodd" d="M10.377 46.7942L12.577 44.4942C11.2542 43.4207 10.1899 42.0634 9.46289 40.5228C8.73586 38.9822 8.36473 37.2977 8.37698 35.5942H4.77698C4.92105 37.7392 5.49036 39.834 6.45177 41.7568C7.41317 43.6797 8.74747 45.392 10.377 46.7942Z" fill="white" stroke="#96917A" stroke-width="0.191" stroke-miterlimit="2.613"/>
<path opacity="0.6" fill-rule="evenodd" clip-rule="evenodd" d="M31.477 46.7942L29.177 44.4942C30.4997 43.4207 31.5641 42.0634 32.2911 40.5228C33.0181 38.9822 33.3893 37.2977 33.377 35.5942H36.977C36.8841 37.7399 36.3475 39.8429 35.4008 41.7707C34.4541 43.6984 33.1181 45.4089 31.477 46.7942Z" fill="white" stroke="#96917A" stroke-width="0.191" stroke-miterlimit="2.613"/>
<path opacity="0.6" fill-rule="evenodd" clip-rule="evenodd" d="M28.377 48.994C26.0259 50.1983 23.4184 50.8159 20.777 50.794C18.1661 50.8277 15.5882 50.209 13.277 48.994L14.477 45.894C16.4467 46.9445 18.6447 47.494 20.877 47.494C23.1093 47.494 25.3073 46.9445 27.277 45.894L28.377 48.994Z" fill="white" stroke="#96917A" stroke-width="0.191" stroke-miterlimit="2.613"/>
<path opacity="0.6" fill-rule="evenodd" clip-rule="evenodd" d="M31.4771 46.794L31.8771 46.394L32.577 47.094C32.477 46.994 32.4771 46.994 32.3771 46.994L31.4771 46.794Z" fill="#96917A" stroke="#96917A" stroke-width="0.191" stroke-miterlimit="2.613"/>
<path opacity="0.6" fill-rule="evenodd" clip-rule="evenodd" d="M28.377 48.9941L27.877 49.1941L28.177 50.0941V49.8941L28.377 48.9941Z" fill="#96917A" stroke="#96917A" stroke-width="0.191" stroke-miterlimit="2.613"/>
<path opacity="0.6" fill-rule="evenodd" clip-rule="evenodd" d="M13.277 48.9941L13.877 49.2941L13.577 50.1941V49.9941L13.277 48.9941Z" fill="#96917A" stroke="#96917A" stroke-width="0.191" stroke-miterlimit="2.613"/>
<path opacity="0.6" fill-rule="evenodd" clip-rule="evenodd" d="M10.177 46.794L9.77703 46.394L9.07703 47.094C9.17703 46.994 9.17703 46.994 9.27703 46.994L10.177 46.794Z" fill="#96917A" stroke="#96917A" stroke-width="0.191" stroke-miterlimit="2.613"/>
<path opacity="0.6" fill-rule="evenodd" clip-rule="evenodd" d="M4.777 35.5942C4.87295 36.9152 5.10758 38.2224 5.477 39.4942L4.477 39.7942C4.177 38.7942 4.077 36.5942 4.777 35.5942Z" fill="white" stroke="#96917A" stroke-width="0.191" stroke-miterlimit="2.613"/>
<path opacity="0.6" fill-rule="evenodd" clip-rule="evenodd" d="M36.377 39.4942L37.277 39.7942C37.577 38.3941 37.473 36.9375 36.977 35.5942C36.8749 36.9074 36.6744 38.2111 36.377 39.4942Z" fill="white" stroke="#96917A" stroke-width="0.191" stroke-miterlimit="2.613"/>
<path opacity="0.6" fill-rule="evenodd" clip-rule="evenodd" d="M17.0769 47.4938L16.7769 48.1938H16.6769C16.6928 47.9887 16.6585 47.7828 16.5769 47.5938C16.4769 47.3938 16.3769 47.2938 16.1769 47.2938C15.9769 47.1938 15.8769 47.1938 15.7769 47.2938C15.6909 47.3076 15.6095 47.3421 15.5398 47.3943C15.4701 47.4466 15.4142 47.5151 15.3769 47.5938C15.2551 47.7464 15.1542 47.9145 15.0769 48.0938C14.9954 48.2828 14.9611 48.4887 14.9769 48.6938C14.9769 48.8938 14.9769 48.9938 15.0769 49.0938L15.3769 49.3938H15.7769L15.9769 48.9938V48.6938L15.8769 48.5938H15.7769V48.4938L16.7769 48.8938V48.9938H16.5769C16.5504 48.9938 16.525 49.0044 16.5062 49.0231C16.4875 49.0419 16.4769 49.0673 16.4769 49.0938C16.4769 49.1204 16.4664 49.1458 16.4477 49.1646C16.4289 49.1833 16.4035 49.1938 16.3769 49.1938L16.1769 49.5938H15.6769C15.4769 49.5938 15.3769 49.4938 15.1769 49.4938C14.9976 49.4166 14.8295 49.3157 14.6769 49.1938C14.5534 49.0799 14.4518 48.9443 14.3769 48.7938C14.2974 48.6765 14.262 48.5348 14.2769 48.3938C14.2614 48.221 14.2961 48.0474 14.3769 47.8938C14.4371 47.7341 14.5307 47.589 14.6514 47.4683C14.7721 47.3476 14.9172 47.254 15.0769 47.1938C15.4027 47.0936 15.7511 47.0936 16.0769 47.1938C16.1769 47.1938 16.2769 47.2938 16.3769 47.2938L16.5769 47.4938C16.6769 47.5938 16.6769 47.5938 16.7769 47.5938H16.8769C16.9308 47.5395 17.0011 47.5043 17.0769 47.4938Z" fill="#96917A"/>
<path opacity="0.6" fill-rule="evenodd" clip-rule="evenodd" d="M18.077 48.9942L17.977 49.5942V49.7942C17.977 49.8208 17.9875 49.8462 18.0063 49.865C18.025 49.8837 18.0505 49.8942 18.077 49.8942C18.1538 49.9015 18.2251 49.9372 18.277 49.9942V50.0942L17.177 49.8942V49.7942H17.377C17.4035 49.7942 17.429 49.7837 17.4477 49.7649C17.4665 49.7462 17.477 49.7208 17.477 49.6942C17.4843 49.6175 17.5199 49.5461 17.577 49.4942L17.877 48.0942V47.8942C17.877 47.8677 17.8665 47.8423 17.8477 47.8235C17.829 47.8048 17.8035 47.7942 17.777 47.7942C17.7002 47.7869 17.6289 47.7513 17.577 47.6942V47.5942L18.577 47.7942C18.7954 47.7807 19.0104 47.8524 19.177 47.9942C19.277 48.0942 19.377 48.0942 19.477 48.2942C19.577 48.3942 19.577 48.4942 19.577 48.6942C19.5755 48.7716 19.5568 48.8476 19.5222 48.9168C19.4876 48.986 19.438 49.0466 19.377 49.0942C19.3376 49.1322 19.2902 49.1609 19.2383 49.1782C19.1864 49.1955 19.1313 49.201 19.077 49.1942L19.477 49.9942C19.5341 50.0461 19.5697 50.1175 19.577 50.1942L19.677 50.2942V50.3942L18.977 50.2942L18.277 48.9942H18.077ZM18.277 47.8942L18.077 48.8942H18.477C18.577 48.8942 18.577 48.7942 18.677 48.7942C18.715 48.7549 18.7437 48.7075 18.761 48.6556C18.7783 48.6037 18.7837 48.5485 18.777 48.4942C18.777 48.2942 18.777 48.1942 18.677 48.0942C18.6294 48.0332 18.5688 47.9836 18.4996 47.949C18.4304 47.9144 18.3544 47.8957 18.277 47.8942Z" fill="#96917A"/>
<path opacity="0.6" fill-rule="evenodd" clip-rule="evenodd" d="M21.3771 49.594H20.5771L20.4771 49.794V49.994C20.4771 50.094 20.4771 50.094 20.5771 50.094H20.7771V50.194H19.9771V50.094C20.0771 50.094 20.0771 50.094 20.1771 49.994C20.2771 49.894 20.2771 49.794 20.3771 49.694L21.1771 47.894L21.9771 49.694C22.0771 49.894 22.0771 49.994 22.1771 49.994C22.2309 50.0484 22.3012 50.0835 22.3771 50.094V50.194H21.2771V50.094H21.4771V49.894C21.4771 49.8675 21.4665 49.8421 21.4478 49.8233C21.429 49.8046 21.4036 49.794 21.3771 49.794V49.594ZM21.3771 49.494L20.9771 48.694L20.6771 49.494H21.3771Z" fill="#96917A"/>
<path opacity="0.6" fill-rule="evenodd" clip-rule="evenodd" d="M24.477 47.4941L24.277 47.6941C24.277 47.7941 24.177 47.8941 24.177 48.0941L23.777 49.9941H23.677L22.577 48.3941C22.477 48.1941 22.377 48.0941 22.277 48.0941H22.077V47.9941L23.177 47.7941V47.8941C23.077 47.8941 22.977 47.8941 22.977 47.9941V48.1941C23.0314 48.248 23.0665 48.3183 23.077 48.3941L23.777 49.3941L24.077 48.2941C24.0703 48.2398 24.0758 48.1847 24.0931 48.1328C24.1104 48.0809 24.139 48.0335 24.177 47.9941V47.7941H23.877V47.6941L24.477 47.4941Z" fill="#96917A"/>
<path opacity="0.6" fill-rule="evenodd" clip-rule="evenodd" d="M25.477 47.2938L25.777 48.1938C25.877 48.0938 25.977 48.0938 25.977 47.9938V47.5938H26.077L26.477 48.6938H26.377C26.277 48.5938 26.277 48.4938 26.177 48.3938C26.077 48.2938 26.077 48.2938 25.977 48.2938C25.877 48.2938 25.877 48.2938 25.777 48.3938L25.977 48.9938C25.9874 49.0697 26.0226 49.14 26.077 49.1938H26.277L26.377 49.0938C26.5274 49.019 26.663 48.9174 26.777 48.7938C26.8677 48.644 26.9031 48.4671 26.877 48.2938H26.977L27.177 48.9938L25.377 49.6938V49.5938H25.477C25.4901 49.5938 25.5031 49.5913 25.5152 49.5862C25.5274 49.5812 25.5384 49.5738 25.5477 49.5646C25.557 49.5553 25.5643 49.5442 25.5693 49.5321C25.5744 49.52 25.577 49.507 25.577 49.4938V49.3938C25.5697 49.3171 25.534 49.2458 25.477 49.1938L24.877 47.7938C24.8665 47.718 24.8313 47.6477 24.777 47.5938L24.677 47.4938H24.377V47.3938L26.177 46.6938L26.377 47.2938H26.277L25.977 46.9938C25.877 46.9938 25.777 46.8938 25.677 46.8938C25.6227 46.8871 25.5675 46.8926 25.5156 46.9099C25.4637 46.9272 25.4163 46.9559 25.377 46.9938L25.477 47.2938Z" fill="#96917A"/>
<path opacity="0.6" fill-rule="evenodd" clip-rule="evenodd" d="M31.277 42.8939H33.077L32.277 42.2939C32.2376 42.256 32.1902 42.2273 32.1383 42.21C32.0864 42.1927 32.0313 42.1872 31.977 42.1939C31.9251 42.1975 31.8762 42.2197 31.8395 42.2564C31.8027 42.2932 31.7805 42.3421 31.777 42.3939L32.277 41.7939C32.277 41.8939 32.177 41.8939 32.177 41.9939V42.0939L32.377 42.2939L33.877 43.4939H31.477L32.577 44.3939C32.6164 44.4319 32.6637 44.4606 32.7157 44.4779C32.7676 44.4952 32.8227 44.5007 32.877 44.4939C32.977 44.4939 32.977 44.3939 33.077 44.3939L32.577 44.9939C32.615 44.9546 32.6436 44.9072 32.6609 44.8553C32.6782 44.8034 32.6837 44.7482 32.677 44.6939C32.677 44.5939 32.577 44.5939 32.477 44.4939L31.177 43.4939H30.877L30.777 43.5939L31.277 42.8939Z" fill="#96917A"/>
<path opacity="0.6" fill-rule="evenodd" clip-rule="evenodd" d="M34.777 41.3939L34.277 42.4939H34.177V42.0939C34.1231 42.0396 34.0528 42.0044 33.977 41.9939L32.677 41.2939C32.6251 41.2369 32.5538 41.2012 32.477 41.1939H32.377L32.277 41.2939V41.3939H32.177L32.677 40.2939H32.777V40.6939C32.8309 40.7483 32.9012 40.7834 32.977 40.7939L34.277 41.4939C34.3289 41.551 34.4002 41.5867 34.477 41.5939H34.577C34.63 41.5939 34.6809 41.5729 34.7184 41.5354C34.7559 41.4979 34.777 41.447 34.777 41.3939Z" fill="#96917A"/>
<path opacity="0.6" fill-rule="evenodd" clip-rule="evenodd" d="M35.077 38.5942L35.777 38.9942L35.077 40.8942H34.977V40.5942C34.977 40.5677 34.9664 40.5423 34.9477 40.5235C34.9289 40.5048 34.9035 40.4942 34.877 40.4942C34.8231 40.4399 34.7528 40.4047 34.677 40.3942L33.277 39.8942C33.2011 39.8837 33.1309 39.8486 33.077 39.7942H32.977L32.877 39.8942V39.9942H32.777L33.177 38.8942H33.277V39.1942C33.277 39.2074 33.2796 39.2204 33.2846 39.2325C33.2896 39.2446 33.297 39.2557 33.3063 39.2649C33.3156 39.2742 33.3266 39.2816 33.3387 39.2866C33.3508 39.2917 33.3638 39.2942 33.377 39.2942C33.4309 39.3486 33.5011 39.3837 33.577 39.3942L34.977 39.8942C35.0528 39.9047 35.1231 39.9399 35.177 39.9942H35.277C35.2843 39.9175 35.3199 39.8461 35.377 39.7942L35.477 39.5942C35.477 39.4942 35.577 39.3942 35.477 39.2942C35.477 39.1942 35.377 39.0942 35.377 38.9942C35.377 38.8942 35.277 38.7942 35.077 38.5942Z" fill="#96917A"/>
<path opacity="0.6" fill-rule="evenodd" clip-rule="evenodd" d="M35.577 37.0941L35.377 38.0941L35.077 37.9941L35.277 36.9941L35.577 37.0941Z" fill="#96917A"/>
<path opacity="0.6" fill-rule="evenodd" clip-rule="evenodd" d="M6.477 37.9938L6.377 37.1938L6.177 37.0938H5.977C5.877 37.0938 5.877 37.0938 5.877 37.1938V37.3938H5.777L5.677 36.6938H5.777C5.777 36.7938 5.877 36.7938 5.877 36.8938C5.877 36.9938 5.977 36.9938 6.177 37.0938L8.077 37.5938L6.377 38.6938C6.26778 38.7455 6.16671 38.8129 6.077 38.8938V39.0938H5.977L5.777 37.9938H5.877C5.877 38.0938 5.877 38.0938 5.977 38.1938H6.177L6.277 38.0938L6.477 37.9938ZM6.577 37.9938L7.277 37.4938L6.477 37.2938L6.577 37.9938Z" fill="#96917A"/>
<path opacity="0.6" fill-rule="evenodd" clip-rule="evenodd" d="M7.67703 41.3939L6.87703 41.5939L6.07703 39.6939H6.17703V39.7939C6.17703 39.8205 6.18756 39.8459 6.20632 39.8647C6.22507 39.8834 6.25051 39.8939 6.27703 39.8939H6.37703C6.45381 39.8867 6.52512 39.851 6.57703 39.7939L7.97703 39.2939C8.05286 39.2834 8.12313 39.2483 8.17703 39.1939V38.7939H8.27703L8.67703 39.9939H8.57703V39.8939C8.57703 39.8674 8.56649 39.842 8.54774 39.8232C8.52898 39.8045 8.50355 39.7939 8.47703 39.7939H8.37703C8.30024 39.8012 8.22893 39.8369 8.17703 39.8939L6.87703 40.3939C6.8012 40.4044 6.73092 40.4396 6.67703 40.4939V40.5939C6.68432 40.6707 6.71997 40.742 6.77703 40.7939L6.87703 40.9939C6.87703 41.0939 6.97703 41.1939 7.07703 41.2939C7.11641 41.3319 7.1638 41.3606 7.2157 41.3779C7.26761 41.3952 7.32273 41.4007 7.37703 41.3939C7.27703 41.2939 7.47703 41.2939 7.67703 41.3939Z" fill="#96917A"/>
<path opacity="0.6" fill-rule="evenodd" clip-rule="evenodd" d="M7.87698 43.2939L7.27698 42.2939H7.37698V42.3939C7.37698 42.4205 7.38751 42.4459 7.40627 42.4647C7.42502 42.4834 7.45046 42.4939 7.47698 42.4939H7.57698C7.65376 42.4867 7.72507 42.451 7.77698 42.3939L9.07698 41.6939C9.12888 41.6369 9.20019 41.6012 9.27698 41.5939V41.2939H9.37698L9.97698 42.2939H9.87698V42.1939C9.87698 42.1674 9.86644 42.142 9.84769 42.1232C9.82893 42.1045 9.8035 42.0939 9.77698 42.0939H9.67698C9.60019 42.1012 9.52888 42.1369 9.47698 42.1939L7.97698 42.8939C7.95046 42.8939 7.92502 42.9045 7.90627 42.9232C7.88751 42.942 7.87698 42.9674 7.87698 42.9939V43.0939C7.77698 43.0939 7.87698 43.1939 7.87698 43.2939Z" fill="#96917A"/>
<path opacity="0.6" fill-rule="evenodd" clip-rule="evenodd" d="M10.977 43.7939L10.377 44.2939V44.1939C10.5021 44.057 10.5732 43.8793 10.577 43.6939C10.577 43.4939 10.577 43.3939 10.477 43.2939L10.277 43.0939H10.077L9.977 43.1939V43.3939C9.97263 43.5339 10.0073 43.6724 10.077 43.7939C10.177 44.0939 10.177 44.2939 10.077 44.3939C10.077 44.4939 9.977 44.6939 9.877 44.6939C9.79268 44.796 9.68516 44.8766 9.56339 44.9288C9.44162 44.981 9.30915 45.0033 9.177 44.9939C8.98018 44.9559 8.80308 44.8497 8.677 44.6939C8.677 44.5939 8.577 44.5939 8.577 44.4939C8.577 44.3939 8.477 44.3939 8.477 44.2939C8.477 44.1939 8.477 44.1939 8.377 44.1939L8.277 44.0939H8.177L8.877 43.5939C8.78952 43.6688 8.71791 43.7605 8.66639 43.8636C8.61487 43.9666 8.58448 44.0789 8.577 44.1939C8.56144 44.3667 8.59617 44.5403 8.677 44.6939C8.777 44.7939 8.877 44.8939 8.977 44.8939H9.277L9.377 44.7939V44.1939C9.35352 44.0254 9.32013 43.8584 9.277 43.6939C9.27025 43.6396 9.27573 43.5844 9.29303 43.5325C9.31034 43.4806 9.33902 43.4332 9.377 43.3939C9.38051 43.342 9.40271 43.2931 9.43948 43.2563C9.47626 43.2196 9.52512 43.1974 9.577 43.1939C9.72684 43.1031 9.90377 43.0677 10.077 43.0939C10.277 43.0939 10.377 43.1939 10.477 43.3939C10.477 43.4939 10.577 43.4939 10.577 43.5939C10.5843 43.6706 10.6199 43.7419 10.677 43.7939V43.9939H10.777C10.877 43.7939 10.877 43.7939 10.977 43.7939Z" fill="#96917A"/>
<path opacity="0.6" fill-rule="evenodd" clip-rule="evenodd" d="M11.677 9.09395C11.7206 9.48543 11.6133 9.8788 11.377 10.1939C10.877 10.4939 11.077 11.0939 10.777 11.6939C10.2583 12.4406 9.9163 13.2955 9.77698 14.1939C9.37698 14.3939 8.57698 14.6939 8.17698 14.4939C7.97698 14.4939 7.77698 14.1939 7.77698 14.0939C7.77698 12.4939 8.97698 11.1939 9.27698 9.69394C9.27698 9.09394 8.87698 8.39395 9.27698 7.79395L11.677 9.09395Z" fill="white" stroke="white" stroke-width="0.057" stroke-miterlimit="2.613"/>
<path opacity="0.6" d="M9.87698 8.09424C10.0479 8.39797 10.1179 8.74813 10.077 9.09424C9.97698 9.19424 9.97698 9.39424 9.77698 9.39424M11.077 8.79424C11.1772 9.12003 11.1772 9.46844 11.077 9.79424C10.977 9.89424 10.977 10.0942 10.777 10.0942L11.077 8.79424ZM10.477 8.39424C10.6086 8.71032 10.6434 9.05836 10.577 9.39424C10.477 9.49424 10.477 9.69424 10.277 9.69424L10.477 8.39424Z" stroke="#96917A" stroke-width="0.21" stroke-miterlimit="2.613"/>
<path opacity="0.6" d="M11.677 9.09395C11.7206 9.48543 11.6133 9.8788 11.377 10.1939C10.877 10.4939 11.077 11.0939 10.777 11.6939C10.2583 12.4406 9.9163 13.2955 9.77698 14.1939C9.37698 14.3939 8.57698 14.6939 8.17698 14.4939C7.97698 14.4939 7.77698 14.1939 7.77698 14.0939C7.77698 12.4939 8.97698 11.1939 9.27698 9.69394C9.27698 9.09394 8.87698 8.39395 9.27698 7.79395" stroke="#96917A" stroke-width="0.191" stroke-miterlimit="2.613"/>
<path opacity="0.6" fill-rule="evenodd" clip-rule="evenodd" d="M10.677 14.0942C11.277 15.5942 8.877 18.2942 8.677 20.1942C8.69902 20.6415 8.81769 21.0788 9.02484 21.4758C9.232 21.8728 9.52272 22.2203 9.877 22.4942V19.4942H10.977L11.677 18.0942C12.1236 17.2935 12.3962 16.4075 12.477 15.4942L11.377 14.6942C11.077 14.2942 10.877 14.0942 10.677 14.0942Z" fill="white" stroke="#96917A" stroke-width="0.188" stroke-miterlimit="2.613"/>
<path opacity="0.6" fill-rule="evenodd" clip-rule="evenodd" d="M10.277 16.2942L8.477 14.9942C8.13463 14.7292 7.86038 14.3864 7.677 13.9942C8.077 14.8942 9.277 14.1942 9.677 14.0942C9.82734 14.0083 9.99407 13.955 10.1664 13.9378C10.3386 13.9205 10.5126 13.9398 10.677 13.9942C10.7787 14.3839 10.7957 14.7908 10.7267 15.1876C10.6577 15.5844 10.5043 15.9617 10.277 16.2942Z" fill="#96917A" stroke="#96917A" stroke-width="0.191" stroke-miterlimit="2.613"/>
<path opacity="0.6" fill-rule="evenodd" clip-rule="evenodd" d="M10.777 17.1942L10.477 17.0942L10.377 17.3942L10.677 17.4942L10.177 18.6942L10.477 18.7942L10.977 17.5942L11.277 17.7942L11.377 17.4942L11.077 17.3942L11.577 16.1942L11.377 16.0942L10.777 17.1942Z" fill="#96917A" stroke="#96917A" stroke-width="0.212" stroke-miterlimit="2.613"/>
<path opacity="0.6" fill-rule="evenodd" clip-rule="evenodd" d="M30.077 9.09404C30.0334 9.48552 30.1407 9.8789 30.377 10.194C30.877 10.494 30.677 11.094 30.977 11.694C31.4957 12.4407 31.8377 13.2956 31.977 14.194C32.377 14.394 33.177 14.694 33.577 14.494C33.777 14.494 33.977 14.194 33.977 14.094C34.077 12.594 32.777 11.294 32.477 9.79404C32.477 9.19404 32.877 8.49404 32.477 7.89404L30.077 9.09404Z" fill="white" stroke="white" stroke-width="0.057" stroke-miterlimit="2.613"/>
<path opacity="0.6" d="M31.977 8.09424C31.8061 8.39797 31.736 8.74813 31.777 9.09424C31.877 9.19424 31.877 9.39424 31.977 9.49424M30.677 8.79424C30.5767 9.12003 30.5767 9.46844 30.677 9.79424C30.777 9.89424 30.777 10.0942 30.977 10.0942L30.677 8.79424ZM31.377 8.39424C31.2454 8.71032 31.2106 9.05836 31.277 9.39424C31.377 9.49424 31.377 9.69424 31.577 9.69424L31.377 8.39424Z" stroke="#96917A" stroke-width="0.21" stroke-miterlimit="2.613"/>
<path opacity="0.6" d="M30.077 9.09404C30.0334 9.48552 30.1407 9.8789 30.377 10.194C30.877 10.494 30.677 11.094 30.977 11.694C31.4957 12.4407 31.8377 13.2956 31.977 14.194C32.377 14.394 33.177 14.694 33.577 14.494C33.777 14.494 33.977 14.194 33.977 14.094C34.077 12.594 32.777 11.294 32.477 9.79404C32.477 9.19404 32.877 8.49404 32.477 7.89404" stroke="#96917A" stroke-width="0.191" stroke-miterlimit="2.613"/>
<path opacity="0.6" fill-rule="evenodd" clip-rule="evenodd" d="M31.077 14.0942C30.477 15.5942 32.877 18.2942 33.077 20.1942C33.055 20.6415 32.9363 21.0788 32.7291 21.4758C32.522 21.8728 32.2313 22.2203 31.877 22.4942V19.4942H30.777L30.077 17.9942C29.6304 17.1935 29.3578 16.3075 29.277 15.3942L30.377 14.5942C30.777 14.2942 30.877 14.0942 31.077 14.0942Z" fill="white" stroke="#96917A" stroke-width="0.188" stroke-miterlimit="2.613"/>
<path opacity="0.6" fill-rule="evenodd" clip-rule="evenodd" d="M31.477 16.2938L33.277 15.0938C33.6194 14.8288 33.8936 14.486 34.077 14.0938C33.677 14.9938 32.477 14.2938 32.077 14.1938C31.9267 14.1079 31.7599 14.0546 31.5877 14.0374C31.4154 14.0201 31.2414 14.0394 31.077 14.0938C30.93 14.8513 31.0728 15.6365 31.477 16.2938Z" fill="#96917A" stroke="#96917A" stroke-width="0.191" stroke-miterlimit="2.613"/>
<path opacity="0.6" fill-rule="evenodd" clip-rule="evenodd" d="M30.977 17.1942L31.277 17.0942L31.377 17.3942L31.077 17.4942L31.677 18.6942L31.377 18.7942L30.777 17.5942L30.477 17.7942L30.377 17.4942L30.677 17.3942L30.177 16.1942L30.377 16.0942L30.977 17.1942Z" fill="#96917A" stroke="#96917A" stroke-width="0.212" stroke-miterlimit="2.613"/>
<path opacity="0.6" fill-rule="evenodd" clip-rule="evenodd" d="M20.877 17.094C22.7005 17.0804 24.5173 17.3159 26.277 17.794C28.077 11.894 27.177 6.39404 20.877 3.39404C14.577 6.49404 13.477 11.894 15.377 17.894C17.1574 17.3422 19.0132 17.0722 20.877 17.094Z" fill="white" stroke="#96917A" stroke-width="0.188" stroke-miterlimit="2.613"/>
<path opacity="0.6" fill-rule="evenodd" clip-rule="evenodd" d="M20.8769 1.89404C21.0352 1.89404 21.1898 1.94096 21.3214 2.02887C21.453 2.11677 21.5555 2.24172 21.6161 2.3879C21.6766 2.53408 21.6924 2.69493 21.6616 2.85012C21.6307 3.0053 21.5545 3.14785 21.4426 3.25973C21.3308 3.37161 21.1882 3.4478 21.033 3.47867C20.8778 3.50954 20.717 3.4937 20.5708 3.43315C20.4246 3.3726 20.2997 3.27006 20.2118 3.1385C20.1239 3.00694 20.0769 2.85227 20.0769 2.69404C19.9769 2.29404 20.3769 1.89404 20.8769 1.89404Z" fill="white" stroke="#96917A" stroke-width="0.191" stroke-miterlimit="2.613"/>
<path opacity="0.6" fill-rule="evenodd" clip-rule="evenodd" d="M21.177 1.99424V1.39424H21.877V0.694238H21.177V0.0942383H20.577V0.694238H19.877V1.39424H20.577V1.99424H21.177Z" fill="white" stroke="#96917A" stroke-width="0.188" stroke-miterlimit="2.613"/>
<path opacity="0.6" fill-rule="evenodd" clip-rule="evenodd" d="M27.477 14.0942C27.077 13.9942 26.677 14.0942 26.577 14.3942C26.562 14.5352 26.5974 14.6769 26.677 14.7942C26.5103 14.8027 26.3512 14.8662 26.2246 14.9748C26.0979 15.0834 26.0108 15.2309 25.977 15.3942C25.9819 15.5346 26.021 15.6716 26.0906 15.7936C26.1603 15.9155 26.2586 16.0187 26.377 16.0942C26.577 16.1942 26.377 16.8942 26.077 16.7942C25.677 16.7942 25.677 16.3942 25.677 16.0942V15.7942L25.577 15.9942C25.577 16.2942 25.077 16.4942 24.777 16.4942C24.6471 16.4858 24.5248 16.4304 24.4328 16.3384C24.3408 16.2464 24.2854 16.1241 24.277 15.9942C24.277 15.4942 24.277 15.8942 24.777 15.8942C24.9755 15.9302 25.1802 15.8878 25.3481 15.7759C25.5159 15.664 25.6338 15.4913 25.677 15.2942C25.7008 15.2013 25.7035 15.1041 25.6848 15.01C25.6661 14.9158 25.6265 14.8271 25.5689 14.7503C25.5113 14.6735 25.4372 14.6106 25.352 14.5663C25.2669 14.522 25.1729 14.4974 25.077 14.4942H24.977C25.0149 14.4548 25.0436 14.4075 25.0609 14.3556C25.0782 14.3037 25.0837 14.2485 25.077 14.1942C25.113 13.9957 25.0705 13.791 24.9586 13.6231C24.8467 13.4553 24.674 13.3374 24.477 13.2942C24.384 13.2704 24.2868 13.2677 24.1927 13.2864C24.0985 13.3051 24.0098 13.3447 23.933 13.4023C23.8562 13.4599 23.7934 13.534 23.749 13.6192C23.7047 13.7043 23.6801 13.7983 23.677 13.8942V14.1942H23.577C23.3784 14.1582 23.1737 14.2007 23.0058 14.3126C22.838 14.4245 22.7201 14.5972 22.677 14.7942C22.577 15.1942 22.877 15.4942 23.277 15.5942C23.677 15.6942 23.777 15.4942 23.777 15.6942C23.7664 15.8499 23.6998 15.9965 23.5895 16.1068C23.4792 16.2171 23.3326 16.2837 23.177 16.2942C22.777 16.2942 22.477 16.0942 22.477 15.6942C22.477 15.5942 22.477 15.3942 22.377 15.3942C22.3226 15.4481 22.2874 15.5184 22.277 15.5942C22.277 15.8942 21.977 16.0942 21.477 16.0942C21.3471 16.0858 21.2248 16.0304 21.1328 15.9384C21.0408 15.8464 20.9854 15.7241 20.977 15.5942C20.977 15.2942 20.977 15.4942 21.377 15.4942C21.5626 15.4942 21.7407 15.4205 21.8719 15.2892C22.0032 15.1579 22.077 14.9799 22.077 14.7942C22.077 14.6086 22.0032 14.4305 21.8719 14.2993C21.7407 14.168 21.5626 14.0942 21.377 14.0942H21.277C21.277 13.9942 21.377 13.8942 21.377 13.7942C21.377 13.6086 21.3032 13.4305 21.1719 13.2993C21.0407 13.168 20.8626 13.0942 20.677 13.0942C20.4913 13.0942 20.3133 13.168 20.182 13.2993C20.0507 13.4305 19.977 13.6086 19.977 13.7942C19.9702 13.8485 19.9757 13.9037 19.993 13.9556C20.0103 14.0075 20.039 14.0548 20.077 14.0942H19.977C19.7913 14.0942 19.6133 14.168 19.482 14.2993C19.3507 14.4305 19.277 14.6086 19.277 14.7942C19.277 14.9799 19.3507 15.1579 19.482 15.2892C19.6133 15.4205 19.7913 15.4942 19.977 15.4942C20.377 15.4942 20.377 15.2942 20.377 15.5942C20.381 15.661 20.3709 15.7278 20.3472 15.7903C20.3236 15.8528 20.2869 15.9096 20.2396 15.9569C20.1923 16.0041 20.1355 16.0408 20.073 16.0645C20.0105 16.0882 19.9437 16.0983 19.877 16.0942C19.477 16.0942 19.177 15.8942 19.177 15.5942C19.177 15.4942 19.177 15.3942 19.077 15.3942C19.028 15.4883 18.9943 15.5896 18.977 15.6942C18.977 15.9942 18.677 16.1942 18.277 16.2942C17.977 16.3942 17.777 15.9942 17.677 15.6942C17.677 15.4942 17.777 15.6942 18.177 15.5942C18.577 15.4942 18.877 15.1942 18.777 14.7942C18.7338 14.5972 18.6159 14.4245 18.4481 14.3126C18.2802 14.2007 18.0755 14.1582 17.877 14.1942H17.777V13.8942C17.677 13.4942 17.277 13.1942 16.977 13.2942C16.7799 13.3374 16.6072 13.4553 16.4953 13.6231C16.3834 13.791 16.341 13.9957 16.377 14.1942C16.3702 14.2485 16.3757 14.3037 16.393 14.3556C16.4103 14.4075 16.439 14.4548 16.477 14.4942H16.377C15.977 14.5942 15.677 14.9942 15.777 15.2942C15.8152 15.4741 15.9173 15.634 16.0644 15.7443C16.2115 15.8547 16.3936 15.9079 16.577 15.8942C16.977 15.8942 17.077 15.4942 17.077 15.9942C17.081 16.061 17.0709 16.1278 17.0472 16.1903C17.0236 16.2528 16.9869 16.3096 16.9396 16.3569C16.8923 16.4041 16.8355 16.4408 16.773 16.4645C16.7105 16.4882 16.6437 16.4983 16.577 16.4942C16.277 16.4942 15.777 16.2942 15.777 15.9942L15.677 15.7942V16.0942C15.677 16.4942 15.677 16.7942 15.277 16.7942C14.977 16.7942 14.777 16.1942 14.977 16.0942C15.0953 16.0187 15.1936 15.9155 15.2633 15.7936C15.3329 15.6716 15.372 15.5346 15.377 15.3942C15.3595 15.2235 15.2771 15.0661 15.1468 14.9544C15.0165 14.8427 14.8483 14.7854 14.677 14.7942C14.677 14.6942 14.777 14.4942 14.777 14.3942C14.677 13.9942 14.277 13.8942 13.877 14.0942L15.077 17.7942C16.8707 17.3159 18.7206 17.0805 20.577 17.0942C22.4004 17.0806 24.2172 17.3161 25.977 17.7942L27.477 14.0942Z" fill="white" stroke="#96917A" stroke-width="0.188" stroke-miterlimit="2.613"/>
<path opacity="0.6" fill-rule="evenodd" clip-rule="evenodd" d="M27.677 9.39424C27.572 9.35382 27.46 9.33472 27.3476 9.33804C27.2352 9.34136 27.1245 9.36704 27.0221 9.41359C26.9197 9.46013 26.8276 9.52661 26.7512 9.60913C26.6748 9.69166 26.6155 9.78858 26.577 9.89424C26.5702 10.0665 26.6044 10.2379 26.677 10.3942C26.5056 10.3854 26.3374 10.4427 26.2071 10.5544C26.0768 10.6661 25.9944 10.8235 25.977 10.9942C25.977 11.1942 26.077 11.5942 26.377 11.6942C26.777 11.7942 26.977 11.6942 26.877 11.8942C26.877 12.1942 26.477 12.4942 26.177 12.4942C25.777 12.4942 25.577 12.0942 25.577 11.6942V11.3942L25.477 11.5942C25.4145 11.7464 25.2991 11.8707 25.152 11.9443C25.0049 12.0178 24.8361 12.0356 24.677 11.9942C24.6102 11.9983 24.5434 11.9882 24.4809 11.9645C24.4184 11.9408 24.3616 11.9041 24.3143 11.8569C24.267 11.8096 24.2304 11.7528 24.2067 11.6903C24.183 11.6278 24.1729 11.561 24.177 11.4942C24.177 10.9942 24.177 11.3942 24.677 11.3942C24.8741 11.4297 25.0773 11.3864 25.2428 11.2736C25.4084 11.1609 25.5231 10.9877 25.5624 10.7913C25.6017 10.5949 25.5624 10.3909 25.4529 10.2232C25.3434 10.0555 25.1725 9.93736 24.977 9.89424H24.877C24.9149 9.85485 24.9436 9.80747 24.9609 9.75556C24.9782 9.70365 24.9837 9.64854 24.977 9.59424C24.9901 9.50231 24.985 9.4087 24.9619 9.31875C24.9389 9.22879 24.8984 9.14426 24.8426 9.06997C24.7869 8.99569 24.7171 8.9331 24.6372 8.88579C24.5573 8.83848 24.4689 8.80737 24.377 8.79424C24.285 8.78111 24.1914 8.78621 24.1015 8.80925C24.0115 8.8323 23.927 8.87284 23.8527 8.92855C23.7784 8.98427 23.7158 9.05407 23.6685 9.13397C23.6212 9.21387 23.5901 9.30231 23.577 9.39424V9.69424H23.477C23.2784 9.65824 23.0737 9.70066 22.9058 9.81257C22.738 9.92448 22.6201 10.0972 22.577 10.2942C22.477 10.6942 22.777 10.9942 23.177 11.0942C23.577 11.1942 23.677 10.9942 23.677 11.1942C23.6664 11.3499 23.5998 11.4965 23.4895 11.6068C23.3792 11.7171 23.2326 11.7837 23.077 11.7942C22.9056 11.8031 22.7374 11.7457 22.6071 11.6341C22.4768 11.5224 22.3944 11.3649 22.377 11.1942C22.377 11.1942 22.377 10.8942 22.277 10.8942C22.2226 10.9481 22.1875 11.0184 22.177 11.0942C22.177 11.3942 21.877 11.5942 21.377 11.5942C21.2471 11.5858 21.1248 11.5304 21.0328 11.4384C20.9408 11.3464 20.8854 11.2241 20.877 11.0942C20.877 10.7942 20.877 10.9942 21.277 10.9942C21.4626 10.9942 21.6407 10.9205 21.7719 10.7892C21.9032 10.6579 21.977 10.4799 21.977 10.2942C21.977 10.1086 21.9032 9.93054 21.7719 9.79926C21.6407 9.66799 21.4626 9.59424 21.277 9.59424H21.177C21.177 9.49424 21.277 9.39424 21.277 9.29424C21.277 9.10859 21.2032 8.93054 21.0719 8.79926C20.9407 8.66799 20.7626 8.59424 20.577 8.59424C20.3913 8.59424 20.2133 8.66799 20.082 8.79926C19.9507 8.93054 19.877 9.10859 19.877 9.29424C19.8702 9.34854 19.8757 9.40365 19.893 9.45556C19.9103 9.50747 19.939 9.55485 19.977 9.59424H19.877C19.7844 9.59205 19.6924 9.60866 19.6065 9.64306C19.5206 9.67746 19.4425 9.72894 19.3771 9.79438C19.3117 9.85983 19.2602 9.93787 19.2258 10.0238C19.1914 10.1097 19.1748 10.2017 19.177 10.2942C19.177 10.6942 19.477 11.0942 19.877 10.9942C20.277 10.9942 20.277 10.7942 20.277 11.0942C20.281 11.161 20.2709 11.2278 20.2472 11.2903C20.2236 11.3528 20.1869 11.4096 20.1396 11.4569C20.0923 11.5041 20.0355 11.5408 19.973 11.5645C19.9105 11.5882 19.8437 11.5983 19.777 11.5942C19.377 11.5942 19.077 11.3942 19.077 11.0942C19.077 10.9942 19.077 10.8942 18.977 10.8942C18.928 10.9883 18.8943 11.0896 18.877 11.1942C18.877 11.5942 18.577 11.7942 18.177 11.7942C17.877 11.7942 17.677 11.4942 17.577 11.1942C17.577 10.9942 17.677 11.1942 18.077 11.0942C18.477 10.9942 18.777 10.6942 18.677 10.2942C18.977 9.99424 18.577 9.69424 18.177 9.79424H18.077V9.49424C17.977 9.09424 17.577 8.79424 17.277 8.89424C16.877 8.99424 16.577 9.39424 16.677 9.69424C16.6702 9.74853 16.6757 9.80365 16.693 9.85556C16.7103 9.90747 16.739 9.95485 16.777 9.99424H16.677C16.4799 10.0374 16.3072 10.1553 16.1953 10.3231C16.0834 10.491 16.041 10.6957 16.077 10.8942C16.1152 11.0741 16.2173 11.234 16.3644 11.3443C16.5115 11.4547 16.6936 11.5079 16.877 11.4942C17.277 11.4942 17.377 11.0942 17.377 11.5942C17.377 11.8942 17.177 11.9942 16.877 12.0942C16.7178 12.1356 16.549 12.1178 16.4019 12.0443C16.2548 11.9707 16.1394 11.8464 16.077 11.6942L15.977 11.4942V11.7942C15.9906 11.9776 15.9374 12.1597 15.8271 12.3068C15.7167 12.4539 15.5568 12.556 15.377 12.5942C15.2153 12.5712 15.0635 12.5025 14.9395 12.3962C14.8155 12.29 14.7244 12.1505 14.677 11.9942C14.677 11.7942 14.777 11.8942 15.177 11.7942C15.477 11.6942 15.577 11.2942 15.577 11.0942C15.577 10.7942 15.277 10.5942 14.877 10.4942C14.9495 10.3379 14.9837 10.1665 14.977 9.99424C14.8758 9.79997 14.7126 9.64516 14.5132 9.55454C14.3138 9.46391 14.0898 9.44268 13.877 9.49424L14.377 13.4942C16.4237 12.8849 18.5421 12.5486 20.677 12.4942C22.8173 12.4839 24.945 12.8217 26.977 13.4942L27.677 9.39424Z" fill="white" stroke="#96917A" stroke-width="0.188" stroke-miterlimit="2.613"/>
<path opacity="0.6" fill-rule="evenodd" clip-rule="evenodd" d="M26.577 8.99395L26.977 4.79395C26.9178 4.78728 26.858 4.79234 26.8008 4.80885C26.7437 4.82535 26.6904 4.85298 26.6439 4.89014C26.5975 4.9273 26.5588 4.97327 26.5301 5.0254C26.5015 5.07753 26.4834 5.13481 26.477 5.19394C26.477 5.19394 26.477 5.69395 26.577 5.79395C26.4973 5.79055 26.4177 5.80374 26.3434 5.8327C26.2691 5.86165 26.2015 5.90572 26.1451 5.96213C26.0887 6.01854 26.0447 6.08604 26.0157 6.16038C25.9868 6.23471 25.9736 6.31425 25.977 6.39395C25.9715 6.54941 26.0176 6.70231 26.108 6.82889C26.1984 6.95547 26.3281 7.04865 26.477 7.09395C26.577 7.39394 26.377 7.69394 26.177 7.69394C25.777 7.69394 25.777 7.49395 25.777 7.09395V6.79395L25.677 6.99395C25.677 7.29395 25.177 7.49395 24.877 7.39395C24.8102 7.39804 24.7434 7.38791 24.6809 7.36423C24.6184 7.34055 24.5616 7.30386 24.5143 7.25658C24.467 7.20931 24.4304 7.15254 24.4067 7.09002C24.383 7.02751 24.3729 6.96067 24.377 6.89395C24.377 6.39395 24.377 6.79395 24.877 6.79395C25.0755 6.82994 25.2802 6.78752 25.4481 6.67561C25.6159 6.5637 25.7338 6.39103 25.777 6.19394C25.6113 5.86557 25.3244 5.61453 24.977 5.49395H24.877C24.977 5.49395 24.977 5.39395 25.077 5.29395C25.1035 5.10829 25.0552 4.91971 24.9426 4.76968C24.8301 4.61965 24.6626 4.52047 24.477 4.49395C24.2913 4.46742 24.1027 4.51574 23.9527 4.62826C23.8027 4.74078 23.7035 4.90829 23.677 5.09395V5.39395H23.577C23.3784 5.35795 23.1737 5.40037 23.0058 5.51228C22.838 5.62419 22.7201 5.79686 22.677 5.99395C22.577 6.39395 22.877 6.69395 23.277 6.79395C23.677 6.89395 23.777 6.69395 23.777 6.89395C23.7664 7.04961 23.6998 7.19618 23.5895 7.3065C23.4792 7.41682 23.3326 7.48342 23.177 7.49395C22.777 7.49395 22.477 7.29395 22.477 6.89395C22.477 6.79395 22.477 6.59395 22.377 6.59395C22.3226 6.64784 22.2874 6.71812 22.277 6.79395C22.277 7.09395 21.977 7.29395 21.477 7.29395C21.3471 7.28548 21.2248 7.23009 21.1328 7.13809C21.0408 7.04609 20.9854 6.92377 20.977 6.79395C20.977 6.49395 20.977 6.69394 21.377 6.69394C21.4689 6.69394 21.5599 6.67584 21.6448 6.64066C21.7298 6.60548 21.8069 6.55392 21.8719 6.48892C21.9369 6.42392 21.9885 6.34675 22.0237 6.26182C22.0588 6.1769 22.077 6.08587 22.077 5.99395C22.077 5.90202 22.0588 5.81099 22.0237 5.72607C21.9885 5.64114 21.9369 5.56397 21.8719 5.49897C21.8069 5.43397 21.7298 5.38241 21.6448 5.34723C21.5599 5.31205 21.4689 5.29395 21.377 5.29395H21.277C21.277 5.19395 21.377 5.09395 21.377 4.99395C21.377 4.80829 21.3032 4.63025 21.1719 4.49897C21.0407 4.3677 20.8626 4.29395 20.677 4.29395C20.4913 4.29395 20.3133 4.3677 20.182 4.49897C20.0507 4.63025 19.977 4.80829 19.977 4.99395C19.9702 5.04824 19.9757 5.10336 19.993 5.15527C20.0103 5.20718 20.039 5.25456 20.077 5.29395H19.977C19.8844 5.29175 19.7924 5.30836 19.7065 5.34277C19.6206 5.37717 19.5425 5.42865 19.4771 5.49409C19.4117 5.55954 19.3602 5.63758 19.3258 5.7235C19.2914 5.80941 19.2748 5.90142 19.277 5.99395C19.277 6.39395 19.577 6.79394 19.977 6.69394C20.377 6.69394 20.377 6.49395 20.377 6.79395C20.381 6.86067 20.3709 6.92751 20.3472 6.99002C20.3236 7.05254 20.2869 7.10931 20.2396 7.15658C20.1923 7.20386 20.1355 7.24055 20.073 7.26423C20.0105 7.28791 19.9437 7.29804 19.877 7.29395C19.477 7.29395 19.177 7.09395 19.177 6.79395C19.177 6.69395 19.177 6.59395 19.077 6.59395C19.028 6.68805 18.9943 6.7893 18.977 6.89395C18.977 7.29395 18.677 7.49395 18.277 7.49395C17.977 7.49395 17.777 7.19395 17.677 6.89395C17.677 6.69395 17.777 6.89395 18.177 6.79395C18.577 6.69395 18.877 6.39395 18.777 5.99395C18.7338 5.79686 18.6159 5.62419 18.4481 5.51228C18.2802 5.40037 18.0755 5.35795 17.877 5.39395H17.777V5.09395C17.677 4.69395 17.277 4.39395 16.977 4.49395C16.577 4.59395 16.277 4.99395 16.377 5.29395C16.3702 5.34824 16.3757 5.40336 16.393 5.45527C16.4103 5.50718 16.439 5.55456 16.477 5.59395H16.377C16.1799 5.63707 16.0072 5.75497 15.8953 5.92283C15.7834 6.0907 15.741 6.29543 15.777 6.49395C16.1132 6.78466 16.5338 6.95991 16.977 6.99395C17.377 6.99395 17.477 6.59395 17.477 7.09395C17.477 7.39394 17.277 7.49395 16.977 7.59395C16.677 7.69394 16.177 7.49394 16.177 7.19394L16.077 6.99395V7.29395C16.077 7.69395 16.077 7.89395 15.677 7.89395C15.6116 7.88483 15.5494 7.85994 15.4957 7.82142C15.4421 7.7829 15.3987 7.73192 15.3691 7.67286C15.3396 7.6138 15.3249 7.54845 15.3262 7.48244C15.3276 7.41642 15.345 7.35173 15.377 7.29395C15.5258 7.24865 15.6555 7.15547 15.7459 7.02889C15.8363 6.90231 15.8824 6.74941 15.877 6.59395C15.8803 6.51425 15.8672 6.43471 15.8382 6.36038C15.8093 6.28605 15.7652 6.21854 15.7088 6.16213C15.6524 6.10572 15.5849 6.06165 15.5105 6.0327C15.4362 6.00374 15.3567 5.99055 15.277 5.99395C15.477 5.89395 15.377 5.39395 15.377 5.39395C15.3624 5.27517 15.3019 5.16681 15.2085 5.09205C15.115 5.0173 14.996 4.98208 14.877 4.99395L15.177 8.99395C17.0289 8.44363 18.9456 8.141 20.877 8.09395C22.8076 8.14876 24.7233 8.45123 26.577 8.99395Z" fill="white" stroke="#96917A" stroke-width="0.188" stroke-miterlimit="2.613"/>
<path opacity="0.6" fill-rule="evenodd" clip-rule="evenodd" d="M20.777 18.4938C18.9511 18.5508 17.1279 18.3145 15.377 17.7938C17.1707 17.3155 19.0206 17.0801 20.877 17.0938C22.7004 17.0802 24.5172 17.3157 26.277 17.7938C24.4832 18.2721 22.6333 18.5076 20.777 18.4938Z" fill="#96917A" stroke="#96917A" stroke-width="0.191" stroke-miterlimit="2.613"/>
<path opacity="0.6" fill-rule="evenodd" clip-rule="evenodd" d="M17.777 16.4941C17.8166 16.4941 17.8552 16.5059 17.8881 16.5278C17.921 16.5498 17.9467 16.5811 17.9618 16.6176C17.9769 16.6541 17.9809 16.6944 17.9732 16.7332C17.9655 16.772 17.9464 16.8076 17.9184 16.8356C17.8905 16.8635 17.8548 16.8826 17.816 16.8903C17.7772 16.898 17.737 16.8941 17.7005 16.8789C17.6639 16.8638 17.6327 16.8381 17.6107 16.8053C17.5888 16.7724 17.577 16.7337 17.577 16.6941C17.677 16.5941 17.677 16.4941 17.777 16.4941Z" fill="#96917A" stroke="#96917A" stroke-width="0.057" stroke-miterlimit="2.613"/>
<path opacity="0.6" fill-rule="evenodd" clip-rule="evenodd" d="M23.877 16.4941C23.8374 16.4941 23.7988 16.5059 23.7659 16.5278C23.733 16.5498 23.7074 16.5811 23.6922 16.6176C23.6771 16.6541 23.6731 16.6944 23.6808 16.7332C23.6886 16.772 23.7076 16.8076 23.7356 16.8356C23.7636 16.8635 23.7992 16.8826 23.838 16.8903C23.8768 16.898 23.917 16.8941 23.9535 16.8789C23.9901 16.8638 24.0213 16.8381 24.0433 16.8053C24.0653 16.7724 24.077 16.7337 24.077 16.6941C23.977 16.5941 23.977 16.4941 23.877 16.4941Z" fill="#96917A" stroke="#96917A" stroke-width="0.057" stroke-miterlimit="2.613"/>
<path opacity="0.6" fill-rule="evenodd" clip-rule="evenodd" d="M20.877 16.394C20.9166 16.394 20.9552 16.4058 20.9881 16.4277C21.021 16.4497 21.0466 16.481 21.0618 16.5175C21.0769 16.5541 21.0809 16.5943 21.0732 16.6331C21.0654 16.6719 21.0464 16.7075 21.0184 16.7355C20.9905 16.7634 20.9548 16.7825 20.916 16.7902C20.8772 16.7979 20.837 16.794 20.8005 16.7788C20.7639 16.7637 20.7327 16.738 20.7107 16.7052C20.6887 16.6723 20.677 16.6336 20.677 16.594C20.777 16.394 20.777 16.394 20.877 16.394Z" fill="#96917A" stroke="#96917A" stroke-width="0.057" stroke-miterlimit="2.613"/>
<path opacity="0.6" fill-rule="evenodd" clip-rule="evenodd" d="M17.777 7.59424C17.8166 7.59424 17.8552 7.60597 17.8881 7.62794C17.921 7.64992 17.9467 7.68116 17.9618 7.7177C17.9769 7.75425 17.9809 7.79446 17.9732 7.83326C17.9655 7.87205 17.9464 7.90769 17.9184 7.93566C17.8905 7.96363 17.8548 7.98268 17.816 7.9904C17.7772 7.99811 17.737 7.99415 17.7005 7.97901C17.6639 7.96388 17.6327 7.93824 17.6107 7.90535C17.5888 7.87246 17.577 7.83379 17.577 7.79424C17.677 7.69424 17.677 7.59424 17.777 7.59424Z" fill="#96917A" stroke="#96917A" stroke-width="0.057" stroke-miterlimit="2.613"/>
<path opacity="0.6" fill-rule="evenodd" clip-rule="evenodd" d="M23.877 7.59424C23.8374 7.59424 23.7988 7.60597 23.7659 7.62794C23.733 7.64992 23.7074 7.68116 23.6922 7.7177C23.6771 7.75425 23.6731 7.79446 23.6808 7.83326C23.6886 7.87205 23.7076 7.90769 23.7356 7.93566C23.7636 7.96363 23.7992 7.98268 23.838 7.9904C23.8768 7.99811 23.917 7.99415 23.9535 7.97901C23.9901 7.96388 24.0213 7.93824 24.0433 7.90535C24.0653 7.87246 24.077 7.83379 24.077 7.79424C24.0735 7.74235 24.0513 7.69349 24.0145 7.65672C23.9777 7.61995 23.9289 7.59775 23.877 7.59424Z" fill="#96917A" stroke="#96917A" stroke-width="0.057" stroke-miterlimit="2.613"/>
<path opacity="0.6" fill-rule="evenodd" clip-rule="evenodd" d="M20.877 7.39404C20.9166 7.39404 20.9552 7.40577 20.9881 7.42775C21.021 7.44973 21.0466 7.48096 21.0618 7.51751C21.0769 7.55405 21.0809 7.59426 21.0732 7.63306C21.0654 7.67186 21.0464 7.70749 21.0184 7.73546C20.9905 7.76343 20.9548 7.78248 20.916 7.7902C20.8772 7.79792 20.837 7.79396 20.8005 7.77882C20.7639 7.76368 20.7327 7.73805 20.7107 7.70516C20.6887 7.67227 20.677 7.6336 20.677 7.59404C20.6805 7.54216 20.7027 7.4933 20.7395 7.45652C20.7763 7.41975 20.8251 7.39755 20.877 7.39404Z" fill="#96917A" stroke="#96917A" stroke-width="0.057" stroke-miterlimit="2.613"/>
<path opacity="0.6" fill-rule="evenodd" clip-rule="evenodd" d="M17.777 11.9941C17.8166 11.9941 17.8552 12.0059 17.8881 12.0278C17.921 12.0498 17.9467 12.0811 17.9618 12.1176C17.9769 12.1541 17.9809 12.1944 17.9732 12.2332C17.9655 12.272 17.9464 12.3076 17.9184 12.3356C17.8905 12.3635 17.8548 12.3826 17.816 12.3903C17.7772 12.398 17.737 12.3941 17.7005 12.3789C17.6639 12.3638 17.6327 12.3381 17.6107 12.3053C17.5888 12.2724 17.577 12.2337 17.577 12.1941C17.677 12.0941 17.677 11.9941 17.777 11.9941Z" fill="#96917A" stroke="#96917A" stroke-width="0.057" stroke-miterlimit="2.613"/>
<path opacity="0.6" fill-rule="evenodd" clip-rule="evenodd" d="M23.877 11.9941C23.8374 11.9941 23.7988 12.0059 23.7659 12.0278C23.733 12.0498 23.7074 12.0811 23.6922 12.1176C23.6771 12.1541 23.6731 12.1944 23.6808 12.2332C23.6886 12.272 23.7076 12.3076 23.7356 12.3356C23.7636 12.3635 23.7992 12.3826 23.838 12.3903C23.8768 12.398 23.917 12.3941 23.9535 12.3789C23.9901 12.3638 24.0213 12.3381 24.0433 12.3053C24.0653 12.2724 24.077 12.2337 24.077 12.1941C23.977 12.0941 23.977 11.9941 23.877 11.9941Z" fill="#96917A" stroke="#96917A" stroke-width="0.057" stroke-miterlimit="2.613"/>
<path opacity="0.6" fill-rule="evenodd" clip-rule="evenodd" d="M20.877 11.7939C20.9166 11.7939 20.9552 11.8057 20.9881 11.8277C21.021 11.8496 21.0466 11.8809 21.0618 11.9174C21.0769 11.954 21.0809 11.9942 21.0732 12.033C21.0654 12.0718 21.0464 12.1074 21.0184 12.1354C20.9905 12.1633 20.9548 12.1824 20.916 12.1901C20.8772 12.1978 20.837 12.1939 20.8005 12.1787C20.7639 12.1636 20.7327 12.1379 20.7107 12.1051C20.6887 12.0722 20.677 12.0335 20.677 11.9939C20.777 11.8939 20.777 11.7939 20.877 11.7939Z" fill="#96917A" stroke="#96917A" stroke-width="0.057" stroke-miterlimit="2.613"/>
<path opacity="0.6" fill-rule="evenodd" clip-rule="evenodd" d="M24.477 17.3938L22.377 17.1938C22.2851 17.6137 22.3111 18.0508 22.4523 18.4568C22.5935 18.8627 22.8444 19.2217 23.177 19.4938H25.377C24.8555 18.9111 24.5394 18.1734 24.477 17.3938Z" fill="white" stroke="#96917A" stroke-width="0.188" stroke-miterlimit="2.613"/>
<path opacity="0.6" fill-rule="evenodd" clip-rule="evenodd" d="M17.277 17.3938L19.377 17.1938C19.4689 17.6137 19.4429 18.0508 19.3017 18.4568C19.1605 18.8627 18.9096 19.2217 18.577 19.4938H16.377C16.8985 18.9111 17.2146 18.1734 17.277 17.3938Z" fill="white" stroke="#96917A" stroke-width="0.188" stroke-miterlimit="2.613"/>
<path opacity="0.6" fill-rule="evenodd" clip-rule="evenodd" d="M20.877 45.694C21.077 45.694 21.077 45.594 21.177 45.394L21.477 44.894C22.1553 44.1007 22.9993 43.4657 23.9495 43.0338C24.8998 42.6018 25.9332 42.3835 26.977 42.394L28.177 42.194C31.477 41.294 31.777 37.594 31.777 34.894V19.394H9.87695V34.894C9.87695 37.594 10.177 41.294 13.477 42.194L14.677 42.394C15.7207 42.3835 16.7541 42.6018 17.7044 43.0338C18.6546 43.4657 19.4986 44.1007 20.177 44.894L20.477 45.394C20.577 45.494 20.677 45.694 20.877 45.694Z" fill="white" stroke="#96917A" stroke-width="0.276" stroke-miterlimit="2.613"/>
<path opacity="0.6" fill-rule="evenodd" clip-rule="evenodd" d="M24.9771 32.1941C25.3135 32.2105 25.6505 32.1768 25.9771 32.0941V38.8941C23.7771 39.9941 22.3771 38.5941 20.7771 39.4941C19.1771 38.4941 17.8771 39.8941 15.5771 38.8941V32.0941C15.8695 32.1766 16.1736 32.2104 16.4771 32.1941C16.9771 31.7941 15.9771 29.8941 16.4771 28.9941C16.5771 28.6941 16.8771 28.5941 17.1771 28.4941C17.6771 28.3941 18.0771 28.6941 18.4771 28.4941C19.1771 27.4941 18.7771 26.0941 19.3771 24.9941C19.0771 24.9941 18.7771 25.5941 18.7771 25.7941C18.7771 25.8941 18.4771 25.9941 18.4771 25.7941C18.6466 24.3115 18.9139 22.8416 19.2771 21.3941C18.1771 22.1941 17.977 24.4941 17.7771 25.7941C17.7771 25.9941 17.4771 26.1941 17.3771 25.6941C17.059 24.1397 17.0932 22.5337 17.4771 20.9941C16.3771 21.8941 16.4771 24.6941 16.5771 26.0941C16.5771 26.0941 16.5771 26.3941 16.3771 26.4941C16.3639 26.4941 16.3509 26.4916 16.3388 26.4865C16.3267 26.4815 16.3156 26.4741 16.3063 26.4649C16.2971 26.4556 16.2897 26.4445 16.2847 26.4324C16.2796 26.4203 16.2771 26.4073 16.2771 26.3941C15.6333 24.9349 15.2282 23.3818 15.0771 21.7941L14.9771 21.0941H14.8771L14.6771 21.5941C14.3771 23.2941 15.0771 25.0941 15.6771 26.7941C15.6771 26.8941 15.5771 27.0941 15.4771 27.0941C15.3771 26.9941 15.2771 26.8941 15.1771 26.8941C13.8087 25.5172 12.7218 23.8868 11.9771 22.0941V22.6941C12.4306 24.8145 13.6389 26.6979 15.3771 27.9941C15.5771 28.2941 15.4771 28.3941 15.3771 28.4941C14.7771 29.0941 11.8771 26.1941 11.5771 25.6941C12.0386 27.2257 13.0789 28.5171 14.4771 29.2941C14.5771 29.4941 14.6771 29.5941 14.5771 29.7941C14.4671 29.8441 14.3478 29.8699 14.2271 29.8699C14.1063 29.8699 13.987 29.8441 13.8771 29.7941C12.9959 29.4375 12.1838 28.9299 11.4771 28.2941C11.8771 29.3941 13.0771 29.8941 14.1771 30.4941C14.2771 30.5941 14.4771 30.7941 14.4771 30.8941C14.5771 31.0941 14.5771 30.9941 14.5771 31.1941C14.5771 31.2941 14.5771 31.3941 14.4771 31.3941C13.5364 31.3632 12.6143 31.1242 11.7771 30.6941H11.6771V30.7941C12.0062 31.1785 12.4159 31.4858 12.8771 31.6941C13.4078 31.9649 13.9843 32.1344 14.5771 32.1941C14.6771 32.1941 14.6771 32.2941 14.5771 32.3941C13.7943 32.9143 12.9066 33.2558 11.9771 33.3941C12.8771 33.7941 13.6771 33.3941 14.5771 33.3941V33.4941C14.1771 34.5941 12.5771 34.8941 11.5771 35.3941V35.4941C12.5291 35.6652 13.511 35.5249 14.3771 35.0941C14.4771 35.0941 14.6771 34.9941 14.6771 35.2941C14.6771 35.8941 12.5771 37.0941 11.9771 37.2941V37.3941L12.0771 37.4941C12.8098 37.4349 13.5236 37.231 14.1771 36.8941L14.6771 36.6941C14.8771 36.7941 14.7771 37.2941 14.5771 37.4941C13.9314 38.1832 13.1477 38.7284 12.2771 39.0941C12.3771 39.1941 12.4771 39.0941 12.4771 39.1941C13.2196 39.1962 13.9477 38.9882 14.5771 38.5941C14.9771 38.3941 14.8771 38.8941 14.5771 39.3941C14.1788 39.9592 13.6682 40.4358 13.0771 40.7941C13.7734 40.7936 14.4468 40.5455 14.9771 40.0941C15.3771 39.7941 15.3771 39.9941 15.3771 40.3941C15.2564 40.8214 15.013 41.2039 14.6771 41.4941C15.2706 41.3167 15.8172 41.0092 16.2771 40.5941C16.5771 40.2941 17.0771 39.9941 17.0771 40.5941C16.9567 40.999 16.7522 41.3738 16.4771 41.6941C17.0965 41.4719 17.6478 41.0929 18.0771 40.5941C18.3771 40.1941 18.6771 40.2941 18.7771 40.3941C18.877 40.8941 18.2771 41.4941 18.1771 41.6941C18.6881 41.349 19.1578 40.9464 19.5771 40.4941C19.6601 40.3831 19.7651 40.2902 19.8855 40.2214C20.0059 40.1526 20.1392 40.1093 20.2771 40.0941C20.477 40.0941 20.5771 40.2941 20.8771 40.2941C21.1771 40.2941 21.2771 40.0941 21.4771 40.0941C21.7771 40.0941 21.8771 40.1941 22.1771 40.4941C22.5733 40.9697 23.0465 41.3753 23.5771 41.6941C23.3771 41.4941 22.8771 40.8941 22.9771 40.3941C22.9771 40.1941 23.2771 40.1941 23.6771 40.5941C24.1063 41.0929 24.6576 41.4719 25.2771 41.6941C25.0019 41.3738 24.7974 40.999 24.6771 40.5941C24.6771 39.9941 25.0771 40.1941 25.4771 40.5941C25.9369 41.0092 26.4835 41.3167 27.0771 41.4941C26.7213 41.2215 26.4733 40.8319 26.3771 40.3941C26.3771 39.9941 26.3771 39.7941 26.7771 40.0941C27.3073 40.5455 27.9807 40.7936 28.6771 40.7941C28.0859 40.4358 27.5753 39.9592 27.1771 39.3941C26.8771 38.8941 26.7771 38.3941 27.1771 38.5941C27.8064 38.9882 28.5345 39.1962 29.2771 39.1941C29.3771 39.0941 29.4771 39.1941 29.4771 39.0941C28.6064 38.7284 27.8227 38.1832 27.1771 37.4941C26.9771 37.2941 26.8771 36.7941 27.0771 36.6941C27.2503 36.7431 27.4179 36.8101 27.5771 36.8941C28.2254 37.2437 28.9419 37.4484 29.6771 37.4941C29.7036 37.4941 29.729 37.4836 29.7478 37.4649C29.7665 37.4461 29.7771 37.4207 29.7771 37.3941V37.2941C29.177 37.0941 27.0771 35.8941 27.0771 35.2941C27.0771 34.8941 27.2771 34.9941 27.3771 35.0941C28.2452 35.5182 29.2249 35.6582 30.1771 35.4941C30.2771 35.4941 30.2771 35.3941 30.1771 35.3941C29.1771 34.9941 27.5771 34.5941 27.1771 33.4941V33.3941C28.0771 33.3941 28.8771 33.7941 29.7771 33.3941C28.8521 33.2387 27.9678 32.8986 27.1771 32.3941C27.0771 32.2941 27.1771 32.2941 27.1771 32.1941C27.7528 32.0602 28.3204 31.8932 28.8771 31.6941C29.3678 31.5394 29.7911 31.2219 30.0771 30.7941V30.6941H29.9771C29.1399 31.1242 28.2177 31.3632 27.2771 31.3941C27.177 31.3941 27.1771 31.2941 27.1771 31.1941C27.1771 30.9941 27.177 31.0941 27.2771 30.8941C27.2771 30.7941 27.4771 30.5941 27.5771 30.4941C28.6771 29.8941 29.8771 29.3941 30.2771 28.2941C29.5297 28.8738 28.7256 29.3764 27.8771 29.7941C27.7671 29.8441 27.6478 29.8699 27.5271 29.8699C27.4063 29.8699 27.287 29.8441 27.1771 29.7941C27.0771 29.5941 27.177 29.4941 27.2771 29.2941C28.6497 28.4871 29.6808 27.2071 30.1771 25.6941C29.9771 26.1941 27.0771 29.0941 26.3771 28.4941C26.3411 28.4632 26.3122 28.4248 26.2925 28.3816C26.2727 28.3385 26.2625 28.2916 26.2625 28.2441C26.2625 28.1967 26.2727 28.1498 26.2925 28.1066C26.3122 28.0635 26.3411 28.0251 26.3771 27.9941C28.0636 26.6505 29.2589 24.7873 29.7771 22.6941L29.6771 22.1941C28.9323 23.9868 27.8454 25.6172 26.4771 26.9941C26.3771 27.0941 26.2771 27.1941 26.1771 27.1941C26.0771 27.1941 25.8771 26.9941 25.9771 26.8941C26.7862 25.2871 27.1324 23.4867 26.9771 21.6941L26.7771 21.1941H26.6771L26.5771 21.8941C26.3782 23.473 25.9748 25.0193 25.3771 26.4941L25.2771 26.5941C25.0771 26.5941 25.0771 26.1941 25.0771 26.1941C25.1771 24.7941 25.2771 21.9941 24.1771 21.0941C24.5609 22.6337 24.5951 24.2397 24.2771 25.7941C24.177 26.2941 23.8771 26.0941 23.8771 25.8941C23.6771 24.5941 23.4771 22.2941 22.3771 21.4941C22.7402 22.9416 23.0075 24.4115 23.1771 25.8941C23.1771 25.9339 23.1612 25.9721 23.1331 26.0002C23.105 26.0283 23.0668 26.0441 23.0271 26.0441C22.9873 26.0441 22.9491 26.0283 22.921 26.0002C22.8929 25.9721 22.8771 25.9339 22.8771 25.8941C22.8771 25.6941 22.5771 25.0941 22.2771 25.0941C22.8771 26.1941 22.4771 27.5941 23.1771 28.5941C23.5771 28.7941 23.9771 28.3941 24.4771 28.5941C24.7771 28.6941 25.0771 28.7941 25.1771 29.0941C25.5771 29.8941 24.2771 31.8941 24.9771 32.1941Z" fill="white" stroke="#96917A" stroke-width="0.191" stroke-miterlimit="2.613"/>
<path opacity="0.6" fill-rule="evenodd" clip-rule="evenodd" d="M20.877 39.4938V32.3938V39.4938ZM20.877 32.3938C19.077 31.3938 17.477 32.5938 15.777 32.0938V38.8938C17.977 39.9938 19.277 38.4938 20.877 39.4938C22.577 38.4938 23.777 39.8938 26.077 38.8938V32.0938C24.277 32.5938 22.677 31.1938 20.877 32.3938Z" fill="white" stroke="#96917A" stroke-width="0.187" stroke-miterlimit="2.613"/>
<path opacity="0.6" fill-rule="evenodd" clip-rule="evenodd" d="M24.177 37.4941C24.577 36.3941 25.177 35.2941 24.477 34.1941C24.3284 33.9927 24.1313 33.8321 23.904 33.7272C23.6767 33.6223 23.4267 33.5765 23.177 33.5941C22.9051 33.6362 22.6498 33.7516 22.4384 33.9277C22.227 34.1039 22.0675 34.3342 21.977 34.5941C21.8765 35.0834 21.8872 35.5891 22.0084 36.0737C22.1295 36.5583 22.358 37.0096 22.677 37.3941C22.477 37.5941 22.177 37.3941 21.877 37.3941C21.777 37.2941 21.977 37.1941 21.877 37.0941C21.977 36.9941 22.177 37.0941 22.377 37.0941C21.977 36.1941 21.477 34.9941 22.077 34.0941C22.2927 33.8339 22.5712 33.633 22.8862 33.5105C23.2011 33.388 23.5422 33.3479 23.877 33.3941C24.1361 33.4397 24.377 33.5579 24.5716 33.7349C24.7663 33.9119 24.9069 34.1405 24.977 34.3941C25.377 35.2941 24.777 36.2941 24.477 37.2941C24.677 37.2941 24.777 37.1941 24.977 37.2941V37.5941C24.777 37.5941 24.477 37.3941 24.177 37.4941Z" fill="#96917A" stroke="#96917A" stroke-width="0.576" stroke-miterlimit="2.613"/>
<path opacity="0.6" fill-rule="evenodd" clip-rule="evenodd" d="M19.577 37.3941C19.377 37.2941 19.477 37.3941 19.377 37.2941C19.377 37.0941 19.577 37.1941 19.577 36.9941L19.177 36.0941H17.477L17.077 37.0941C17.1313 37.0874 17.1864 37.0929 17.2383 37.1102C17.2903 37.1275 17.3376 37.1562 17.377 37.1941V37.3941H16.577L16.677 37.1941C16.777 37.0941 16.877 37.1941 16.977 36.9941L18.277 33.7941C18.0719 33.7783 17.866 33.8126 17.677 33.8941C17.577 33.7941 17.677 33.6941 17.677 33.4941H19.577V33.7941L19.177 33.9941C18.977 33.9941 18.877 33.8941 18.677 33.8941L18.577 33.9941L19.977 37.1941L20.077 37.2941V37.3941H19.577ZM17.477 35.8941L18.177 34.0941L18.977 35.8941H17.477Z" fill="#96917A" stroke="#96917A" stroke-width="0.576" stroke-miterlimit="2.613"/>
<path opacity="0.6" fill-rule="evenodd" clip-rule="evenodd" d="M7.77695 62.4939V65.9939C7.74246 66.4696 7.81067 66.947 7.97695 67.3939C8.09882 67.5366 8.25348 67.6475 8.42767 67.7172C8.60185 67.7868 8.79034 67.8132 8.97695 67.7939H9.47695V67.9939H4.37695V67.6939H4.77695C4.98719 67.7067 5.19737 67.6679 5.38911 67.5807C5.58086 67.4935 5.74835 67.3608 5.87695 67.1939C6.03614 66.78 6.10435 66.3366 6.07695 65.8939V58.1939C6.11145 57.7183 6.04324 57.2409 5.87695 56.7939C5.75509 56.6513 5.60042 56.5404 5.42624 56.4707C5.25206 56.4011 5.06356 56.3747 4.87695 56.3939H4.37695V56.0939H8.77695C9.62085 56.0626 10.4644 56.1638 11.277 56.3939C11.8891 56.6302 12.4372 57.007 12.877 57.4939C13.2964 58.0358 13.5091 58.7094 13.477 59.3939C13.5036 59.8437 13.4273 60.2935 13.254 60.7094C13.0808 61.1253 12.815 61.4962 12.477 61.7939C12.1096 62.1163 11.6815 62.362 11.2178 62.5166C10.7542 62.6711 10.2643 62.7314 9.77695 62.6939C9.4735 62.7102 9.16943 62.6764 8.87695 62.5939C8.57695 62.5939 8.17695 62.4939 7.77695 62.4939ZM7.77695 61.9939C8.0364 62.0706 8.30662 62.1044 8.57695 62.0939H9.17695C9.47797 62.097 9.7762 62.0361 10.052 61.9155C10.3278 61.7948 10.5749 61.6171 10.777 61.3939C11.2109 60.8926 11.4582 60.2567 11.477 59.5939C11.4842 59.1106 11.3816 58.6319 11.177 58.1939C10.9894 57.7744 10.6745 57.4245 10.277 57.1939C9.87456 56.9894 9.42827 56.8865 8.97695 56.8939C8.60413 56.9206 8.23529 56.9876 7.87695 57.0939V61.9939H7.77695Z" fill="white"/>
<path opacity="0.6" fill-rule="evenodd" clip-rule="evenodd" d="M22.677 56.3942V56.0942H26.877V56.3942H26.477C26.2572 56.3891 26.0398 56.4418 25.8468 56.5471C25.6537 56.6524 25.4917 56.8066 25.377 56.9942C25.2178 57.4082 25.1496 57.8516 25.177 58.2942V63.0942C25.2296 64.0448 25.0937 64.9964 24.777 65.8942C24.5233 66.6071 24.028 67.2085 23.377 67.5942C22.5414 68.1184 21.5609 68.3635 20.577 68.2942C19.5289 68.3738 18.4817 68.1295 17.577 67.5942C16.9256 67.1639 16.4337 66.5315 16.177 65.7942C15.9249 64.8494 15.8237 63.8707 15.877 62.8942V58.1942C15.9349 57.7072 15.8294 57.2148 15.577 56.7942C15.4393 56.6792 15.2796 56.5933 15.1077 56.5418C14.9359 56.4902 14.7553 56.474 14.577 56.4942H14.177V56.1942H19.277V56.4942H18.777C18.5683 56.4924 18.3617 56.5363 18.1717 56.6226C17.9817 56.709 17.8129 56.8358 17.677 56.9942C17.5178 57.4082 17.4496 57.8516 17.477 58.2942V63.4942C17.4635 64.0295 17.4969 64.5649 17.577 65.0942C17.6022 65.5999 17.7762 66.087 18.077 66.4942C18.3184 66.859 18.6681 67.1388 19.077 67.2942C19.5471 67.509 20.0605 67.6117 20.577 67.5942C21.3065 67.5947 22.0259 67.4234 22.677 67.0942C23.2264 66.7951 23.6778 66.3437 23.977 65.7942C24.2258 64.9171 24.3271 64.0046 24.277 63.0942V58.2942C24.3007 57.8191 24.2328 57.3438 24.077 56.8942C23.9551 56.7516 23.8005 56.6407 23.6263 56.571C23.4521 56.5014 23.2636 56.475 23.077 56.4942H22.677V56.3942Z" fill="white"/>
<path opacity="0.6" fill-rule="evenodd" clip-rule="evenodd" d="M37.177 55.8939L37.477 59.8939H37.177C36.9245 58.883 36.3657 57.9749 35.577 57.2939C34.8824 56.779 34.0417 56.4988 33.177 56.4939C32.4326 56.4781 31.7007 56.6872 31.077 57.0939C30.4032 57.5682 29.882 58.2284 29.577 58.9939C29.1857 60.048 29.0155 61.1713 29.077 62.2939C29.0703 63.2501 29.2398 64.1993 29.577 65.0939C29.8828 65.863 30.4491 66.5001 31.177 66.8939C31.91 67.3024 32.7381 67.5094 33.577 67.4939C34.2763 67.5078 34.9666 67.3352 35.577 66.9939C36.3661 66.4621 37.0452 65.783 37.577 64.9939L37.877 65.1939C37.3946 66.1341 36.6695 66.9282 35.777 67.4939C34.9312 67.9935 33.9585 68.2366 32.977 68.1939C32.0872 68.2436 31.1991 68.068 30.3951 67.6835C29.591 67.2989 28.897 66.7178 28.377 65.9939C27.9065 65.5033 27.5399 64.9227 27.2993 64.2869C27.0587 63.651 26.9491 62.9732 26.977 62.2939C26.9809 61.1464 27.255 60.0159 27.777 58.9939C28.2645 58.025 29.0307 57.224 29.977 56.6939C30.9275 56.173 31.9932 55.898 33.077 55.8939C33.9464 55.8906 34.8039 56.0964 35.577 56.4939C35.7319 56.5869 35.9007 56.6544 36.077 56.6939C36.1544 56.6925 36.2304 56.6737 36.2996 56.6391C36.3688 56.6045 36.4294 56.5549 36.477 56.4939C36.5747 56.4059 36.6522 56.2978 36.704 56.1769C36.7558 56.0561 36.7807 55.9254 36.777 55.7939H37.177V55.8939Z" fill="white"/>
<path opacity="0.6" fill-rule="evenodd" clip-rule="evenodd" d="M25.3771 69.494C25.7665 69.4722 26.1526 69.5775 26.4771 69.794C26.6031 69.861 26.7075 69.9623 26.7783 70.0862C26.8491 70.2101 26.8833 70.3515 26.8771 70.494C26.8563 70.7065 26.7879 70.9116 26.6771 71.094C26.6183 71.1981 26.5298 71.2823 26.4229 71.3357C26.316 71.3892 26.1956 71.4095 26.0771 71.394L26.7771 72.594C26.877 72.694 26.8771 72.794 26.9771 72.794C27.0309 72.8484 27.1012 72.8835 27.1771 72.894V72.994H26.1771V72.894H26.2771V72.794L25.4771 71.494H24.3771V72.894L24.4771 72.994V73.094H23.4771V72.994C23.5771 72.994 23.5771 72.994 23.6771 72.894V69.694C23.6232 69.6397 23.5529 69.6045 23.4771 69.594V69.494H25.3771ZM25.5771 69.994H24.1771V70.894H25.5771C25.7503 70.9202 25.9272 70.8848 26.0771 70.794C26.1771 70.694 26.2771 70.594 26.2771 70.494C26.2771 70.294 26.1771 70.194 26.0771 70.194C25.9771 69.994 25.7771 69.994 25.5771 69.994Z" fill="white"/>
<path opacity="0.6" fill-rule="evenodd" clip-rule="evenodd" d="M30.277 72.594V72.794L30.377 72.894V72.994H29.377V72.894C29.477 72.894 29.477 72.894 29.577 72.794V69.594C29.5231 69.5397 29.4528 69.5045 29.377 69.494V69.394H30.377V69.494C30.277 69.494 30.277 69.494 30.277 69.594V72.594Z" fill="white"/>
<path opacity="0.6" fill-rule="evenodd" clip-rule="evenodd" d="M34.777 72.9941C34.2631 73.0158 33.7609 72.8365 33.377 72.4941C33.1836 72.3383 33.0288 72.1399 32.9247 71.9144C32.8207 71.6889 32.7701 71.4424 32.777 71.1941C32.7803 70.9475 32.8355 70.7043 32.9388 70.4803C33.0422 70.2564 33.1915 70.0566 33.377 69.8941C33.7786 69.5828 34.269 69.4076 34.777 69.3941C35.288 69.3906 35.7838 69.5676 36.177 69.8941C36.3704 70.0499 36.5252 70.2483 36.6292 70.4738C36.7333 70.6993 36.7839 70.9458 36.777 71.1941C36.7737 71.4407 36.7185 71.6839 36.6152 71.9079C36.5118 72.1318 36.3625 72.3315 36.177 72.4941C35.7931 72.8365 35.2909 73.0158 34.777 72.9941ZM33.477 71.1941C33.4673 71.3798 33.498 71.5654 33.5671 71.7381C33.6361 71.9107 33.7419 72.0663 33.877 72.1941C34.1507 72.4444 34.5062 72.5865 34.877 72.5941C35.0627 72.6038 35.2483 72.5731 35.421 72.504C35.5936 72.4349 35.7492 72.3292 35.877 72.1941C36.1273 71.9204 36.2694 71.5649 36.277 71.1941C36.2962 71.0221 36.2693 70.848 36.199 70.6899C36.1287 70.5317 36.0175 70.3951 35.877 70.2941C35.6033 70.0438 35.2478 69.9016 34.877 69.8941C34.6913 69.8844 34.5057 69.9151 34.333 69.9842C34.1604 70.0532 34.0048 70.159 33.877 70.2941C33.7364 70.3951 33.6253 70.5317 33.555 70.6899C33.4847 70.848 33.4578 71.0221 33.477 71.1941Z" fill="white"/>
</g>
<defs>
<clipPath id="clip0_218_21552">
<rect width="41.767" height="73.094" fill="white"/>
</clipPath>
</defs>
</svg>
