<svg width="59" height="73" viewBox="0 0 59 73" fill="none" xmlns="http://www.w3.org/2000/svg">
<g clip-path="url(#clip0_218_21551)">
<path opacity="0.6" fill-rule="evenodd" clip-rule="evenodd" d="M36.888 14.5592C36.138 7.81318 34.532 3.15918 32.658 3.15918C31.803 3.15918 31.003 4.17618 30.303 5.88918C31.2727 8.58148 31.8846 11.3895 32.123 14.2412C33.783 14.3492 35.389 14.4592 36.888 14.5592Z" fill="white"/>
<path opacity="0.6" fill-rule="evenodd" clip-rule="evenodd" d="M37.37 23.7709C37.37 22.8069 37.37 21.8969 37.316 20.9869C40.7097 21.2285 44.0573 21.9123 47.274 23.0209C49.041 22.3209 50.004 21.5209 50.004 20.6649C50.004 18.0419 40.795 15.8999 29.391 15.8999H28.161C28 17.3999 27.893 19.0049 27.84 20.6649H29.393C30.464 20.6649 31.481 20.6649 32.498 20.7189C32.552 21.7359 32.552 22.7529 32.552 23.8239V25.3769C34.212 25.3229 35.818 25.2159 37.317 25.0559C37.3603 24.629 37.378 24.1999 37.37 23.7709Z" fill="white"/>
<path opacity="0.6" fill-rule="evenodd" clip-rule="evenodd" d="M32.658 0H26.287C23.503 0 21.094 6.853 20.287 16.329C13.541 17.129 8.88696 18.738 8.88696 20.612C8.88696 21.469 9.90396 22.272 11.617 22.968C14.3093 21.9983 17.1173 21.3864 19.969 21.148C19.969 22.005 19.915 22.915 19.915 23.771V24.842C21.842 25.056 23.984 25.217 26.286 25.324V23.771C26.287 10.654 29.125 0 32.658 0Z" fill="white"/>
<path opacity="0.6" fill-rule="evenodd" clip-rule="evenodd" d="M53.218 20.6128V26.9308C53.218 29.7148 46.365 32.1238 36.889 32.9308C36.089 39.6768 34.48 44.3308 32.659 44.3308C31.802 44.3308 30.999 43.3138 30.303 41.6008C31.2218 38.8941 31.8323 36.0924 32.123 33.2488C31.266 33.2488 30.356 33.3028 29.5 33.3028C28.59 33.3028 27.733 33.3028 26.877 33.2488C27.841 41.6548 30.089 47.5438 32.713 47.5438H26.288C23.665 47.5438 21.362 41.4438 20.399 32.8208C11.725 31.8558 5.67505 29.6078 5.67505 26.9308V20.6128C5.67505 24.0928 16.329 26.9308 29.446 26.9308C42.563 26.9308 53.218 24.0928 53.218 20.6128Z" fill="white"/>
<path opacity="0.6" fill-rule="evenodd" clip-rule="evenodd" d="M7.6 53.8599V55.7869H4.765V63.3869H2.838V55.7869H0V53.8599H7.6Z" fill="white"/>
<path opacity="0.6" fill-rule="evenodd" clip-rule="evenodd" d="M21.469 53.8599C20.2052 53.8599 18.9932 54.3619 18.0996 55.2555C17.206 56.1491 16.704 57.3611 16.704 58.6249C16.704 59.8886 17.206 61.1006 18.0996 61.9942C18.9932 62.8878 20.2052 63.3899 21.469 63.3899H24.681V61.4599H21.469C20.7257 61.4459 20.0175 61.1408 19.4967 60.6102C18.976 60.0796 18.6842 59.3658 18.6842 58.6224C18.6842 57.8789 18.976 57.1651 19.4967 56.6345C20.0175 56.1039 20.7257 55.7988 21.469 55.7849H24.681V53.8599H21.469Z" fill="white"/>
<path opacity="0.6" fill-rule="evenodd" clip-rule="evenodd" d="M34.2111 53.8599H38.9761C39.7194 53.8738 40.4276 54.1789 40.9483 54.7095C41.4691 55.2401 41.7608 55.9539 41.7608 56.6974C41.7608 57.4408 41.4691 58.1546 40.9483 58.6852C40.4276 59.2158 39.7194 59.5209 38.9761 59.5349H38.4411L41.8141 63.3349H39.2971L34.2641 57.6059H39.0291C39.1582 57.61 39.2869 57.5882 39.4074 57.5416C39.5279 57.4951 39.6379 57.4248 39.7307 57.3349C39.8235 57.245 39.8973 57.1374 39.9477 57.0184C39.9981 56.8995 40.0241 56.7716 40.0241 56.6424C40.0241 56.5132 39.9981 56.3853 39.9477 56.2663C39.8973 56.1473 39.8235 56.0397 39.7307 55.9498C39.6379 55.8599 39.5279 55.7896 39.4074 55.7431C39.2869 55.6965 39.1582 55.6747 39.0291 55.6789H34.2651V53.8599H34.2111Z" fill="white"/>
<path opacity="0.6" fill-rule="evenodd" clip-rule="evenodd" d="M45.616 53.8599H47.543L50.381 63.3899H48.4L46.58 57.3399L44.76 63.3899H42.778L45.616 53.8599Z" fill="white"/>
<path opacity="0.6" fill-rule="evenodd" clip-rule="evenodd" d="M58.944 53.8599H54.182C53.4308 53.8646 52.7117 54.1651 52.1804 54.6963C51.6492 55.2275 51.3487 55.9466 51.344 56.6979V63.3369H53.271V59.5369H57.071V57.6099H53.271V56.7529C53.2705 56.6261 53.295 56.5005 53.3433 56.3833C53.3916 56.2661 53.4625 56.1597 53.5522 56.07C53.6418 55.9804 53.7483 55.9094 53.8655 55.8612C53.9827 55.8129 54.1083 55.7883 54.235 55.7889H59V53.8599H58.944Z" fill="white"/>
<path opacity="0.6" fill-rule="evenodd" clip-rule="evenodd" d="M30.035 53.8599C28.7713 53.8599 27.5593 54.3619 26.6657 55.2555C25.772 56.1491 25.27 57.3611 25.27 58.6249C25.27 59.8886 25.772 61.1006 26.6657 61.9942C27.5593 62.8878 28.7713 63.3899 30.035 63.3899H33.247V57.6599H31.32V61.4599H29.981C29.6039 61.4669 29.2292 61.3988 28.8787 61.2594C28.5283 61.1199 28.2091 60.9121 27.9399 60.6479C27.6707 60.3837 27.4569 60.0685 27.3109 59.7207C27.1649 59.3729 27.0897 58.9995 27.0897 58.6224C27.0897 58.2452 27.1649 57.8718 27.3109 57.524C27.4569 57.1762 27.6707 56.861 27.9399 56.5968C28.2091 56.3327 28.5283 56.1248 28.8787 55.9854C29.2292 55.8459 29.6039 55.7778 29.981 55.7849H33.193V53.8599H30.035Z" fill="white"/>
<path opacity="0.6" fill-rule="evenodd" clip-rule="evenodd" d="M16.166 53.8599H11.404C10.6528 53.8646 9.9337 54.1651 9.40249 54.6963C8.87128 55.2275 8.57076 55.9466 8.56604 56.6979V60.4979C8.57076 61.2491 8.87128 61.9682 9.40249 62.4994C9.9337 63.0306 10.6528 63.3311 11.404 63.3359H16.166V61.4089H11.404C11.2773 61.4094 11.1517 61.3848 11.0345 61.3366C10.9173 61.2883 10.8108 61.2173 10.7212 61.1277C10.6316 61.0381 10.5606 60.9316 10.5123 60.8144C10.4641 60.6972 10.4395 60.5716 10.44 60.4449V59.4809H14.24V57.5539H10.44V56.7539C10.4395 56.6271 10.4641 56.5015 10.5123 56.3843C10.5606 56.2671 10.6316 56.1607 10.7212 56.071C10.8108 55.9814 10.9173 55.9104 11.0345 55.8622C11.1517 55.8139 11.2773 55.7893 11.404 55.7899H16.166V53.8599Z" fill="white"/>
<path opacity="0.6" fill-rule="evenodd" clip-rule="evenodd" d="M11.939 69.2258C12.054 69.2298 12.1685 69.2105 12.2759 69.1692C12.3832 69.128 12.4812 69.0655 12.5639 68.9856C12.6466 68.9057 12.7123 68.8099 12.7572 68.704C12.8022 68.5982 12.8253 68.4843 12.8253 68.3693C12.8253 68.2543 12.8022 68.1405 12.7572 68.0346C12.7123 67.9287 12.6466 67.833 12.5639 67.7531C12.4812 67.6732 12.3832 67.6107 12.2759 67.5694C12.1685 67.5281 12.054 67.5089 11.939 67.5128H9.47604V69.2798L11.939 69.2258ZM11.939 66.5488C12.4219 66.5488 12.8849 66.7406 13.2263 67.082C13.5677 67.4234 13.7595 67.8865 13.7595 68.3693C13.7595 68.8522 13.5677 69.3152 13.2263 69.6566C12.8849 69.998 12.4219 70.1898 11.939 70.1898H9.47604V72.8668H8.56604V66.5488H11.939Z" fill="white"/>
<path opacity="0.6" fill-rule="evenodd" clip-rule="evenodd" d="M17.025 71.9571C16.9121 71.9586 16.8 71.9374 16.6953 71.8949C16.5907 71.8523 16.4956 71.7893 16.4157 71.7094C16.3359 71.6295 16.2728 71.5344 16.2302 71.4298C16.1877 71.3252 16.1665 71.213 16.168 71.1001V66.6001H15.205V71.1001C15.203 71.3397 15.2487 71.5772 15.3395 71.7989C15.4302 72.0207 15.5642 72.2221 15.7336 72.3915C15.903 72.5609 16.1045 72.6949 16.3262 72.7856C16.5479 72.8764 16.7855 72.9221 17.025 72.9201H18.471C18.7106 72.9221 18.9481 72.8764 19.1699 72.7856C19.3916 72.6949 19.593 72.5609 19.7624 72.3915C19.9318 72.2221 20.0658 72.0207 20.1566 71.7989C20.2473 71.5772 20.293 71.3397 20.291 71.1001V66.6001H19.327V71.1001C19.3285 71.213 19.3073 71.3252 19.2648 71.4298C19.2223 71.5344 19.1592 71.6295 19.0793 71.7094C18.9994 71.7893 18.9044 71.8523 18.7997 71.8949C18.6951 71.9374 18.583 71.9586 18.47 71.9571H17.025Z" fill="white"/>
<path opacity="0.6" fill-rule="evenodd" clip-rule="evenodd" d="M24.8961 72.8668C24.0587 72.8652 23.2561 72.5319 22.6641 71.9398C22.072 71.3477 21.7386 70.5452 21.7371 69.7078C21.7477 68.8733 22.0839 68.076 22.6741 67.4858C23.2642 66.8957 24.0615 66.5595 24.8961 66.5488H26.9301V67.5128H24.8961C24.5954 67.4925 24.2937 67.5342 24.0097 67.6353C23.7258 67.7364 23.4657 67.8948 23.2455 68.1006C23.0253 68.3064 22.8498 68.5553 22.7298 68.8318C22.6097 69.1082 22.5478 69.4064 22.5478 69.7078C22.5478 70.0092 22.6097 70.3074 22.7298 70.5839C22.8498 70.8603 23.0253 71.1092 23.2455 71.315C23.4657 71.5208 23.7258 71.6792 24.0097 71.7803C24.2937 71.8814 24.5954 71.9231 24.8961 71.9028H26.9301V72.8668H24.8961Z" fill="white"/>
<path opacity="0.6" fill-rule="evenodd" clip-rule="evenodd" d="M38.2261 69.2259C38.341 69.2298 38.4555 69.2106 38.5629 69.1693C38.6702 69.128 38.7682 69.0656 38.8509 68.9856C38.9336 68.9057 38.9993 68.81 39.0443 68.7041C39.0892 68.5982 39.1123 68.4844 39.1123 68.3694C39.1123 68.2544 39.0892 68.1406 39.0443 68.0347C38.9993 67.9288 38.9336 67.8331 38.8509 67.7531C38.7682 67.6732 38.6702 67.6108 38.5629 67.5695C38.4555 67.5282 38.341 67.509 38.2261 67.5129H35.764V69.2799L38.2271 69.2259H38.2261ZM39.886 72.8669H38.869L37.9051 70.1899H35.764V72.8669H34.8V66.5489H38.2261C38.4656 66.5469 38.7032 66.5926 38.9249 66.6834C39.1466 66.7741 39.348 66.9081 39.5174 67.0775C39.6868 67.2469 39.8208 67.4483 39.9116 67.67C40.0023 67.8918 40.0481 68.1293 40.0461 68.3689C40.0424 68.7392 39.9284 69.1001 39.7186 69.4052C39.5087 69.7104 39.2126 69.946 38.868 70.0819L39.886 72.8669Z" fill="white"/>
<path opacity="0.6" d="M33.301 69.2261H28.215V70.1901H33.301V69.2261Z" fill="white"/>
<path opacity="0.6" d="M42.51 66.5488H41.546V72.8668H42.51V66.5488Z" fill="white"/>
<path opacity="0.6" fill-rule="evenodd" clip-rule="evenodd" d="M47.221 66.5488C48.0583 66.5504 48.8609 66.8837 49.453 67.4758C50.0451 68.0679 50.3784 68.8705 50.38 69.7078C50.3694 70.5423 50.0331 71.3397 49.443 71.9298C48.8529 72.52 48.0555 72.8562 47.221 72.8668C46.3832 72.8668 45.5797 72.534 44.9873 71.9416C44.3948 71.3491 44.062 70.5456 44.062 69.7078C44.062 68.87 44.3948 68.0665 44.9873 67.4741C45.5797 66.8816 46.3832 66.5488 47.221 66.5488ZM47.221 67.5128C46.7859 67.5128 46.3605 67.6419 45.9988 67.8836C45.637 68.1253 45.355 68.4689 45.1885 68.8709C45.022 69.2729 44.9784 69.7153 45.0633 70.142C45.1482 70.5688 45.3577 70.9608 45.6654 71.2685C45.9731 71.5761 46.3651 71.7857 46.7918 71.8706C47.2186 71.9554 47.6609 71.9119 48.0629 71.7454C48.4649 71.5788 48.8085 71.2969 49.0502 70.9351C49.292 70.5733 49.421 70.1479 49.421 69.7128C49.4249 69.4228 49.3707 69.135 49.2615 68.8663C49.1523 68.5976 48.9904 68.3536 48.7853 68.1485C48.5803 67.9434 48.3362 67.7815 48.0675 67.6723C47.7988 67.5632 47.511 67.5089 47.221 67.5128Z" fill="white"/>
</g>
<defs>
<clipPath id="clip0_218_21551">
<rect width="59" height="72.92" fill="white"/>
</clipPath>
</defs>
</svg>
