<svg width="24" height="24" viewBox="0 0 24 24" fill="none" xmlns="http://www.w3.org/2000/svg">
<path d="M16.4434 15.5547L19.9981 12M19.9981 12L16.4434 8.44528M19.9981 12H7.55661M12.8887 15.5547V16.4434C12.8887 17.1505 12.6078 17.8286 12.1078 18.3286C11.6078 18.8286 10.9297 19.1094 10.2226 19.1094H6.66793C5.96085 19.1094 5.28274 18.8286 4.78276 18.3286C4.28278 17.8286 4.00189 17.1505 4.00189 16.4434V7.5566C4.00189 6.84953 4.28278 6.17141 4.78276 5.67143C5.28274 5.17145 5.96085 4.89056 6.66793 4.89056H10.2226C10.9297 4.89056 11.6078 5.17145 12.1078 5.67143C12.6078 6.17141 12.8887 6.84953 12.8887 7.5566V8.44528" stroke="black" stroke-width="2" stroke-linecap="round" stroke-linejoin="round"/>
</svg>
