<svg width="24" height="24" viewBox="0 0 24 24" fill="none" xmlns="http://www.w3.org/2000/svg">
<path d="M11.75 16H12.475V15.2C12.9417 15.1333 13.3377 14.9417 13.663 14.625C13.9883 14.3083 14.1507 13.9 14.15 13.4C14.15 12.9667 13.9833 12.604 13.65 12.312C13.3167 12.02 12.9333 11.7827 12.5 11.6V9.75C12.6667 9.8 12.8043 9.88333 12.913 10C13.0217 10.1167 13.1007 10.2583 13.15 10.425L14.05 10.05C13.9333 9.7 13.7333 9.421 13.45 9.213C13.1667 9.005 12.85 8.86733 12.5 8.8V8H11.75V8.775C11.2833 8.825 10.8877 8.996 10.563 9.288C10.2383 9.58 10.0757 9.96733 10.075 10.45C10.075 10.9 10.246 11.275 10.588 11.575C10.93 11.875 11.3173 12.1167 11.75 12.3V14.275C11.4833 14.1917 11.2583 14.05 11.075 13.85C10.8917 13.65 10.7667 13.4167 10.7 13.15L9.825 13.525C9.95833 13.9917 10.1917 14.375 10.525 14.675C10.8583 14.975 11.2667 15.1583 11.75 15.225V16ZM12.5 14.25V12.6C12.6833 12.6833 12.846 12.7833 12.988 12.9C13.13 13.0167 13.2007 13.1917 13.2 13.425C13.2 13.6917 13.1333 13.8793 13 13.988C12.8667 14.0967 12.7 14.184 12.5 14.25ZM11.75 11.275C11.5667 11.1917 11.4 11.0917 11.25 10.975C11.1 10.8583 11.025 10.6833 11.025 10.45C11.025 10.2167 11.1 10.0457 11.25 9.937C11.4 9.82833 11.5667 9.75767 11.75 9.725V11.275ZM8 19C6.05 19 4.396 18.321 3.038 16.963C1.68 15.605 1.00067 13.9507 1 12C0.999334 10.0493 1.67867 8.39533 3.038 7.038C4.39733 5.68067 6.05133 5.00133 8 5H16C17.95 5 19.6043 5.67933 20.963 7.038C22.3217 8.39667 23.0007 10.0507 23 12C22.9993 13.9493 22.3203 15.6037 20.963 16.963C19.6057 18.3223 17.9513 19.0013 16 19H8ZM8 17H16C17.3833 17 18.5627 16.5123 19.538 15.537C20.5133 14.5617 21.0007 13.3827 21 12C20.9993 10.6173 20.5117 9.43833 19.537 8.463C18.5623 7.48767 17.3833 7 16 7H8C6.61667 7 5.43767 7.48767 4.463 8.463C3.48833 9.43833 3.00067 10.6173 3 12C2.99933 13.3827 3.487 14.562 4.463 15.538C5.439 16.514 6.618 17.0013 8 17Z" fill="black"/>
</svg>
